M48
METRIC,LZ,000.000
;FILE_FORMAT=3:3
;TYPE=PLATED
;Layer: PTH_Through_Via
;EasyEDA v6.5.42, 2024-04-17 10:54:12
;b58fe179de73491898139d20c7eecbb3,24a069b98e7845178fa3f65ba4aff580,10
;Gerber Generator version 0.2
;Holesize 1 = 0.701 mm
T01C0.701
%
G05
G90
T01
X018923Y004699
X026670Y028702
X057150Y026035
X006731Y069342
X041656Y071882
X049530Y074295
X049530Y066548
X049530Y059182
X049530Y051435
X057150Y051435
X049530Y043815
X057150Y043815
X049530Y036195
X057150Y036195
X044450Y013208
X018923Y012446
X018669Y069342
X006477Y031242
X019304Y031242
X019304Y043942
X019304Y056642
X006477Y043942
X006477Y056642
X044450Y006350
X044450Y-001270
X026670Y012446
X026670Y004699
X026670Y021336
X018923Y021336
X050800Y-001270
X057023Y-001270
X057277Y066548
X062230Y060960
M30
