M48
METRIC,LZ,000.000
;FILE_FORMAT=3:3
;TYPE=PLATED
;Layer: PTH_Through
;EasyEDA v6.5.42, 2024-04-17 10:54:12
;b58fe179de73491898139d20c7eecbb3,24a069b98e7845178fa3f65ba4aff580,10
;Gerber Generator version 0.2
;Holesize 1 = 0.701 mm
T01C0.701
;Holesize 2 = 0.889 mm
T02C0.889
;Holesize 3 = 0.915 mm
T03C0.915
;Holesize 4 = 1.000 mm
T04C1.000
;Holesize 5 = 1.301 mm
T05C1.301
;Holesize 6 = 2.540 mm
T06C2.540
%
G05
G90
T01
X018923Y004699
X026670Y028702
X057150Y026035
X006731Y069342
X041656Y071882
X049530Y074295
X049530Y066548
X049530Y059182
X049530Y051435
X057150Y051435
X049530Y043815
X057150Y043815
X049530Y036195
X057150Y036195
X044450Y013208
X018923Y012446
X018669Y069342
X006477Y031242
X019304Y031242
X019304Y043942
X019304Y056642
X006477Y043942
X006477Y056642
X044450Y006350
X044450Y-001270
X026670Y012446
X026670Y004699
X026670Y021336
X018923Y021336
X050800Y-001270
X057023Y-001270
X057277Y066548
X062230Y060960
T02
X010922Y021844
X062230Y072390
X062230Y069850
X062230Y067310
X062230Y064770
X062230Y034290
X062230Y031750
X062230Y029210
X062230Y052070
X062230Y054610
X062230Y057150
X010922Y004699
X003937Y026162
X003937Y028702
X003937Y031242
X003937Y033782
X003937Y036322
X003937Y038862
X003937Y041402
X003937Y043942
X003937Y046482
X003937Y049022
X003937Y051562
X003937Y054102
X003937Y056642
X003937Y059182
X003937Y061722
X003937Y064262
X003937Y066802
X003937Y069342
X003937Y071882
X003937Y074422
X021717Y074422
X021717Y071882
X021717Y069342
X021717Y066802
X021717Y064262
X021717Y061722
X021717Y059182
X021717Y056642
X021717Y054102
X021717Y051562
X021717Y049022
X021717Y046482
X021717Y043942
X021717Y041402
X021717Y038862
X021717Y036322
X021717Y033782
X021717Y031242
X021717Y028702
X021717Y026162
X029210Y026162
X029210Y028702
X029210Y031242
X029210Y033782
X029210Y036322
X029210Y038862
X029210Y041402
X029210Y043942
X029210Y046482
X029210Y049022
X029210Y051562
X029210Y054102
X029210Y056642
X029210Y059182
X029210Y061722
X029210Y064262
X029210Y066802
X029210Y069342
X029210Y071882
X029210Y074422
X044577Y074422
X044577Y071882
X044577Y069342
X044577Y066802
X044577Y064262
X044577Y061722
X044577Y059182
X044577Y056642
X044577Y054102
X044577Y051562
X044577Y049022
X044577Y046482
X044577Y043942
X044577Y041402
X044577Y038862
X044577Y036322
X044577Y033782
X044577Y031242
X044577Y028702
X044577Y026162
X050419Y004699
X050419Y021844
X028956Y-001270
X031496Y-001270
X034036Y-001270
X036576Y-001270
X039116Y-001270
T03
X051308Y072390
T04
X015113Y079883
X037719Y034036
X035814Y030988
T05
X013879Y-002286
X018887Y-002286
X060452Y016800
X060452Y021808
T06
X060452Y010882
X060452Y005882
M30
