G04 Layer: BottomLayer*
G04 EasyEDA v6.5.42, 2024-04-17 10:54:12*
G04 b58fe179de73491898139d20c7eecbb3,24a069b98e7845178fa3f65ba4aff580,10*
G04 Gerber Generator version 0.2*
G04 Scale: 100 percent, Rotated: No, Reflected: No *
G04 Dimensions in millimeters *
G04 leading zeros omitted , absolute positions ,4 integer and 5 decimal *
%FSLAX45Y45*%
%MOMM*%

%ADD10C,0.5000*%
%ADD11C,1.0000*%
%ADD12C,2.1000*%
%ADD13R,1.5748X1.5748*%
%ADD14C,1.5748*%
%ADD15C,4.1000*%
%ADD16C,2.0000*%
%ADD17C,2.5000*%
%ADD18C,1.8796*%
%ADD19C,1.5750*%
%ADD20C,1.5240*%
%ADD21C,1.2000*%
%ADD22C,0.0175*%

%LPD*%
G36*
X188468Y-405892D02*
G01*
X184556Y-405130D01*
X181305Y-402894D01*
X179070Y-399643D01*
X178308Y-395732D01*
X178308Y8180831D01*
X179070Y8184743D01*
X181305Y8187994D01*
X184556Y8190230D01*
X188468Y8190992D01*
X6567931Y8190992D01*
X6571843Y8190230D01*
X6575094Y8187994D01*
X6577330Y8184743D01*
X6578092Y8180831D01*
X6578092Y-395732D01*
X6577330Y-399643D01*
X6575094Y-402894D01*
X6571843Y-405130D01*
X6567931Y-405892D01*
X1421282Y-405892D01*
X1417167Y-405028D01*
X1413764Y-402539D01*
X1411630Y-398881D01*
X1411173Y-394716D01*
X1412443Y-390702D01*
X1415288Y-387553D01*
X1419098Y-385826D01*
X1430782Y-383235D01*
X1447241Y-377698D01*
X1463040Y-370382D01*
X1477924Y-361442D01*
X1491742Y-350926D01*
X1504391Y-338988D01*
X1515618Y-325729D01*
X1525371Y-311353D01*
X1533499Y-296011D01*
X1539951Y-279857D01*
X1544574Y-263093D01*
X1547418Y-245973D01*
X1548333Y-228600D01*
X1547418Y-211226D01*
X1544574Y-194106D01*
X1539951Y-177342D01*
X1533499Y-161188D01*
X1525371Y-145846D01*
X1515618Y-131470D01*
X1504391Y-118211D01*
X1497990Y-112166D01*
X1495653Y-108813D01*
X1494790Y-104800D01*
X1494739Y1895602D01*
X1493926Y1906320D01*
X1493469Y1909419D01*
X1491284Y1919935D01*
X1490472Y1922983D01*
X1485798Y1936038D01*
X1481074Y1945690D01*
X1479499Y1948434D01*
X1473606Y1957374D01*
X1471726Y1959914D01*
X1464716Y1968042D01*
X1234440Y2198471D01*
X1232204Y2201773D01*
X1231442Y2205634D01*
X1231442Y2262733D01*
X1230680Y2272588D01*
X1228445Y2281834D01*
X1224838Y2290572D01*
X1219860Y2298700D01*
X1213713Y2305913D01*
X1206500Y2312060D01*
X1198372Y2317038D01*
X1189634Y2320645D01*
X1180388Y2322880D01*
X1170533Y2323642D01*
X1013866Y2323642D01*
X1004011Y2322880D01*
X994765Y2320645D01*
X986028Y2317038D01*
X977900Y2312060D01*
X970686Y2305913D01*
X964539Y2298700D01*
X959561Y2290572D01*
X955954Y2281834D01*
X953719Y2272588D01*
X952957Y2262733D01*
X952957Y2106066D01*
X953719Y2096211D01*
X955954Y2086965D01*
X959561Y2078228D01*
X964539Y2070100D01*
X970686Y2062886D01*
X977900Y2056739D01*
X986028Y2051761D01*
X994765Y2048154D01*
X1004011Y2045919D01*
X1013866Y2045157D01*
X1070965Y2045157D01*
X1074826Y2044395D01*
X1078128Y2042160D01*
X1270812Y1849526D01*
X1273048Y1846224D01*
X1273810Y1842312D01*
X1273810Y-111607D01*
X1273149Y-115112D01*
X1271371Y-118211D01*
X1260094Y-131470D01*
X1250340Y-145846D01*
X1242212Y-161188D01*
X1235760Y-177342D01*
X1231138Y-194106D01*
X1228293Y-211226D01*
X1227378Y-228600D01*
X1228293Y-245973D01*
X1231138Y-263093D01*
X1235760Y-279857D01*
X1242212Y-296011D01*
X1250340Y-311353D01*
X1260094Y-325729D01*
X1271320Y-338988D01*
X1283970Y-350926D01*
X1297787Y-361442D01*
X1312672Y-370382D01*
X1328470Y-377698D01*
X1344930Y-383235D01*
X1356614Y-385826D01*
X1360424Y-387553D01*
X1363268Y-390702D01*
X1364538Y-394716D01*
X1364081Y-398881D01*
X1361948Y-402539D01*
X1358544Y-405028D01*
X1354429Y-405892D01*
G37*

%LPC*%
G36*
X1832406Y-378714D02*
G01*
X1832406Y-284937D01*
X1738680Y-284937D01*
X1743100Y-296011D01*
X1751228Y-311353D01*
X1760982Y-325729D01*
X1772208Y-338988D01*
X1784857Y-350926D01*
X1798675Y-361442D01*
X1813560Y-370382D01*
X1829358Y-377698D01*
G37*
G36*
X1945081Y-378714D02*
G01*
X1948129Y-377698D01*
X1963928Y-370382D01*
X1978812Y-361442D01*
X1992630Y-350926D01*
X2005279Y-338988D01*
X2016506Y-325729D01*
X2026259Y-311353D01*
X2034387Y-296011D01*
X2038807Y-284937D01*
X1945081Y-284937D01*
G37*
G36*
X3833266Y-266242D02*
G01*
X3989933Y-266242D01*
X3999788Y-265480D01*
X4009034Y-263245D01*
X4017772Y-259638D01*
X4025900Y-254660D01*
X4033113Y-248513D01*
X4039260Y-241300D01*
X4044238Y-233171D01*
X4047845Y-224434D01*
X4050080Y-215188D01*
X4050842Y-205333D01*
X4050842Y-48666D01*
X4050080Y-38811D01*
X4047845Y-29565D01*
X4044238Y-20828D01*
X4039260Y-12700D01*
X4033113Y-5486D01*
X4025900Y660D01*
X4017772Y5638D01*
X4009034Y9245D01*
X4004868Y10261D01*
X4000855Y12242D01*
X3998112Y15747D01*
X3997096Y20116D01*
X3997096Y2601976D01*
X3997858Y2605887D01*
X4000093Y2609138D01*
X4213250Y2822295D01*
X4217517Y2826918D01*
X4221327Y2831642D01*
X4224832Y2836672D01*
X4227931Y2841904D01*
X4230674Y2847390D01*
X4233011Y2853029D01*
X4234942Y2858820D01*
X4236466Y2864713D01*
X4237532Y2870708D01*
X4238193Y2876804D01*
X4238396Y2883103D01*
X4238396Y5600496D01*
X4238193Y5606796D01*
X4237532Y5612892D01*
X4236466Y5618886D01*
X4234942Y5624779D01*
X4233011Y5630570D01*
X4230674Y5636209D01*
X4227931Y5641695D01*
X4224832Y5646928D01*
X4221327Y5651957D01*
X4217517Y5656681D01*
X4213250Y5661304D01*
X3134004Y6740550D01*
X3129381Y6744817D01*
X3124657Y6748627D01*
X3119628Y6752132D01*
X3114395Y6755231D01*
X3108909Y6757974D01*
X3103270Y6760311D01*
X3097479Y6762242D01*
X3091586Y6763766D01*
X3085592Y6764832D01*
X3079496Y6765493D01*
X3073196Y6765696D01*
X3035452Y6765696D01*
X3031134Y6766661D01*
X3027629Y6769353D01*
X3022244Y6775754D01*
X3010509Y6786829D01*
X2997504Y6796531D01*
X2994253Y6798411D01*
X2991104Y6801205D01*
X2989376Y6805066D01*
X2989376Y6809333D01*
X2991104Y6813194D01*
X2994253Y6815988D01*
X2997504Y6817868D01*
X3010509Y6827570D01*
X3022244Y6838645D01*
X3032658Y6851040D01*
X3041548Y6864603D01*
X3048863Y6879031D01*
X3054400Y6894271D01*
X3058109Y6910019D01*
X3059988Y6926122D01*
X3059988Y6942277D01*
X3058109Y6958380D01*
X3054400Y6974128D01*
X3048863Y6989368D01*
X3041548Y7003796D01*
X3032658Y7017359D01*
X3022244Y7029754D01*
X3010509Y7040829D01*
X2997504Y7050531D01*
X2994253Y7052411D01*
X2991104Y7055205D01*
X2989376Y7059066D01*
X2989376Y7063333D01*
X2991104Y7067194D01*
X2994253Y7069988D01*
X2997504Y7071868D01*
X3010509Y7081570D01*
X3022244Y7092645D01*
X3032658Y7105040D01*
X3041548Y7118603D01*
X3048863Y7133031D01*
X3054400Y7148271D01*
X3058109Y7164019D01*
X3059988Y7180122D01*
X3059988Y7196277D01*
X3058109Y7212380D01*
X3054400Y7228128D01*
X3048863Y7243368D01*
X3041548Y7257796D01*
X3032658Y7271359D01*
X3022244Y7283754D01*
X3016148Y7289495D01*
X3013811Y7292797D01*
X3012948Y7296708D01*
X3013710Y7300671D01*
X3015894Y7304024D01*
X3019247Y7306309D01*
X3027172Y7309561D01*
X3035300Y7314539D01*
X3042513Y7320686D01*
X3048660Y7327900D01*
X3053638Y7336028D01*
X3057245Y7344765D01*
X3059480Y7354011D01*
X3060242Y7363866D01*
X3060242Y7520533D01*
X3059480Y7530388D01*
X3057245Y7539634D01*
X3053638Y7548372D01*
X3048660Y7556500D01*
X3042513Y7563713D01*
X3038144Y7567422D01*
X3035655Y7570622D01*
X3034588Y7574584D01*
X3035198Y7578648D01*
X3037382Y7582153D01*
X3040735Y7584490D01*
X3044748Y7585303D01*
X3859276Y7585303D01*
X3863187Y7584541D01*
X3866438Y7582306D01*
X4066895Y7381849D01*
X4071518Y7377582D01*
X4076242Y7373772D01*
X4081272Y7370267D01*
X4086504Y7367168D01*
X4091990Y7364425D01*
X4097629Y7362088D01*
X4103420Y7360158D01*
X4109313Y7358634D01*
X4115308Y7357567D01*
X4121404Y7356906D01*
X4127703Y7356703D01*
X4343247Y7356703D01*
X4347565Y7355738D01*
X4351070Y7353046D01*
X4356455Y7346645D01*
X4368190Y7335570D01*
X4381195Y7325868D01*
X4384446Y7323988D01*
X4387596Y7321194D01*
X4389323Y7317333D01*
X4389323Y7313066D01*
X4387596Y7309205D01*
X4384446Y7306411D01*
X4381195Y7304531D01*
X4368190Y7294829D01*
X4356455Y7283754D01*
X4346041Y7271359D01*
X4337151Y7257796D01*
X4329836Y7243368D01*
X4326432Y7233920D01*
X4411980Y7233920D01*
X4411980Y7297166D01*
X4412691Y7300874D01*
X4414672Y7304024D01*
X4417669Y7306309D01*
X4421327Y7307275D01*
X4425594Y7306716D01*
X4441545Y7303922D01*
X4457700Y7302957D01*
X4473854Y7303922D01*
X4490364Y7306868D01*
X4494072Y7307275D01*
X4497730Y7306309D01*
X4500727Y7304024D01*
X4502708Y7300874D01*
X4503420Y7297166D01*
X4503420Y7233920D01*
X4588967Y7233920D01*
X4585563Y7243368D01*
X4578248Y7257796D01*
X4569358Y7271359D01*
X4558944Y7283754D01*
X4547209Y7294829D01*
X4534204Y7304531D01*
X4530953Y7306411D01*
X4527804Y7309205D01*
X4526076Y7313066D01*
X4526076Y7317333D01*
X4527804Y7321194D01*
X4530953Y7323988D01*
X4534204Y7325868D01*
X4546193Y7334808D01*
X4549394Y7336383D01*
X4553000Y7336790D01*
X4556506Y7335875D01*
X4559452Y7333843D01*
X5664606Y6228638D01*
X5666841Y6225387D01*
X5667603Y6221476D01*
X5667603Y5753303D01*
X5667806Y5747004D01*
X5668467Y5740908D01*
X5669534Y5734913D01*
X5671058Y5729020D01*
X5672988Y5723229D01*
X5675325Y5717590D01*
X5678068Y5712104D01*
X5681167Y5706872D01*
X5684672Y5701842D01*
X5688482Y5697118D01*
X5692749Y5692495D01*
X5984595Y5400649D01*
X5989218Y5396382D01*
X5993942Y5392572D01*
X5998972Y5389067D01*
X6004204Y5385968D01*
X6009690Y5383225D01*
X6015329Y5380888D01*
X6021120Y5378958D01*
X6027013Y5377434D01*
X6033008Y5376367D01*
X6039104Y5375706D01*
X6045403Y5375503D01*
X6108547Y5375503D01*
X6112865Y5374538D01*
X6116370Y5371846D01*
X6121755Y5365445D01*
X6133490Y5354370D01*
X6146495Y5344668D01*
X6149746Y5342788D01*
X6152896Y5339994D01*
X6154623Y5336133D01*
X6154623Y5331866D01*
X6152896Y5328005D01*
X6149746Y5325211D01*
X6146495Y5323332D01*
X6133490Y5313629D01*
X6121755Y5302554D01*
X6116370Y5296154D01*
X6112865Y5293461D01*
X6108547Y5292496D01*
X6083503Y5292496D01*
X6077204Y5292293D01*
X6071108Y5291632D01*
X6065113Y5290566D01*
X6059220Y5289042D01*
X6053429Y5287111D01*
X6047790Y5284774D01*
X6042304Y5282031D01*
X6037072Y5278932D01*
X6032042Y5275427D01*
X6027318Y5271617D01*
X6022695Y5267350D01*
X5492038Y4736693D01*
X5488787Y4734458D01*
X5484876Y4733696D01*
X4572152Y4733696D01*
X4567834Y4734661D01*
X4564329Y4737354D01*
X4558944Y4743754D01*
X4547209Y4754829D01*
X4534204Y4764532D01*
X4530953Y4766411D01*
X4527804Y4769205D01*
X4526076Y4773066D01*
X4526076Y4777333D01*
X4527804Y4781194D01*
X4530953Y4783988D01*
X4534204Y4785868D01*
X4547209Y4795570D01*
X4558944Y4806645D01*
X4569358Y4819040D01*
X4578248Y4832604D01*
X4585563Y4847031D01*
X4591100Y4862271D01*
X4594809Y4878019D01*
X4596688Y4894122D01*
X4596688Y4910277D01*
X4594809Y4926380D01*
X4591100Y4942128D01*
X4585563Y4957368D01*
X4578248Y4971796D01*
X4569358Y4985359D01*
X4558944Y4997754D01*
X4547209Y5008829D01*
X4534204Y5018532D01*
X4530953Y5020411D01*
X4527804Y5023205D01*
X4526076Y5027066D01*
X4526076Y5031333D01*
X4527804Y5035194D01*
X4530953Y5037988D01*
X4534204Y5039868D01*
X4547209Y5049570D01*
X4558944Y5060645D01*
X4569358Y5073040D01*
X4578248Y5086604D01*
X4585563Y5101031D01*
X4591100Y5116271D01*
X4594809Y5132019D01*
X4596688Y5148122D01*
X4596688Y5164277D01*
X4594809Y5180380D01*
X4591100Y5196128D01*
X4585563Y5211368D01*
X4578248Y5225796D01*
X4569358Y5239359D01*
X4558944Y5251754D01*
X4547209Y5262829D01*
X4534204Y5272532D01*
X4530953Y5274411D01*
X4527804Y5277205D01*
X4526076Y5281066D01*
X4526076Y5285333D01*
X4527804Y5289194D01*
X4530953Y5291988D01*
X4534204Y5293868D01*
X4547209Y5303570D01*
X4558944Y5314645D01*
X4569358Y5327040D01*
X4578248Y5340604D01*
X4585563Y5355031D01*
X4591100Y5370271D01*
X4594809Y5386019D01*
X4596688Y5402122D01*
X4596688Y5418277D01*
X4594809Y5434380D01*
X4591100Y5450128D01*
X4585563Y5465368D01*
X4578248Y5479796D01*
X4569358Y5493359D01*
X4558944Y5505754D01*
X4547209Y5516829D01*
X4534204Y5526532D01*
X4530953Y5528411D01*
X4527804Y5531205D01*
X4526076Y5535066D01*
X4526076Y5539333D01*
X4527804Y5543194D01*
X4530953Y5545988D01*
X4534204Y5547868D01*
X4547209Y5557570D01*
X4558944Y5568645D01*
X4569358Y5581040D01*
X4578248Y5594604D01*
X4585563Y5609031D01*
X4591100Y5624271D01*
X4594809Y5640019D01*
X4596688Y5656122D01*
X4596688Y5672277D01*
X4594809Y5688380D01*
X4591100Y5704128D01*
X4585563Y5719368D01*
X4578248Y5733796D01*
X4569358Y5747359D01*
X4558944Y5759754D01*
X4547209Y5770829D01*
X4534204Y5780532D01*
X4530953Y5782411D01*
X4527804Y5785205D01*
X4526076Y5789066D01*
X4526076Y5793333D01*
X4527804Y5797194D01*
X4530953Y5799988D01*
X4534204Y5801868D01*
X4547209Y5811570D01*
X4558944Y5822645D01*
X4569358Y5835040D01*
X4578248Y5848604D01*
X4585563Y5863031D01*
X4591100Y5878271D01*
X4594809Y5894019D01*
X4596688Y5910122D01*
X4596688Y5926277D01*
X4594809Y5942380D01*
X4591100Y5958128D01*
X4585563Y5973368D01*
X4578248Y5987796D01*
X4569358Y6001359D01*
X4558944Y6013754D01*
X4547209Y6024829D01*
X4534204Y6034532D01*
X4530953Y6036411D01*
X4527804Y6039205D01*
X4526076Y6043066D01*
X4526076Y6047333D01*
X4527804Y6051194D01*
X4530953Y6053988D01*
X4534204Y6055868D01*
X4547209Y6065570D01*
X4558944Y6076645D01*
X4569358Y6089040D01*
X4578248Y6102604D01*
X4585563Y6117031D01*
X4591100Y6132271D01*
X4594809Y6148019D01*
X4596688Y6164122D01*
X4596688Y6180277D01*
X4594809Y6196380D01*
X4591100Y6212128D01*
X4585563Y6227368D01*
X4578248Y6241796D01*
X4569358Y6255359D01*
X4558944Y6267754D01*
X4547209Y6278829D01*
X4534204Y6288532D01*
X4530953Y6290411D01*
X4527804Y6293205D01*
X4526076Y6297066D01*
X4526076Y6301333D01*
X4527804Y6305194D01*
X4530953Y6307988D01*
X4534204Y6309868D01*
X4547209Y6319570D01*
X4558944Y6330645D01*
X4569358Y6343040D01*
X4578248Y6356604D01*
X4585563Y6371031D01*
X4591100Y6386271D01*
X4594809Y6402019D01*
X4596688Y6418122D01*
X4596688Y6434277D01*
X4594809Y6450380D01*
X4591100Y6466128D01*
X4585563Y6481368D01*
X4578248Y6495796D01*
X4569358Y6509359D01*
X4558944Y6521754D01*
X4547209Y6532829D01*
X4534204Y6542531D01*
X4530953Y6544411D01*
X4527804Y6547205D01*
X4526076Y6551066D01*
X4526076Y6555333D01*
X4527804Y6559194D01*
X4530953Y6561988D01*
X4534204Y6563868D01*
X4547209Y6573570D01*
X4558944Y6584645D01*
X4569358Y6597040D01*
X4578248Y6610603D01*
X4585563Y6625031D01*
X4591100Y6640271D01*
X4594809Y6656019D01*
X4596688Y6672122D01*
X4596688Y6688277D01*
X4594809Y6704380D01*
X4591100Y6720128D01*
X4585563Y6735368D01*
X4578248Y6749796D01*
X4569358Y6763359D01*
X4558944Y6775754D01*
X4547209Y6786829D01*
X4534204Y6796531D01*
X4530953Y6798411D01*
X4527804Y6801205D01*
X4526076Y6805066D01*
X4526076Y6809333D01*
X4527804Y6813194D01*
X4530953Y6815988D01*
X4534204Y6817868D01*
X4547209Y6827570D01*
X4558944Y6838645D01*
X4569358Y6851040D01*
X4578248Y6864603D01*
X4585563Y6879031D01*
X4591100Y6894271D01*
X4594809Y6910019D01*
X4596688Y6926122D01*
X4596688Y6942277D01*
X4594809Y6958380D01*
X4591100Y6974128D01*
X4585563Y6989368D01*
X4578248Y7003796D01*
X4569358Y7017359D01*
X4558944Y7029754D01*
X4547209Y7040829D01*
X4534204Y7050531D01*
X4530953Y7052411D01*
X4527804Y7055205D01*
X4526076Y7059066D01*
X4526076Y7063333D01*
X4527804Y7067194D01*
X4530953Y7069988D01*
X4534204Y7071868D01*
X4547209Y7081570D01*
X4558944Y7092645D01*
X4569358Y7105040D01*
X4578248Y7118603D01*
X4585563Y7133031D01*
X4588967Y7142480D01*
X4503420Y7142480D01*
X4503420Y7079234D01*
X4502708Y7075525D01*
X4500727Y7072375D01*
X4497730Y7070090D01*
X4494072Y7069124D01*
X4489805Y7069683D01*
X4473854Y7072477D01*
X4457700Y7073442D01*
X4441545Y7072477D01*
X4425035Y7069531D01*
X4421327Y7069124D01*
X4417669Y7070090D01*
X4414672Y7072375D01*
X4412691Y7075525D01*
X4411980Y7079234D01*
X4411980Y7142480D01*
X4326432Y7142480D01*
X4329836Y7133031D01*
X4337151Y7118603D01*
X4346041Y7105040D01*
X4356455Y7092645D01*
X4368190Y7081570D01*
X4381195Y7071868D01*
X4384446Y7069988D01*
X4387596Y7067194D01*
X4389323Y7063333D01*
X4389323Y7059066D01*
X4387596Y7055205D01*
X4384446Y7052411D01*
X4381195Y7050531D01*
X4368190Y7040829D01*
X4356455Y7029754D01*
X4346041Y7017359D01*
X4337151Y7003796D01*
X4329836Y6989368D01*
X4324299Y6974128D01*
X4320590Y6958380D01*
X4318711Y6942277D01*
X4318711Y6926122D01*
X4320590Y6910019D01*
X4324299Y6894271D01*
X4329836Y6879031D01*
X4337151Y6864603D01*
X4346041Y6851040D01*
X4356455Y6838645D01*
X4368190Y6827570D01*
X4381195Y6817868D01*
X4384446Y6815988D01*
X4387596Y6813194D01*
X4389323Y6809333D01*
X4389323Y6805066D01*
X4387596Y6801205D01*
X4384446Y6798411D01*
X4381195Y6796531D01*
X4368190Y6786829D01*
X4356455Y6775754D01*
X4346041Y6763359D01*
X4337151Y6749796D01*
X4329836Y6735368D01*
X4324299Y6720128D01*
X4320590Y6704380D01*
X4318711Y6688277D01*
X4318711Y6672122D01*
X4320590Y6656019D01*
X4324299Y6640271D01*
X4329836Y6625031D01*
X4337151Y6610603D01*
X4346041Y6597040D01*
X4356455Y6584645D01*
X4368190Y6573570D01*
X4381195Y6563868D01*
X4384446Y6561988D01*
X4387596Y6559194D01*
X4389323Y6555333D01*
X4389323Y6551066D01*
X4387596Y6547205D01*
X4384446Y6544411D01*
X4381195Y6542531D01*
X4368190Y6532829D01*
X4356455Y6521754D01*
X4346041Y6509359D01*
X4337151Y6495796D01*
X4329836Y6481368D01*
X4324299Y6466128D01*
X4320590Y6450380D01*
X4318711Y6434277D01*
X4318711Y6418122D01*
X4320590Y6402019D01*
X4324299Y6386271D01*
X4329836Y6371031D01*
X4337151Y6356604D01*
X4346041Y6343040D01*
X4356455Y6330645D01*
X4368190Y6319570D01*
X4381195Y6309868D01*
X4384446Y6307988D01*
X4387596Y6305194D01*
X4389323Y6301333D01*
X4389323Y6297066D01*
X4387596Y6293205D01*
X4384446Y6290411D01*
X4381195Y6288532D01*
X4368190Y6278829D01*
X4356455Y6267754D01*
X4346041Y6255359D01*
X4337151Y6241796D01*
X4329836Y6227368D01*
X4324299Y6212128D01*
X4320590Y6196380D01*
X4318711Y6180277D01*
X4318711Y6164122D01*
X4320590Y6148019D01*
X4324299Y6132271D01*
X4329836Y6117031D01*
X4337151Y6102604D01*
X4346041Y6089040D01*
X4356455Y6076645D01*
X4368190Y6065570D01*
X4381195Y6055868D01*
X4384446Y6053988D01*
X4387596Y6051194D01*
X4389323Y6047333D01*
X4389323Y6043066D01*
X4387596Y6039205D01*
X4384446Y6036411D01*
X4381195Y6034532D01*
X4368190Y6024829D01*
X4356455Y6013754D01*
X4346041Y6001359D01*
X4337151Y5987796D01*
X4329836Y5973368D01*
X4324299Y5958128D01*
X4320590Y5942380D01*
X4318711Y5926277D01*
X4318711Y5910122D01*
X4320590Y5894019D01*
X4324299Y5878271D01*
X4329836Y5863031D01*
X4337151Y5848604D01*
X4346041Y5835040D01*
X4356455Y5822645D01*
X4368190Y5811570D01*
X4381195Y5801868D01*
X4384446Y5799988D01*
X4387596Y5797194D01*
X4389323Y5793333D01*
X4389323Y5789066D01*
X4387596Y5785205D01*
X4384446Y5782411D01*
X4381195Y5780532D01*
X4368190Y5770829D01*
X4356455Y5759754D01*
X4346041Y5747359D01*
X4337151Y5733796D01*
X4329836Y5719368D01*
X4324299Y5704128D01*
X4320590Y5688380D01*
X4318711Y5672277D01*
X4318711Y5656122D01*
X4320590Y5640019D01*
X4324299Y5624271D01*
X4329836Y5609031D01*
X4337151Y5594604D01*
X4346041Y5581040D01*
X4356455Y5568645D01*
X4368190Y5557570D01*
X4381195Y5547868D01*
X4384446Y5545988D01*
X4387596Y5543194D01*
X4389323Y5539333D01*
X4389323Y5535066D01*
X4387596Y5531205D01*
X4384446Y5528411D01*
X4381195Y5526532D01*
X4368190Y5516829D01*
X4356455Y5505754D01*
X4346041Y5493359D01*
X4337151Y5479796D01*
X4329836Y5465368D01*
X4324299Y5450128D01*
X4320590Y5434380D01*
X4318711Y5418277D01*
X4318711Y5402122D01*
X4320590Y5386019D01*
X4324299Y5370271D01*
X4329836Y5355031D01*
X4337151Y5340604D01*
X4346041Y5327040D01*
X4356455Y5314645D01*
X4368190Y5303570D01*
X4381195Y5293868D01*
X4384446Y5291988D01*
X4387596Y5289194D01*
X4389323Y5285333D01*
X4389323Y5281066D01*
X4387596Y5277205D01*
X4384446Y5274411D01*
X4381195Y5272532D01*
X4368190Y5262829D01*
X4356455Y5251754D01*
X4346041Y5239359D01*
X4337151Y5225796D01*
X4329836Y5211368D01*
X4324299Y5196128D01*
X4320590Y5180380D01*
X4318711Y5164277D01*
X4318711Y5148122D01*
X4320590Y5132019D01*
X4324299Y5116271D01*
X4329836Y5101031D01*
X4337151Y5086604D01*
X4346041Y5073040D01*
X4356455Y5060645D01*
X4368190Y5049570D01*
X4381195Y5039868D01*
X4384446Y5037988D01*
X4387596Y5035194D01*
X4389323Y5031333D01*
X4389323Y5027066D01*
X4387596Y5023205D01*
X4384446Y5020411D01*
X4381195Y5018532D01*
X4368190Y5008829D01*
X4356455Y4997754D01*
X4346041Y4985359D01*
X4337151Y4971796D01*
X4329836Y4957368D01*
X4324299Y4942128D01*
X4320590Y4926380D01*
X4318711Y4910277D01*
X4318711Y4894122D01*
X4320590Y4878019D01*
X4324299Y4862271D01*
X4329836Y4847031D01*
X4337151Y4832604D01*
X4346041Y4819040D01*
X4356455Y4806645D01*
X4368190Y4795570D01*
X4381195Y4785868D01*
X4384446Y4783988D01*
X4387596Y4781194D01*
X4389323Y4777333D01*
X4389323Y4773066D01*
X4387596Y4769205D01*
X4384446Y4766411D01*
X4381195Y4764532D01*
X4368190Y4754829D01*
X4356455Y4743754D01*
X4346041Y4731359D01*
X4337151Y4717796D01*
X4329836Y4703368D01*
X4324299Y4688128D01*
X4320590Y4672380D01*
X4318711Y4656277D01*
X4318711Y4640122D01*
X4320590Y4624019D01*
X4324299Y4608271D01*
X4329836Y4593031D01*
X4337151Y4578604D01*
X4346041Y4565040D01*
X4356455Y4552645D01*
X4368190Y4541570D01*
X4381195Y4531868D01*
X4384446Y4529988D01*
X4387596Y4527194D01*
X4389323Y4523333D01*
X4389323Y4519066D01*
X4387596Y4515205D01*
X4384446Y4512411D01*
X4381195Y4510532D01*
X4368190Y4500829D01*
X4356455Y4489754D01*
X4346041Y4477359D01*
X4337151Y4463796D01*
X4329836Y4449368D01*
X4324299Y4434128D01*
X4320590Y4418380D01*
X4318711Y4402277D01*
X4318711Y4386122D01*
X4320590Y4370019D01*
X4324299Y4354271D01*
X4329836Y4339031D01*
X4337151Y4324604D01*
X4346041Y4311040D01*
X4356455Y4298645D01*
X4368190Y4287570D01*
X4381195Y4277868D01*
X4384446Y4275988D01*
X4387596Y4273194D01*
X4389323Y4269333D01*
X4389323Y4265066D01*
X4387596Y4261205D01*
X4384446Y4258411D01*
X4381195Y4256532D01*
X4368190Y4246829D01*
X4356455Y4235754D01*
X4346041Y4223359D01*
X4337151Y4209796D01*
X4329836Y4195368D01*
X4324299Y4180128D01*
X4320590Y4164380D01*
X4318711Y4148277D01*
X4318711Y4132122D01*
X4320590Y4116019D01*
X4324299Y4100271D01*
X4329836Y4085031D01*
X4337151Y4070604D01*
X4346041Y4057040D01*
X4356455Y4044645D01*
X4368190Y4033570D01*
X4381195Y4023868D01*
X4384446Y4021988D01*
X4387596Y4019194D01*
X4389323Y4015333D01*
X4389323Y4011066D01*
X4387596Y4007205D01*
X4384446Y4004411D01*
X4381195Y4002532D01*
X4368190Y3992829D01*
X4356455Y3981754D01*
X4346041Y3969359D01*
X4337151Y3955796D01*
X4329836Y3941368D01*
X4324299Y3926128D01*
X4320590Y3910380D01*
X4318711Y3894277D01*
X4318711Y3878122D01*
X4320590Y3862019D01*
X4324299Y3846271D01*
X4329836Y3831031D01*
X4337151Y3816604D01*
X4346041Y3803040D01*
X4356455Y3790645D01*
X4368190Y3779570D01*
X4381195Y3769868D01*
X4384446Y3767988D01*
X4387596Y3765194D01*
X4389323Y3761333D01*
X4389323Y3757066D01*
X4387596Y3753205D01*
X4384446Y3750411D01*
X4381195Y3748532D01*
X4368190Y3738829D01*
X4356455Y3727754D01*
X4346041Y3715359D01*
X4337151Y3701796D01*
X4329836Y3687368D01*
X4324299Y3672128D01*
X4320590Y3656380D01*
X4318711Y3640277D01*
X4318711Y3624122D01*
X4320590Y3608019D01*
X4324299Y3592271D01*
X4329836Y3577031D01*
X4337151Y3562604D01*
X4346041Y3549040D01*
X4356455Y3536645D01*
X4368190Y3525570D01*
X4381195Y3515868D01*
X4384446Y3513988D01*
X4387596Y3511194D01*
X4389323Y3507333D01*
X4389323Y3503066D01*
X4387596Y3499205D01*
X4384446Y3496411D01*
X4381195Y3494532D01*
X4368190Y3484829D01*
X4356455Y3473754D01*
X4346041Y3461359D01*
X4337151Y3447796D01*
X4329836Y3433368D01*
X4324299Y3418128D01*
X4320590Y3402380D01*
X4318711Y3386277D01*
X4318711Y3370122D01*
X4320590Y3354019D01*
X4324299Y3338271D01*
X4329836Y3323031D01*
X4337151Y3308604D01*
X4346041Y3295040D01*
X4356455Y3282645D01*
X4368190Y3271570D01*
X4381195Y3261867D01*
X4384446Y3259988D01*
X4387596Y3257194D01*
X4389323Y3253333D01*
X4389323Y3249066D01*
X4387596Y3245205D01*
X4384446Y3242411D01*
X4381195Y3240532D01*
X4368190Y3230829D01*
X4356455Y3219754D01*
X4346041Y3207359D01*
X4337151Y3193796D01*
X4329836Y3179368D01*
X4324299Y3164128D01*
X4320590Y3148380D01*
X4318711Y3132277D01*
X4318711Y3116122D01*
X4320590Y3100019D01*
X4324299Y3084271D01*
X4329836Y3069031D01*
X4337151Y3054604D01*
X4346041Y3041040D01*
X4356455Y3028645D01*
X4368190Y3017570D01*
X4381195Y3007868D01*
X4384446Y3005988D01*
X4387596Y3003194D01*
X4389323Y2999333D01*
X4389323Y2995066D01*
X4387596Y2991205D01*
X4384446Y2988411D01*
X4381195Y2986532D01*
X4368190Y2976829D01*
X4356455Y2965754D01*
X4346041Y2953359D01*
X4337151Y2939796D01*
X4329836Y2925368D01*
X4324299Y2910128D01*
X4320590Y2894380D01*
X4318711Y2878277D01*
X4318711Y2862122D01*
X4320590Y2846019D01*
X4324299Y2830271D01*
X4329836Y2815031D01*
X4337151Y2800604D01*
X4346041Y2787040D01*
X4356455Y2774645D01*
X4362551Y2768904D01*
X4364888Y2765602D01*
X4365752Y2761691D01*
X4364990Y2757728D01*
X4362805Y2754376D01*
X4359452Y2752090D01*
X4351528Y2748838D01*
X4343400Y2743860D01*
X4336186Y2737713D01*
X4330039Y2730500D01*
X4325061Y2722372D01*
X4321454Y2713634D01*
X4319219Y2704388D01*
X4318457Y2694533D01*
X4318457Y2537866D01*
X4319219Y2528011D01*
X4321454Y2518765D01*
X4325061Y2510028D01*
X4330039Y2501900D01*
X4336186Y2494686D01*
X4343400Y2488539D01*
X4351528Y2483561D01*
X4360265Y2479954D01*
X4369511Y2477719D01*
X4379366Y2476957D01*
X4536033Y2476957D01*
X4545888Y2477719D01*
X4555134Y2479954D01*
X4563872Y2483561D01*
X4572000Y2488539D01*
X4579213Y2494686D01*
X4585360Y2501900D01*
X4590338Y2510028D01*
X4593945Y2518765D01*
X4596180Y2528011D01*
X4596942Y2537866D01*
X4596942Y2694533D01*
X4596180Y2704388D01*
X4593945Y2713634D01*
X4590338Y2722372D01*
X4585360Y2730500D01*
X4579213Y2737713D01*
X4572000Y2743860D01*
X4563872Y2748838D01*
X4555947Y2752090D01*
X4552594Y2754376D01*
X4550410Y2757728D01*
X4549648Y2761691D01*
X4550511Y2765602D01*
X4552848Y2768904D01*
X4558944Y2774645D01*
X4569358Y2787040D01*
X4578248Y2800604D01*
X4585563Y2815031D01*
X4591100Y2830271D01*
X4594809Y2846019D01*
X4596688Y2862122D01*
X4596688Y2878277D01*
X4594809Y2894380D01*
X4591100Y2910128D01*
X4585563Y2925368D01*
X4578248Y2939796D01*
X4569358Y2953359D01*
X4558944Y2965754D01*
X4547209Y2976829D01*
X4534204Y2986532D01*
X4530953Y2988411D01*
X4527804Y2991205D01*
X4526076Y2995066D01*
X4526076Y2999333D01*
X4527804Y3003194D01*
X4530953Y3005988D01*
X4534204Y3007868D01*
X4547209Y3017570D01*
X4558944Y3028645D01*
X4569358Y3041040D01*
X4578248Y3054604D01*
X4585563Y3069031D01*
X4591100Y3084271D01*
X4594809Y3100019D01*
X4596688Y3116122D01*
X4596688Y3132277D01*
X4594809Y3148380D01*
X4591100Y3164128D01*
X4585563Y3179368D01*
X4578248Y3193796D01*
X4569358Y3207359D01*
X4558944Y3219754D01*
X4547209Y3230829D01*
X4534204Y3240532D01*
X4530953Y3242411D01*
X4527804Y3245205D01*
X4526076Y3249066D01*
X4526076Y3253333D01*
X4527804Y3257194D01*
X4530953Y3259988D01*
X4534204Y3261867D01*
X4547209Y3271570D01*
X4558944Y3282645D01*
X4569358Y3295040D01*
X4578248Y3308604D01*
X4585563Y3323031D01*
X4591100Y3338271D01*
X4594809Y3354019D01*
X4596688Y3370122D01*
X4596688Y3386277D01*
X4594809Y3402380D01*
X4591100Y3418128D01*
X4585563Y3433368D01*
X4578248Y3447796D01*
X4569358Y3461359D01*
X4558944Y3473754D01*
X4547209Y3484829D01*
X4534204Y3494532D01*
X4530953Y3496411D01*
X4527804Y3499205D01*
X4526076Y3503066D01*
X4526076Y3507333D01*
X4527804Y3511194D01*
X4530953Y3513988D01*
X4534204Y3515868D01*
X4547209Y3525570D01*
X4558944Y3536645D01*
X4569358Y3549040D01*
X4578248Y3562604D01*
X4585563Y3577031D01*
X4591100Y3592271D01*
X4594809Y3608019D01*
X4596688Y3624122D01*
X4596688Y3640277D01*
X4594809Y3656380D01*
X4591100Y3672128D01*
X4585563Y3687368D01*
X4578248Y3701796D01*
X4569358Y3715359D01*
X4558944Y3727754D01*
X4547209Y3738829D01*
X4534204Y3748532D01*
X4530953Y3750411D01*
X4527804Y3753205D01*
X4526076Y3757066D01*
X4526076Y3761333D01*
X4527804Y3765194D01*
X4530953Y3767988D01*
X4534204Y3769868D01*
X4547209Y3779570D01*
X4558944Y3790645D01*
X4569358Y3803040D01*
X4578248Y3816604D01*
X4585563Y3831031D01*
X4591100Y3846271D01*
X4594809Y3862019D01*
X4596688Y3878122D01*
X4596688Y3894277D01*
X4594809Y3910380D01*
X4591100Y3926128D01*
X4585563Y3941368D01*
X4578248Y3955796D01*
X4569358Y3969359D01*
X4558944Y3981754D01*
X4547209Y3992829D01*
X4534204Y4002532D01*
X4530953Y4004411D01*
X4527804Y4007205D01*
X4526076Y4011066D01*
X4526076Y4015333D01*
X4527804Y4019194D01*
X4530953Y4021988D01*
X4534204Y4023868D01*
X4547209Y4033570D01*
X4558944Y4044645D01*
X4569358Y4057040D01*
X4578248Y4070604D01*
X4585563Y4085031D01*
X4591100Y4100271D01*
X4594809Y4116019D01*
X4596688Y4132122D01*
X4596688Y4148277D01*
X4594809Y4164380D01*
X4591100Y4180128D01*
X4585563Y4195368D01*
X4578248Y4209796D01*
X4569358Y4223359D01*
X4558944Y4235754D01*
X4547209Y4246829D01*
X4534204Y4256532D01*
X4530953Y4258411D01*
X4527804Y4261205D01*
X4526076Y4265066D01*
X4526076Y4269333D01*
X4527804Y4273194D01*
X4530953Y4275988D01*
X4534204Y4277868D01*
X4547209Y4287570D01*
X4558944Y4298645D01*
X4569358Y4311040D01*
X4578248Y4324604D01*
X4585563Y4339031D01*
X4591100Y4354271D01*
X4594809Y4370019D01*
X4596688Y4386122D01*
X4596688Y4402277D01*
X4594809Y4418380D01*
X4591100Y4434128D01*
X4585563Y4449368D01*
X4578248Y4463796D01*
X4569358Y4477359D01*
X4558944Y4489754D01*
X4547209Y4500829D01*
X4534204Y4510532D01*
X4530953Y4512411D01*
X4527804Y4515205D01*
X4526076Y4519066D01*
X4526076Y4523333D01*
X4527804Y4527194D01*
X4530953Y4529988D01*
X4534204Y4531868D01*
X4547209Y4541570D01*
X4558944Y4552645D01*
X4564329Y4559046D01*
X4567834Y4561738D01*
X4572152Y4562703D01*
X5524296Y4562703D01*
X5530596Y4562906D01*
X5536692Y4563567D01*
X5542686Y4564634D01*
X5548579Y4566158D01*
X5554370Y4568088D01*
X5560009Y4570425D01*
X5565495Y4573168D01*
X5570728Y4576267D01*
X5575757Y4579772D01*
X5580481Y4583582D01*
X5585104Y4587849D01*
X6108039Y5110835D01*
X6111240Y5112969D01*
X6115050Y5113782D01*
X6118910Y5113121D01*
X6122212Y5111038D01*
X6133490Y5100370D01*
X6146495Y5090668D01*
X6160516Y5082590D01*
X6175400Y5076190D01*
X6190894Y5071516D01*
X6206845Y5068722D01*
X6223000Y5067757D01*
X6239154Y5068722D01*
X6255105Y5071516D01*
X6270599Y5076190D01*
X6285484Y5082590D01*
X6299504Y5090668D01*
X6312509Y5100370D01*
X6324244Y5111445D01*
X6334658Y5123840D01*
X6343548Y5137404D01*
X6350863Y5151831D01*
X6356400Y5167071D01*
X6360109Y5182819D01*
X6361988Y5198922D01*
X6361988Y5215077D01*
X6360109Y5231180D01*
X6356400Y5246928D01*
X6350863Y5262168D01*
X6343548Y5276596D01*
X6334658Y5290159D01*
X6324244Y5302554D01*
X6312509Y5313629D01*
X6299504Y5323332D01*
X6296253Y5325211D01*
X6293104Y5328005D01*
X6291376Y5331866D01*
X6291376Y5336133D01*
X6293104Y5339994D01*
X6296253Y5342788D01*
X6299504Y5344668D01*
X6312509Y5354370D01*
X6324244Y5365445D01*
X6334658Y5377840D01*
X6343548Y5391404D01*
X6350863Y5405831D01*
X6356400Y5421071D01*
X6360109Y5436819D01*
X6361988Y5452922D01*
X6361988Y5469077D01*
X6360109Y5485180D01*
X6356400Y5500928D01*
X6350863Y5516168D01*
X6343548Y5530596D01*
X6334658Y5544159D01*
X6324244Y5556554D01*
X6318148Y5562295D01*
X6315811Y5565597D01*
X6314948Y5569508D01*
X6315710Y5573471D01*
X6317894Y5576824D01*
X6321247Y5579110D01*
X6329172Y5582361D01*
X6337300Y5587339D01*
X6344513Y5593486D01*
X6350660Y5600700D01*
X6355638Y5608828D01*
X6359245Y5617565D01*
X6361480Y5626811D01*
X6362242Y5636666D01*
X6362242Y5669280D01*
X6268720Y5669280D01*
X6268720Y5606034D01*
X6268008Y5602325D01*
X6266027Y5599176D01*
X6263030Y5596890D01*
X6259372Y5595924D01*
X6255105Y5596483D01*
X6239154Y5599277D01*
X6223000Y5600242D01*
X6206845Y5599277D01*
X6190335Y5596331D01*
X6186627Y5595924D01*
X6182969Y5596890D01*
X6179972Y5599176D01*
X6177991Y5602325D01*
X6177280Y5606034D01*
X6177280Y5669280D01*
X6083757Y5669280D01*
X6083757Y5636666D01*
X6084519Y5626811D01*
X6086754Y5617565D01*
X6090361Y5608828D01*
X6095339Y5600700D01*
X6101486Y5593486D01*
X6108700Y5587339D01*
X6116828Y5582361D01*
X6124752Y5579110D01*
X6128105Y5576824D01*
X6130290Y5573471D01*
X6131052Y5569508D01*
X6130188Y5565597D01*
X6127851Y5562295D01*
X6121755Y5556554D01*
X6116370Y5550154D01*
X6112865Y5547461D01*
X6108547Y5546496D01*
X6084824Y5546496D01*
X6080912Y5547258D01*
X6077661Y5549493D01*
X5841593Y5785561D01*
X5839358Y5788812D01*
X5838596Y5792724D01*
X5838596Y6260896D01*
X5838393Y6267196D01*
X5837732Y6273292D01*
X5836666Y6279286D01*
X5835142Y6285179D01*
X5833211Y6290970D01*
X5830874Y6296609D01*
X5828131Y6302095D01*
X5825032Y6307328D01*
X5821527Y6312357D01*
X5817717Y6317081D01*
X5813450Y6321704D01*
X4632604Y7502550D01*
X4627981Y7506817D01*
X4623257Y7510627D01*
X4618228Y7514132D01*
X4612995Y7517231D01*
X4607509Y7519974D01*
X4601870Y7522311D01*
X4596079Y7524242D01*
X4590186Y7525766D01*
X4584192Y7526832D01*
X4578096Y7527493D01*
X4571796Y7527696D01*
X4567682Y7528712D01*
X4564380Y7531303D01*
X4558944Y7537754D01*
X4547209Y7548829D01*
X4534204Y7558531D01*
X4520184Y7566609D01*
X4505299Y7573009D01*
X4489805Y7577683D01*
X4473854Y7580477D01*
X4457700Y7581442D01*
X4441545Y7580477D01*
X4425594Y7577683D01*
X4410100Y7573009D01*
X4395216Y7566609D01*
X4381195Y7558531D01*
X4368190Y7548829D01*
X4356455Y7537754D01*
X4351070Y7531353D01*
X4347565Y7528661D01*
X4343247Y7527696D01*
X4167124Y7527696D01*
X4163212Y7528458D01*
X4159961Y7530693D01*
X3995674Y7694930D01*
X3993438Y7698231D01*
X3992676Y7702143D01*
X3993438Y7706004D01*
X3995674Y7709306D01*
X3998976Y7711541D01*
X4002836Y7712303D01*
X4837176Y7712303D01*
X4841087Y7711541D01*
X4844338Y7709306D01*
X5042306Y7511338D01*
X5044541Y7508087D01*
X5045303Y7504175D01*
X5045303Y7350099D01*
X5044338Y7345832D01*
X5041646Y7342327D01*
X5037023Y7338415D01*
X5026101Y7326884D01*
X5016601Y7314133D01*
X5008676Y7300366D01*
X5002377Y7285736D01*
X4997805Y7270546D01*
X4995062Y7254849D01*
X4994097Y7239000D01*
X4995062Y7223150D01*
X4997805Y7207453D01*
X5002377Y7192264D01*
X5008676Y7177633D01*
X5016601Y7163866D01*
X5026101Y7151116D01*
X5037023Y7139584D01*
X5049164Y7129373D01*
X5062474Y7120636D01*
X5076647Y7113473D01*
X5091582Y7108037D01*
X5107076Y7104380D01*
X5122875Y7102551D01*
X5138724Y7102551D01*
X5154523Y7104380D01*
X5170017Y7108037D01*
X5184952Y7113473D01*
X5199126Y7120636D01*
X5212435Y7129373D01*
X5224576Y7139584D01*
X5235498Y7151116D01*
X5244998Y7163866D01*
X5252923Y7177633D01*
X5259222Y7192264D01*
X5263794Y7207453D01*
X5266537Y7223150D01*
X5267502Y7239000D01*
X5266537Y7254849D01*
X5263794Y7270546D01*
X5259222Y7285736D01*
X5252923Y7300366D01*
X5244998Y7314133D01*
X5235498Y7326884D01*
X5224576Y7338415D01*
X5219954Y7342327D01*
X5217261Y7345832D01*
X5216296Y7350099D01*
X5216296Y7477963D01*
X5217058Y7481824D01*
X5219293Y7485125D01*
X5222595Y7487361D01*
X5226456Y7488123D01*
X5230368Y7487361D01*
X5233670Y7485125D01*
X6048095Y6670649D01*
X6052718Y6666382D01*
X6057442Y6662572D01*
X6062472Y6659067D01*
X6067704Y6655968D01*
X6073190Y6653225D01*
X6078829Y6650888D01*
X6084620Y6648958D01*
X6090513Y6647434D01*
X6096508Y6646367D01*
X6102604Y6645706D01*
X6108903Y6645503D01*
X6113018Y6644487D01*
X6116320Y6641896D01*
X6121755Y6635445D01*
X6133490Y6624370D01*
X6146495Y6614668D01*
X6149746Y6612788D01*
X6152896Y6609994D01*
X6154623Y6606133D01*
X6154623Y6601866D01*
X6152896Y6598005D01*
X6149746Y6595211D01*
X6146495Y6593331D01*
X6133490Y6583629D01*
X6121755Y6572554D01*
X6111341Y6560159D01*
X6102451Y6546596D01*
X6095136Y6532168D01*
X6091732Y6522720D01*
X6177280Y6522720D01*
X6177280Y6585966D01*
X6177991Y6589674D01*
X6179972Y6592824D01*
X6182969Y6595109D01*
X6186627Y6596075D01*
X6190894Y6595516D01*
X6206845Y6592722D01*
X6223000Y6591757D01*
X6239154Y6592722D01*
X6255664Y6595668D01*
X6259372Y6596075D01*
X6263030Y6595109D01*
X6266027Y6592824D01*
X6268008Y6589674D01*
X6268720Y6585966D01*
X6268720Y6522720D01*
X6354267Y6522720D01*
X6350863Y6532168D01*
X6343548Y6546596D01*
X6334658Y6560159D01*
X6324244Y6572554D01*
X6312509Y6583629D01*
X6299504Y6593331D01*
X6296253Y6595211D01*
X6293104Y6598005D01*
X6291376Y6601866D01*
X6291376Y6606133D01*
X6293104Y6609994D01*
X6296253Y6612788D01*
X6299504Y6614668D01*
X6312509Y6624370D01*
X6324244Y6635445D01*
X6334658Y6647840D01*
X6343548Y6661403D01*
X6350863Y6675831D01*
X6356400Y6691071D01*
X6360109Y6706819D01*
X6361988Y6722922D01*
X6361988Y6739077D01*
X6360109Y6755180D01*
X6356400Y6770928D01*
X6350863Y6786168D01*
X6343548Y6800596D01*
X6334658Y6814159D01*
X6324244Y6826554D01*
X6312509Y6837629D01*
X6299504Y6847331D01*
X6296253Y6849211D01*
X6293104Y6852005D01*
X6291376Y6855866D01*
X6291376Y6860133D01*
X6293104Y6863994D01*
X6296253Y6866788D01*
X6299504Y6868668D01*
X6312509Y6878370D01*
X6324244Y6889445D01*
X6334658Y6901840D01*
X6343548Y6915403D01*
X6350863Y6929831D01*
X6356400Y6945071D01*
X6360109Y6960819D01*
X6361988Y6976922D01*
X6361988Y6993077D01*
X6360109Y7009180D01*
X6356400Y7024928D01*
X6350863Y7040168D01*
X6343548Y7054596D01*
X6334658Y7068159D01*
X6324244Y7080554D01*
X6318148Y7086295D01*
X6315811Y7089597D01*
X6314948Y7093508D01*
X6315710Y7097471D01*
X6317894Y7100824D01*
X6321247Y7103109D01*
X6329172Y7106361D01*
X6337300Y7111339D01*
X6344513Y7117486D01*
X6350660Y7124700D01*
X6355638Y7132828D01*
X6359245Y7141565D01*
X6361480Y7150811D01*
X6362242Y7160666D01*
X6362242Y7317333D01*
X6361480Y7327188D01*
X6359245Y7336434D01*
X6355638Y7345172D01*
X6350660Y7353300D01*
X6344513Y7360513D01*
X6337300Y7366660D01*
X6329172Y7371638D01*
X6320434Y7375245D01*
X6311188Y7377480D01*
X6301333Y7378242D01*
X6144666Y7378242D01*
X6134811Y7377480D01*
X6125565Y7375245D01*
X6116828Y7371638D01*
X6108700Y7366660D01*
X6101486Y7360513D01*
X6095339Y7353300D01*
X6090361Y7345172D01*
X6086754Y7336434D01*
X6084519Y7327188D01*
X6083757Y7317333D01*
X6083757Y7160666D01*
X6084519Y7150811D01*
X6086703Y7141870D01*
X6086754Y7137501D01*
X6085027Y7133539D01*
X6081776Y7130643D01*
X6077610Y7129373D01*
X6073292Y7129932D01*
X6069634Y7132320D01*
X5089804Y8112150D01*
X5085181Y8116417D01*
X5080457Y8120227D01*
X5075428Y8123732D01*
X5070195Y8126831D01*
X5064709Y8129574D01*
X5059070Y8131911D01*
X5053279Y8133842D01*
X5047386Y8135366D01*
X5041392Y8136432D01*
X5035296Y8137093D01*
X5028996Y8137296D01*
X1943303Y8137296D01*
X1937004Y8137093D01*
X1930907Y8136432D01*
X1924913Y8135366D01*
X1919020Y8133842D01*
X1913229Y8131911D01*
X1907590Y8129574D01*
X1902104Y8126831D01*
X1896872Y8123732D01*
X1891842Y8120227D01*
X1887118Y8116417D01*
X1882495Y8112150D01*
X828649Y7058304D01*
X824382Y7053681D01*
X820572Y7048957D01*
X817067Y7043928D01*
X813968Y7038695D01*
X811225Y7033209D01*
X808888Y7027570D01*
X806958Y7021779D01*
X805434Y7015886D01*
X804367Y7009892D01*
X803706Y7003796D01*
X803503Y6997496D01*
X803503Y6554724D01*
X802741Y6550812D01*
X800506Y6547561D01*
X514553Y6261557D01*
X511048Y6259271D01*
X506933Y6258610D01*
X502869Y6259626D01*
X499618Y6262217D01*
X494944Y6267754D01*
X483209Y6278829D01*
X470204Y6288532D01*
X466953Y6290411D01*
X463804Y6293205D01*
X462076Y6297066D01*
X462076Y6301333D01*
X463804Y6305194D01*
X466953Y6307988D01*
X470204Y6309868D01*
X483209Y6319570D01*
X494944Y6330645D01*
X505358Y6343040D01*
X514248Y6356604D01*
X521563Y6371031D01*
X527100Y6386271D01*
X530809Y6402019D01*
X532688Y6418122D01*
X532688Y6434277D01*
X530809Y6450380D01*
X527100Y6466128D01*
X521563Y6481368D01*
X514248Y6495796D01*
X505358Y6509359D01*
X494944Y6521754D01*
X483209Y6532829D01*
X470204Y6542531D01*
X466953Y6544411D01*
X463804Y6547205D01*
X462076Y6551066D01*
X462076Y6555333D01*
X463804Y6559194D01*
X466953Y6561988D01*
X470204Y6563868D01*
X483209Y6573570D01*
X494944Y6584645D01*
X505358Y6597040D01*
X514248Y6610603D01*
X521563Y6625031D01*
X527100Y6640271D01*
X530809Y6656019D01*
X532688Y6672122D01*
X532688Y6688277D01*
X530809Y6704380D01*
X527100Y6720128D01*
X521563Y6735368D01*
X514248Y6749796D01*
X505358Y6763359D01*
X494944Y6775754D01*
X483209Y6786829D01*
X470204Y6796531D01*
X466953Y6798411D01*
X463804Y6801205D01*
X462076Y6805066D01*
X462076Y6809333D01*
X463804Y6813194D01*
X466953Y6815988D01*
X470204Y6817868D01*
X483209Y6827570D01*
X494944Y6838645D01*
X505358Y6851040D01*
X514248Y6864603D01*
X521563Y6879031D01*
X524967Y6888480D01*
X439420Y6888480D01*
X439420Y6825234D01*
X438708Y6821525D01*
X436727Y6818375D01*
X433730Y6816090D01*
X430072Y6815124D01*
X425805Y6815683D01*
X409854Y6818477D01*
X393700Y6819442D01*
X377545Y6818477D01*
X361035Y6815531D01*
X357327Y6815124D01*
X353669Y6816090D01*
X350672Y6818375D01*
X348691Y6821525D01*
X347980Y6825234D01*
X347980Y6888480D01*
X262432Y6888480D01*
X265836Y6879031D01*
X273151Y6864603D01*
X282041Y6851040D01*
X292455Y6838645D01*
X304190Y6827570D01*
X317195Y6817868D01*
X320446Y6815988D01*
X323596Y6813194D01*
X325323Y6809333D01*
X325323Y6805066D01*
X323596Y6801205D01*
X320446Y6798411D01*
X317195Y6796531D01*
X304190Y6786829D01*
X292455Y6775754D01*
X282041Y6763359D01*
X273151Y6749796D01*
X265836Y6735368D01*
X260299Y6720128D01*
X256590Y6704380D01*
X254711Y6688277D01*
X254711Y6672122D01*
X256590Y6656019D01*
X260299Y6640271D01*
X265836Y6625031D01*
X273151Y6610603D01*
X282041Y6597040D01*
X292455Y6584645D01*
X304190Y6573570D01*
X317195Y6563868D01*
X320446Y6561988D01*
X323596Y6559194D01*
X325323Y6555333D01*
X325323Y6551066D01*
X323596Y6547205D01*
X320446Y6544411D01*
X317195Y6542531D01*
X304190Y6532829D01*
X292455Y6521754D01*
X282041Y6509359D01*
X273151Y6495796D01*
X265836Y6481368D01*
X260299Y6466128D01*
X256590Y6450380D01*
X254711Y6434277D01*
X254711Y6418122D01*
X256590Y6402019D01*
X260299Y6386271D01*
X265836Y6371031D01*
X273151Y6356604D01*
X282041Y6343040D01*
X292455Y6330645D01*
X304190Y6319570D01*
X317195Y6309868D01*
X320446Y6307988D01*
X323596Y6305194D01*
X325323Y6301333D01*
X325323Y6297066D01*
X323596Y6293205D01*
X320446Y6290411D01*
X317195Y6288532D01*
X304190Y6278829D01*
X292455Y6267754D01*
X282041Y6255359D01*
X273151Y6241796D01*
X265836Y6227368D01*
X260299Y6212128D01*
X256590Y6196380D01*
X254711Y6180277D01*
X254711Y6164122D01*
X256590Y6148019D01*
X260299Y6132271D01*
X265836Y6117031D01*
X273151Y6102604D01*
X282041Y6089040D01*
X292455Y6076645D01*
X304190Y6065570D01*
X317195Y6055868D01*
X320446Y6053988D01*
X323596Y6051194D01*
X325323Y6047333D01*
X325323Y6043066D01*
X323596Y6039205D01*
X320446Y6036411D01*
X317195Y6034532D01*
X304190Y6024829D01*
X292455Y6013754D01*
X282041Y6001359D01*
X273151Y5987796D01*
X265836Y5973368D01*
X260299Y5958128D01*
X256590Y5942380D01*
X254711Y5926277D01*
X254711Y5910122D01*
X256590Y5894019D01*
X260299Y5878271D01*
X265836Y5863031D01*
X273151Y5848604D01*
X282041Y5835040D01*
X292455Y5822645D01*
X304190Y5811570D01*
X317195Y5801868D01*
X320446Y5799988D01*
X323596Y5797194D01*
X325323Y5793333D01*
X325323Y5789066D01*
X323596Y5785205D01*
X320446Y5782411D01*
X317195Y5780532D01*
X304190Y5770829D01*
X292455Y5759754D01*
X282041Y5747359D01*
X273151Y5733796D01*
X265836Y5719368D01*
X262432Y5709920D01*
X347980Y5709920D01*
X347980Y5773166D01*
X348691Y5776874D01*
X350672Y5780024D01*
X353669Y5782310D01*
X357327Y5783275D01*
X361594Y5782716D01*
X377545Y5779922D01*
X393700Y5778957D01*
X409854Y5779922D01*
X426364Y5782868D01*
X430072Y5783275D01*
X433730Y5782310D01*
X436727Y5780024D01*
X438708Y5776874D01*
X439420Y5773166D01*
X439420Y5709920D01*
X524967Y5709920D01*
X521563Y5719368D01*
X514248Y5733796D01*
X505358Y5747359D01*
X494944Y5759754D01*
X483209Y5770829D01*
X470204Y5780532D01*
X466953Y5782411D01*
X463804Y5785205D01*
X462076Y5789066D01*
X462076Y5793333D01*
X463804Y5797194D01*
X466953Y5799988D01*
X470204Y5801868D01*
X483209Y5811570D01*
X494944Y5822645D01*
X500329Y5829046D01*
X503834Y5831738D01*
X508152Y5832703D01*
X545896Y5832703D01*
X552196Y5832906D01*
X558292Y5833567D01*
X564286Y5834634D01*
X570179Y5836158D01*
X575970Y5838088D01*
X581609Y5840425D01*
X587095Y5843168D01*
X592328Y5846267D01*
X597357Y5849772D01*
X602081Y5853582D01*
X606704Y5857849D01*
X1076350Y6327495D01*
X1080617Y6332118D01*
X1084427Y6336842D01*
X1087932Y6341872D01*
X1091031Y6347104D01*
X1093774Y6352590D01*
X1096111Y6358229D01*
X1098042Y6364020D01*
X1099566Y6369913D01*
X1100632Y6375908D01*
X1101293Y6382004D01*
X1101496Y6388303D01*
X1101496Y6818375D01*
X1102258Y6822287D01*
X1104493Y6825538D01*
X1535430Y7256525D01*
X1538732Y7258761D01*
X1542643Y7259523D01*
X1546504Y7258761D01*
X1549806Y7256525D01*
X1552041Y7253224D01*
X1552803Y7249363D01*
X1552803Y6807403D01*
X1553006Y6801103D01*
X1553667Y6795008D01*
X1554734Y6789013D01*
X1556258Y6783120D01*
X1558188Y6777329D01*
X1560525Y6771690D01*
X1563268Y6766204D01*
X1566367Y6760972D01*
X1569872Y6755942D01*
X1573682Y6751218D01*
X1577949Y6746595D01*
X1958695Y6365849D01*
X1963318Y6361582D01*
X1968042Y6357772D01*
X1973072Y6354267D01*
X1978304Y6351168D01*
X1983790Y6348425D01*
X1989429Y6346088D01*
X1995220Y6344158D01*
X2001113Y6342634D01*
X2007107Y6341567D01*
X2013204Y6340906D01*
X2019503Y6340703D01*
X2057247Y6340703D01*
X2061565Y6339738D01*
X2065070Y6337046D01*
X2070455Y6330645D01*
X2082190Y6319570D01*
X2095195Y6309868D01*
X2098446Y6307988D01*
X2101596Y6305194D01*
X2103323Y6301333D01*
X2103323Y6297066D01*
X2101596Y6293205D01*
X2098446Y6290411D01*
X2095195Y6288532D01*
X2082190Y6278829D01*
X2070455Y6267754D01*
X2060041Y6255359D01*
X2051151Y6241796D01*
X2043836Y6227368D01*
X2038299Y6212128D01*
X2034590Y6196380D01*
X2032711Y6180277D01*
X2032711Y6164122D01*
X2034590Y6148019D01*
X2038299Y6132271D01*
X2043836Y6117031D01*
X2051151Y6102604D01*
X2060041Y6089040D01*
X2070455Y6076645D01*
X2082190Y6065570D01*
X2095195Y6055868D01*
X2098446Y6053988D01*
X2101596Y6051194D01*
X2103323Y6047333D01*
X2103323Y6043066D01*
X2101596Y6039205D01*
X2098446Y6036411D01*
X2095195Y6034532D01*
X2082190Y6024829D01*
X2070455Y6013754D01*
X2060041Y6001359D01*
X2051151Y5987796D01*
X2043836Y5973368D01*
X2038299Y5958128D01*
X2034590Y5942380D01*
X2032711Y5926277D01*
X2032711Y5910122D01*
X2034590Y5894019D01*
X2038299Y5878271D01*
X2043836Y5863031D01*
X2051151Y5848604D01*
X2060041Y5835040D01*
X2070455Y5822645D01*
X2082190Y5811570D01*
X2095195Y5801868D01*
X2098446Y5799988D01*
X2101596Y5797194D01*
X2103323Y5793333D01*
X2103323Y5789066D01*
X2101596Y5785205D01*
X2098446Y5782411D01*
X2095195Y5780532D01*
X2082190Y5770829D01*
X2070455Y5759754D01*
X2060041Y5747359D01*
X2051151Y5733796D01*
X2043836Y5719368D01*
X2040432Y5709920D01*
X2125980Y5709920D01*
X2125980Y5773166D01*
X2126691Y5776874D01*
X2128672Y5780024D01*
X2131669Y5782310D01*
X2135327Y5783275D01*
X2139594Y5782716D01*
X2155545Y5779922D01*
X2171700Y5778957D01*
X2187854Y5779922D01*
X2204364Y5782868D01*
X2208072Y5783275D01*
X2211730Y5782310D01*
X2214727Y5780024D01*
X2216708Y5776874D01*
X2217420Y5773166D01*
X2217420Y5709920D01*
X2302967Y5709920D01*
X2299563Y5719368D01*
X2292248Y5733796D01*
X2283358Y5747359D01*
X2272944Y5759754D01*
X2261209Y5770829D01*
X2248204Y5780532D01*
X2244953Y5782411D01*
X2241804Y5785205D01*
X2240076Y5789066D01*
X2240076Y5793333D01*
X2241804Y5797194D01*
X2244953Y5799988D01*
X2248204Y5801868D01*
X2261209Y5811570D01*
X2272944Y5822645D01*
X2283358Y5835040D01*
X2292248Y5848604D01*
X2299563Y5863031D01*
X2305100Y5878271D01*
X2308809Y5894019D01*
X2310688Y5910122D01*
X2310688Y5926277D01*
X2308809Y5942380D01*
X2305100Y5958128D01*
X2299563Y5973368D01*
X2292248Y5987796D01*
X2283358Y6001359D01*
X2272944Y6013754D01*
X2261209Y6024829D01*
X2248204Y6034532D01*
X2244953Y6036411D01*
X2241804Y6039205D01*
X2240076Y6043066D01*
X2240076Y6047333D01*
X2241804Y6051194D01*
X2244953Y6053988D01*
X2248204Y6055868D01*
X2261209Y6065570D01*
X2272944Y6076645D01*
X2283358Y6089040D01*
X2292248Y6102604D01*
X2299563Y6117031D01*
X2305100Y6132271D01*
X2308809Y6148019D01*
X2310688Y6164122D01*
X2310688Y6180277D01*
X2308809Y6196380D01*
X2305100Y6212128D01*
X2299563Y6227368D01*
X2292248Y6241796D01*
X2283358Y6255359D01*
X2272944Y6267754D01*
X2261209Y6278829D01*
X2248204Y6288532D01*
X2244953Y6290411D01*
X2241804Y6293205D01*
X2240076Y6297066D01*
X2240076Y6301333D01*
X2241804Y6305194D01*
X2244953Y6307988D01*
X2248204Y6309868D01*
X2261209Y6319570D01*
X2272944Y6330645D01*
X2283358Y6343040D01*
X2292248Y6356604D01*
X2299563Y6371031D01*
X2305100Y6386271D01*
X2308809Y6402019D01*
X2310688Y6418122D01*
X2310688Y6434277D01*
X2308809Y6450380D01*
X2305100Y6466128D01*
X2299563Y6481368D01*
X2292248Y6495796D01*
X2283358Y6509359D01*
X2272944Y6521754D01*
X2261209Y6532829D01*
X2248204Y6542531D01*
X2244953Y6544411D01*
X2241804Y6547205D01*
X2240076Y6551066D01*
X2240076Y6555333D01*
X2241804Y6559194D01*
X2244953Y6561988D01*
X2248204Y6563868D01*
X2261209Y6573570D01*
X2272944Y6584645D01*
X2283358Y6597040D01*
X2292248Y6610603D01*
X2299563Y6625031D01*
X2305100Y6640271D01*
X2308809Y6656019D01*
X2310688Y6672122D01*
X2310688Y6688277D01*
X2308809Y6704380D01*
X2305100Y6720128D01*
X2299563Y6735368D01*
X2292248Y6749796D01*
X2283358Y6763359D01*
X2272944Y6775754D01*
X2261209Y6786829D01*
X2248204Y6796531D01*
X2244953Y6798411D01*
X2241804Y6801205D01*
X2240076Y6805066D01*
X2240076Y6809333D01*
X2241804Y6813194D01*
X2244953Y6815988D01*
X2248204Y6817868D01*
X2261209Y6827570D01*
X2272944Y6838645D01*
X2283358Y6851040D01*
X2292248Y6864603D01*
X2299563Y6879031D01*
X2302967Y6888480D01*
X2217420Y6888480D01*
X2217420Y6825234D01*
X2216708Y6821525D01*
X2214727Y6818375D01*
X2211730Y6816090D01*
X2208072Y6815124D01*
X2203805Y6815683D01*
X2187854Y6818477D01*
X2171700Y6819442D01*
X2155545Y6818477D01*
X2139035Y6815531D01*
X2135327Y6815124D01*
X2131669Y6816090D01*
X2128672Y6818375D01*
X2126691Y6821525D01*
X2125980Y6825234D01*
X2125980Y6888480D01*
X2040432Y6888480D01*
X2043836Y6879031D01*
X2051151Y6864603D01*
X2060041Y6851040D01*
X2070455Y6838645D01*
X2082190Y6827570D01*
X2095195Y6817868D01*
X2098446Y6815988D01*
X2101596Y6813194D01*
X2103323Y6809333D01*
X2103323Y6805066D01*
X2101596Y6801205D01*
X2098446Y6798411D01*
X2095195Y6796531D01*
X2082190Y6786829D01*
X2070455Y6775754D01*
X2060041Y6763359D01*
X2051151Y6749796D01*
X2043836Y6735368D01*
X2038299Y6720128D01*
X2034590Y6704380D01*
X2032711Y6688277D01*
X2032711Y6672122D01*
X2034590Y6656019D01*
X2038299Y6640271D01*
X2043836Y6625031D01*
X2051151Y6610603D01*
X2060041Y6597040D01*
X2070455Y6584645D01*
X2082190Y6573570D01*
X2095195Y6563868D01*
X2098446Y6561988D01*
X2101596Y6559194D01*
X2103323Y6555333D01*
X2103323Y6551066D01*
X2101596Y6547205D01*
X2098446Y6544411D01*
X2095195Y6542531D01*
X2082190Y6532829D01*
X2070455Y6521754D01*
X2065832Y6516217D01*
X2062530Y6513626D01*
X2058466Y6512610D01*
X2054352Y6513271D01*
X2050846Y6515557D01*
X1726793Y6839661D01*
X1724558Y6842912D01*
X1723796Y6846824D01*
X1723796Y7224775D01*
X1724558Y7228687D01*
X1726793Y7231938D01*
X2204161Y7709306D01*
X2207412Y7711541D01*
X2211324Y7712303D01*
X2690063Y7712303D01*
X2693924Y7711541D01*
X2697226Y7709306D01*
X2699461Y7706004D01*
X2700223Y7702143D01*
X2699461Y7698231D01*
X2697226Y7694930D01*
X2286660Y7284364D01*
X2283460Y7282230D01*
X2279650Y7281418D01*
X2275789Y7282078D01*
X2272487Y7284161D01*
X2261209Y7294829D01*
X2248204Y7304531D01*
X2244953Y7306411D01*
X2241804Y7309205D01*
X2240076Y7313066D01*
X2240076Y7317333D01*
X2241804Y7321194D01*
X2244953Y7323988D01*
X2248204Y7325868D01*
X2261209Y7335570D01*
X2272944Y7346645D01*
X2283358Y7359040D01*
X2292248Y7372603D01*
X2299563Y7387031D01*
X2305100Y7402271D01*
X2308809Y7418019D01*
X2310688Y7434122D01*
X2310688Y7450277D01*
X2308809Y7466380D01*
X2305100Y7482128D01*
X2299563Y7497368D01*
X2292248Y7511796D01*
X2283358Y7525359D01*
X2272944Y7537754D01*
X2261209Y7548829D01*
X2248204Y7558531D01*
X2234184Y7566609D01*
X2219299Y7573009D01*
X2203805Y7577683D01*
X2187854Y7580477D01*
X2171700Y7581442D01*
X2155545Y7580477D01*
X2139594Y7577683D01*
X2124100Y7573009D01*
X2109216Y7566609D01*
X2095195Y7558531D01*
X2082190Y7548829D01*
X2070455Y7537754D01*
X2060041Y7525359D01*
X2051151Y7511796D01*
X2043836Y7497368D01*
X2038299Y7482128D01*
X2034590Y7466380D01*
X2032711Y7450277D01*
X2032711Y7434122D01*
X2034590Y7418019D01*
X2038299Y7402271D01*
X2043836Y7387031D01*
X2051151Y7372603D01*
X2060041Y7359040D01*
X2070455Y7346645D01*
X2082190Y7335570D01*
X2095195Y7325868D01*
X2098446Y7323988D01*
X2101596Y7321194D01*
X2103323Y7317333D01*
X2103323Y7313066D01*
X2101596Y7309205D01*
X2098446Y7306411D01*
X2095195Y7304531D01*
X2082190Y7294829D01*
X2070455Y7283754D01*
X2060041Y7271359D01*
X2051151Y7257796D01*
X2043836Y7243368D01*
X2038299Y7228128D01*
X2034590Y7212380D01*
X2032711Y7196277D01*
X2032711Y7180122D01*
X2034590Y7164019D01*
X2038299Y7148271D01*
X2043836Y7133031D01*
X2051151Y7118603D01*
X2060041Y7105040D01*
X2070455Y7092645D01*
X2082190Y7081570D01*
X2095195Y7071868D01*
X2098446Y7069988D01*
X2101596Y7067194D01*
X2103323Y7063333D01*
X2103323Y7059066D01*
X2101596Y7055205D01*
X2098446Y7052411D01*
X2095195Y7050531D01*
X2082190Y7040829D01*
X2070455Y7029754D01*
X2060041Y7017359D01*
X2051151Y7003796D01*
X2043836Y6989368D01*
X2040432Y6979920D01*
X2125980Y6979920D01*
X2125980Y7043166D01*
X2126691Y7046874D01*
X2128672Y7050024D01*
X2131669Y7052309D01*
X2135327Y7053275D01*
X2139594Y7052716D01*
X2155545Y7049922D01*
X2171700Y7048957D01*
X2187854Y7049922D01*
X2204364Y7052868D01*
X2208072Y7053275D01*
X2211730Y7052309D01*
X2214727Y7050024D01*
X2216708Y7046874D01*
X2217420Y7043166D01*
X2217420Y6979920D01*
X2302967Y6979920D01*
X2299563Y6989368D01*
X2292248Y7003796D01*
X2283358Y7017359D01*
X2272944Y7029754D01*
X2261209Y7040829D01*
X2248204Y7050531D01*
X2244953Y7052411D01*
X2241804Y7055205D01*
X2240076Y7059066D01*
X2240076Y7063333D01*
X2241804Y7067194D01*
X2244953Y7069988D01*
X2248204Y7071868D01*
X2261209Y7081570D01*
X2272944Y7092645D01*
X2278329Y7099046D01*
X2281834Y7101738D01*
X2286152Y7102703D01*
X2311196Y7102703D01*
X2317496Y7102906D01*
X2323592Y7103567D01*
X2329586Y7104634D01*
X2335479Y7106158D01*
X2341270Y7108088D01*
X2346909Y7110425D01*
X2352395Y7113168D01*
X2357628Y7116267D01*
X2362657Y7119772D01*
X2367381Y7123582D01*
X2372004Y7127849D01*
X2764434Y7520279D01*
X2767685Y7522514D01*
X2771597Y7523276D01*
X2775508Y7522514D01*
X2778760Y7520279D01*
X2780995Y7516977D01*
X2781757Y7513116D01*
X2781757Y7363866D01*
X2782519Y7354011D01*
X2784754Y7344765D01*
X2788361Y7336028D01*
X2793339Y7327900D01*
X2799486Y7320686D01*
X2806700Y7314539D01*
X2814828Y7309561D01*
X2822752Y7306309D01*
X2826105Y7304024D01*
X2828290Y7300671D01*
X2829052Y7296708D01*
X2828188Y7292797D01*
X2825851Y7289495D01*
X2819755Y7283754D01*
X2809341Y7271359D01*
X2800451Y7257796D01*
X2793136Y7243368D01*
X2787599Y7228128D01*
X2783890Y7212380D01*
X2782011Y7196277D01*
X2782011Y7180122D01*
X2783890Y7164019D01*
X2787599Y7148271D01*
X2793136Y7133031D01*
X2800451Y7118603D01*
X2809341Y7105040D01*
X2819755Y7092645D01*
X2831490Y7081570D01*
X2844495Y7071868D01*
X2847746Y7069988D01*
X2850896Y7067194D01*
X2852623Y7063333D01*
X2852623Y7059066D01*
X2850896Y7055205D01*
X2847746Y7052411D01*
X2844495Y7050531D01*
X2831490Y7040829D01*
X2819755Y7029754D01*
X2809341Y7017359D01*
X2800451Y7003796D01*
X2793136Y6989368D01*
X2787599Y6974128D01*
X2783890Y6958380D01*
X2782011Y6942277D01*
X2782011Y6926122D01*
X2783890Y6910019D01*
X2787599Y6894271D01*
X2793136Y6879031D01*
X2800451Y6864603D01*
X2809341Y6851040D01*
X2819755Y6838645D01*
X2831490Y6827570D01*
X2844495Y6817868D01*
X2847746Y6815988D01*
X2850896Y6813194D01*
X2852623Y6809333D01*
X2852623Y6805066D01*
X2850896Y6801205D01*
X2847746Y6798411D01*
X2844495Y6796531D01*
X2831490Y6786829D01*
X2819755Y6775754D01*
X2809341Y6763359D01*
X2800451Y6749796D01*
X2793136Y6735368D01*
X2787599Y6720128D01*
X2783890Y6704380D01*
X2782011Y6688277D01*
X2782011Y6672122D01*
X2783890Y6656019D01*
X2787599Y6640271D01*
X2793136Y6625031D01*
X2800451Y6610603D01*
X2809341Y6597040D01*
X2819755Y6584645D01*
X2831490Y6573570D01*
X2844495Y6563868D01*
X2847746Y6561988D01*
X2850896Y6559194D01*
X2852623Y6555333D01*
X2852623Y6551066D01*
X2850896Y6547205D01*
X2847746Y6544411D01*
X2844495Y6542531D01*
X2831490Y6532829D01*
X2819755Y6521754D01*
X2809341Y6509359D01*
X2800451Y6495796D01*
X2793136Y6481368D01*
X2787599Y6466128D01*
X2783890Y6450380D01*
X2782011Y6434277D01*
X2782011Y6418122D01*
X2783890Y6402019D01*
X2787599Y6386271D01*
X2793136Y6371031D01*
X2800451Y6356604D01*
X2809341Y6343040D01*
X2819755Y6330645D01*
X2831490Y6319570D01*
X2844495Y6309868D01*
X2847746Y6307988D01*
X2850896Y6305194D01*
X2852623Y6301333D01*
X2852623Y6297066D01*
X2850896Y6293205D01*
X2847746Y6290411D01*
X2844495Y6288532D01*
X2831490Y6278829D01*
X2819755Y6267754D01*
X2809341Y6255359D01*
X2800451Y6241796D01*
X2793136Y6227368D01*
X2787599Y6212128D01*
X2783890Y6196380D01*
X2782011Y6180277D01*
X2782011Y6164122D01*
X2783890Y6148019D01*
X2787599Y6132271D01*
X2793136Y6117031D01*
X2800451Y6102604D01*
X2809341Y6089040D01*
X2819755Y6076645D01*
X2831490Y6065570D01*
X2844495Y6055868D01*
X2847746Y6053988D01*
X2850896Y6051194D01*
X2852623Y6047333D01*
X2852623Y6043066D01*
X2850896Y6039205D01*
X2847746Y6036411D01*
X2844495Y6034532D01*
X2831490Y6024829D01*
X2819755Y6013754D01*
X2809341Y6001359D01*
X2800451Y5987796D01*
X2793136Y5973368D01*
X2787599Y5958128D01*
X2783890Y5942380D01*
X2782011Y5926277D01*
X2782011Y5910122D01*
X2783890Y5894019D01*
X2787599Y5878271D01*
X2793136Y5863031D01*
X2800451Y5848604D01*
X2809341Y5835040D01*
X2819755Y5822645D01*
X2831490Y5811570D01*
X2844495Y5801868D01*
X2847746Y5799988D01*
X2850896Y5797194D01*
X2852623Y5793333D01*
X2852623Y5789066D01*
X2850896Y5785205D01*
X2847746Y5782411D01*
X2844495Y5780532D01*
X2831490Y5770829D01*
X2819755Y5759754D01*
X2809341Y5747359D01*
X2800451Y5733796D01*
X2793136Y5719368D01*
X2787599Y5704128D01*
X2783890Y5688380D01*
X2782011Y5672277D01*
X2782011Y5656122D01*
X2783890Y5640019D01*
X2787599Y5624271D01*
X2793136Y5609031D01*
X2800451Y5594604D01*
X2809341Y5581040D01*
X2819755Y5568645D01*
X2831490Y5557570D01*
X2844495Y5547868D01*
X2847746Y5545988D01*
X2850896Y5543194D01*
X2852623Y5539333D01*
X2852623Y5535066D01*
X2850896Y5531205D01*
X2847746Y5528411D01*
X2844495Y5526532D01*
X2831490Y5516829D01*
X2819755Y5505754D01*
X2809341Y5493359D01*
X2800451Y5479796D01*
X2793136Y5465368D01*
X2787599Y5450128D01*
X2783890Y5434380D01*
X2782011Y5418277D01*
X2782011Y5402122D01*
X2783890Y5386019D01*
X2787599Y5370271D01*
X2793136Y5355031D01*
X2800451Y5340604D01*
X2809341Y5327040D01*
X2819755Y5314645D01*
X2831490Y5303570D01*
X2844495Y5293868D01*
X2847746Y5291988D01*
X2850896Y5289194D01*
X2852623Y5285333D01*
X2852623Y5281066D01*
X2850896Y5277205D01*
X2847746Y5274411D01*
X2844495Y5272532D01*
X2831490Y5262829D01*
X2819755Y5251754D01*
X2809341Y5239359D01*
X2800451Y5225796D01*
X2793136Y5211368D01*
X2787599Y5196128D01*
X2783890Y5180380D01*
X2782011Y5164277D01*
X2782011Y5148122D01*
X2783890Y5132019D01*
X2787599Y5116271D01*
X2793136Y5101031D01*
X2800451Y5086604D01*
X2809341Y5073040D01*
X2819755Y5060645D01*
X2831490Y5049570D01*
X2844495Y5039868D01*
X2847746Y5037988D01*
X2850896Y5035194D01*
X2852623Y5031333D01*
X2852623Y5027066D01*
X2850896Y5023205D01*
X2847746Y5020411D01*
X2844495Y5018532D01*
X2831490Y5008829D01*
X2819755Y4997754D01*
X2809341Y4985359D01*
X2800451Y4971796D01*
X2793136Y4957368D01*
X2787599Y4942128D01*
X2783890Y4926380D01*
X2782011Y4910277D01*
X2782011Y4894122D01*
X2783890Y4878019D01*
X2787599Y4862271D01*
X2793136Y4847031D01*
X2800451Y4832604D01*
X2809341Y4819040D01*
X2819755Y4806645D01*
X2831490Y4795570D01*
X2844495Y4785868D01*
X2847746Y4783988D01*
X2850896Y4781194D01*
X2852623Y4777333D01*
X2852623Y4773066D01*
X2850896Y4769205D01*
X2847746Y4766411D01*
X2844495Y4764532D01*
X2831490Y4754829D01*
X2819755Y4743754D01*
X2809341Y4731359D01*
X2800451Y4717796D01*
X2793136Y4703368D01*
X2787599Y4688128D01*
X2783890Y4672380D01*
X2782011Y4656277D01*
X2782011Y4640122D01*
X2783890Y4624019D01*
X2787599Y4608271D01*
X2793136Y4593031D01*
X2800451Y4578604D01*
X2809341Y4565040D01*
X2819755Y4552645D01*
X2831490Y4541570D01*
X2844495Y4531868D01*
X2847746Y4529988D01*
X2850896Y4527194D01*
X2852623Y4523333D01*
X2852623Y4519066D01*
X2850896Y4515205D01*
X2847746Y4512411D01*
X2844495Y4510532D01*
X2831490Y4500829D01*
X2819755Y4489754D01*
X2809341Y4477359D01*
X2800451Y4463796D01*
X2793136Y4449368D01*
X2787599Y4434128D01*
X2783890Y4418380D01*
X2782011Y4402277D01*
X2782011Y4386122D01*
X2783890Y4370019D01*
X2787599Y4354271D01*
X2793136Y4339031D01*
X2800451Y4324604D01*
X2809341Y4311040D01*
X2819755Y4298645D01*
X2831490Y4287570D01*
X2844495Y4277868D01*
X2847746Y4275988D01*
X2850896Y4273194D01*
X2852623Y4269333D01*
X2852623Y4265066D01*
X2850896Y4261205D01*
X2847746Y4258411D01*
X2844495Y4256532D01*
X2831490Y4246829D01*
X2819755Y4235754D01*
X2809341Y4223359D01*
X2800451Y4209796D01*
X2793136Y4195368D01*
X2787599Y4180128D01*
X2783890Y4164380D01*
X2782011Y4148277D01*
X2782011Y4132122D01*
X2783890Y4116019D01*
X2787599Y4100271D01*
X2793136Y4085031D01*
X2800451Y4070604D01*
X2809341Y4057040D01*
X2819755Y4044645D01*
X2831490Y4033570D01*
X2844495Y4023868D01*
X2847746Y4021988D01*
X2850896Y4019194D01*
X2852623Y4015333D01*
X2852623Y4011066D01*
X2850896Y4007205D01*
X2847746Y4004411D01*
X2844495Y4002532D01*
X2831490Y3992829D01*
X2819755Y3981754D01*
X2809341Y3969359D01*
X2800451Y3955796D01*
X2793136Y3941368D01*
X2787599Y3926128D01*
X2783890Y3910380D01*
X2782011Y3894277D01*
X2782011Y3878122D01*
X2783890Y3862019D01*
X2787599Y3846271D01*
X2793136Y3831031D01*
X2800451Y3816604D01*
X2809341Y3803040D01*
X2819755Y3790645D01*
X2831490Y3779570D01*
X2844495Y3769868D01*
X2847746Y3767988D01*
X2850896Y3765194D01*
X2852623Y3761333D01*
X2852623Y3757066D01*
X2850896Y3753205D01*
X2847746Y3750411D01*
X2844495Y3748532D01*
X2831490Y3738829D01*
X2819755Y3727754D01*
X2809341Y3715359D01*
X2800451Y3701796D01*
X2793136Y3687368D01*
X2787599Y3672128D01*
X2783890Y3656380D01*
X2782011Y3640277D01*
X2782011Y3624122D01*
X2783890Y3608019D01*
X2787599Y3592271D01*
X2793136Y3577031D01*
X2800451Y3562604D01*
X2809341Y3549040D01*
X2819755Y3536645D01*
X2831490Y3525570D01*
X2844495Y3515868D01*
X2847746Y3513988D01*
X2850896Y3511194D01*
X2852623Y3507333D01*
X2852623Y3503066D01*
X2850896Y3499205D01*
X2847746Y3496411D01*
X2844495Y3494532D01*
X2831490Y3484829D01*
X2819755Y3473754D01*
X2809341Y3461359D01*
X2800451Y3447796D01*
X2793136Y3433368D01*
X2787599Y3418128D01*
X2783890Y3402380D01*
X2782011Y3386277D01*
X2782011Y3370122D01*
X2783890Y3354019D01*
X2787599Y3338271D01*
X2793136Y3323031D01*
X2800451Y3308604D01*
X2809341Y3295040D01*
X2819755Y3282645D01*
X2831490Y3271570D01*
X2844495Y3261867D01*
X2847746Y3259988D01*
X2850896Y3257194D01*
X2852623Y3253333D01*
X2852623Y3249066D01*
X2850896Y3245205D01*
X2847746Y3242411D01*
X2844495Y3240532D01*
X2831490Y3230829D01*
X2819755Y3219754D01*
X2809341Y3207359D01*
X2800451Y3193796D01*
X2793136Y3179368D01*
X2787599Y3164128D01*
X2783890Y3148380D01*
X2782011Y3132277D01*
X2782011Y3116122D01*
X2783890Y3100019D01*
X2787599Y3084271D01*
X2793136Y3069031D01*
X2800451Y3054604D01*
X2809341Y3041040D01*
X2819755Y3028645D01*
X2831490Y3017570D01*
X2844495Y3007868D01*
X2847746Y3005988D01*
X2850896Y3003194D01*
X2852623Y2999333D01*
X2852623Y2995066D01*
X2850896Y2991205D01*
X2847746Y2988411D01*
X2844495Y2986532D01*
X2831490Y2976829D01*
X2819755Y2965754D01*
X2809341Y2953359D01*
X2800451Y2939796D01*
X2793136Y2925368D01*
X2789732Y2915920D01*
X2875280Y2915920D01*
X2875280Y2979166D01*
X2875991Y2982874D01*
X2877972Y2986024D01*
X2880969Y2988310D01*
X2884627Y2989275D01*
X2888894Y2988716D01*
X2904845Y2985922D01*
X2921000Y2984957D01*
X2937154Y2985922D01*
X2953664Y2988868D01*
X2957372Y2989275D01*
X2961030Y2988310D01*
X2964027Y2986024D01*
X2966008Y2982874D01*
X2966720Y2979166D01*
X2966720Y2915920D01*
X3052267Y2915920D01*
X3048863Y2925368D01*
X3041548Y2939796D01*
X3032658Y2953359D01*
X3022244Y2965754D01*
X3010509Y2976829D01*
X2997504Y2986532D01*
X2994253Y2988411D01*
X2991104Y2991205D01*
X2989376Y2995066D01*
X2989376Y2999333D01*
X2991104Y3003194D01*
X2994253Y3005988D01*
X2997504Y3007868D01*
X3002076Y3011271D01*
X3004972Y3012795D01*
X3008172Y3013303D01*
X3466693Y3013303D01*
X3470706Y3012440D01*
X3474110Y3010103D01*
X3485845Y2997504D01*
X3498240Y2987141D01*
X3511804Y2978200D01*
X3526282Y2970936D01*
X3541471Y2965399D01*
X3557219Y2961690D01*
X3573322Y2959811D01*
X3589528Y2959811D01*
X3605580Y2961690D01*
X3621328Y2965399D01*
X3636568Y2970936D01*
X3651046Y2978200D01*
X3664559Y2987141D01*
X3676954Y2997555D01*
X3688079Y3009290D01*
X3697732Y3022295D01*
X3705809Y3036316D01*
X3712260Y3051200D01*
X3716883Y3066694D01*
X3719677Y3082645D01*
X3720642Y3098800D01*
X3719677Y3114954D01*
X3716883Y3130905D01*
X3712260Y3146450D01*
X3705809Y3161284D01*
X3697732Y3175304D01*
X3688079Y3188309D01*
X3676954Y3200095D01*
X3664559Y3210509D01*
X3651046Y3219399D01*
X3636568Y3226663D01*
X3621328Y3232200D01*
X3605580Y3235909D01*
X3589528Y3237788D01*
X3573322Y3237788D01*
X3557219Y3235909D01*
X3541471Y3232200D01*
X3526282Y3226663D01*
X3511804Y3219399D01*
X3498240Y3210509D01*
X3485845Y3200095D01*
X3474059Y3187496D01*
X3470706Y3185160D01*
X3466642Y3184296D01*
X3052622Y3184296D01*
X3048965Y3185007D01*
X3045764Y3186938D01*
X3043529Y3189884D01*
X3041548Y3193796D01*
X3032658Y3207359D01*
X3022244Y3219754D01*
X3010509Y3230829D01*
X2997504Y3240532D01*
X2994253Y3242411D01*
X2991104Y3245205D01*
X2989376Y3249066D01*
X2989376Y3253333D01*
X2991104Y3257194D01*
X2994253Y3259988D01*
X2997504Y3261867D01*
X3010509Y3271570D01*
X3022244Y3282645D01*
X3032658Y3295040D01*
X3041548Y3308604D01*
X3043529Y3312515D01*
X3045764Y3315462D01*
X3048965Y3317392D01*
X3052622Y3318103D01*
X3657193Y3318103D01*
X3661206Y3317240D01*
X3664610Y3314903D01*
X3676345Y3302304D01*
X3688740Y3291941D01*
X3702304Y3283000D01*
X3716782Y3275736D01*
X3731971Y3270199D01*
X3747719Y3266490D01*
X3763822Y3264611D01*
X3780028Y3264611D01*
X3796080Y3266490D01*
X3811828Y3270199D01*
X3827068Y3275736D01*
X3841546Y3283000D01*
X3848455Y3287572D01*
X3852519Y3289147D01*
X3856837Y3288842D01*
X3860647Y3286810D01*
X3863289Y3283356D01*
X3864203Y3279089D01*
X3864203Y3011424D01*
X3863441Y3007512D01*
X3861206Y3004261D01*
X3597249Y2740304D01*
X3592982Y2735681D01*
X3589172Y2730957D01*
X3585667Y2725928D01*
X3582568Y2720695D01*
X3579825Y2715209D01*
X3577488Y2709570D01*
X3575558Y2703779D01*
X3574034Y2697886D01*
X3572967Y2691892D01*
X3572306Y2685796D01*
X3572103Y2679496D01*
X3572103Y-12547D01*
X3571138Y-16865D01*
X3568446Y-20370D01*
X3562045Y-25755D01*
X3550970Y-37490D01*
X3541268Y-50495D01*
X3539388Y-53746D01*
X3536594Y-56896D01*
X3532733Y-58623D01*
X3528466Y-58623D01*
X3524605Y-56896D01*
X3521811Y-53746D01*
X3519932Y-50495D01*
X3510229Y-37490D01*
X3499154Y-25755D01*
X3486759Y-15341D01*
X3473196Y-6451D01*
X3458768Y863D01*
X3443528Y6400D01*
X3427780Y10109D01*
X3411677Y11988D01*
X3395522Y11988D01*
X3379419Y10109D01*
X3363671Y6400D01*
X3348431Y863D01*
X3334004Y-6451D01*
X3320440Y-15341D01*
X3308045Y-25755D01*
X3296970Y-37490D01*
X3287268Y-50495D01*
X3285388Y-53746D01*
X3282594Y-56896D01*
X3278733Y-58623D01*
X3274466Y-58623D01*
X3270605Y-56896D01*
X3267811Y-53746D01*
X3265932Y-50495D01*
X3256229Y-37490D01*
X3245154Y-25755D01*
X3232759Y-15341D01*
X3219196Y-6451D01*
X3204768Y863D01*
X3189528Y6400D01*
X3173780Y10109D01*
X3157677Y11988D01*
X3141522Y11988D01*
X3125419Y10109D01*
X3109671Y6400D01*
X3094431Y863D01*
X3080004Y-6451D01*
X3066440Y-15341D01*
X3054045Y-25755D01*
X3042970Y-37490D01*
X3033268Y-50495D01*
X3031388Y-53746D01*
X3028594Y-56896D01*
X3024733Y-58623D01*
X3020466Y-58623D01*
X3016605Y-56896D01*
X3013811Y-53746D01*
X3011932Y-50495D01*
X3002229Y-37490D01*
X2991154Y-25755D01*
X2978759Y-15341D01*
X2965196Y-6451D01*
X2950768Y863D01*
X2941320Y4267D01*
X2941320Y-81280D01*
X3004566Y-81280D01*
X3008274Y-81991D01*
X3011424Y-83972D01*
X3013710Y-86969D01*
X3014675Y-90627D01*
X3014116Y-94894D01*
X3011322Y-110845D01*
X3010357Y-127000D01*
X3011322Y-143154D01*
X3014268Y-159664D01*
X3014675Y-163372D01*
X3013710Y-167030D01*
X3011424Y-170027D01*
X3008274Y-172008D01*
X3004566Y-172720D01*
X2941320Y-172720D01*
X2941320Y-258267D01*
X2950768Y-254863D01*
X2965196Y-247548D01*
X2978759Y-238658D01*
X2991154Y-228244D01*
X3002229Y-216509D01*
X3011932Y-203504D01*
X3013811Y-200253D01*
X3016605Y-197104D01*
X3020466Y-195376D01*
X3024733Y-195376D01*
X3028594Y-197104D01*
X3031388Y-200253D01*
X3033268Y-203504D01*
X3042970Y-216509D01*
X3054045Y-228244D01*
X3066440Y-238658D01*
X3080004Y-247548D01*
X3094431Y-254863D01*
X3109671Y-260400D01*
X3125419Y-264109D01*
X3141522Y-265988D01*
X3157677Y-265988D01*
X3173780Y-264109D01*
X3189528Y-260400D01*
X3204768Y-254863D01*
X3219196Y-247548D01*
X3232759Y-238658D01*
X3245154Y-228244D01*
X3256229Y-216509D01*
X3265932Y-203504D01*
X3267811Y-200253D01*
X3270605Y-197104D01*
X3274466Y-195376D01*
X3278733Y-195376D01*
X3282594Y-197104D01*
X3285388Y-200253D01*
X3287268Y-203504D01*
X3296970Y-216509D01*
X3308045Y-228244D01*
X3320440Y-238658D01*
X3334004Y-247548D01*
X3348431Y-254863D01*
X3363671Y-260400D01*
X3379419Y-264109D01*
X3395522Y-265988D01*
X3411677Y-265988D01*
X3427780Y-264109D01*
X3443528Y-260400D01*
X3458768Y-254863D01*
X3473196Y-247548D01*
X3486759Y-238658D01*
X3499154Y-228244D01*
X3510229Y-216509D01*
X3519932Y-203504D01*
X3521811Y-200253D01*
X3524605Y-197104D01*
X3528466Y-195376D01*
X3532733Y-195376D01*
X3536594Y-197104D01*
X3539388Y-200253D01*
X3541268Y-203504D01*
X3550970Y-216509D01*
X3562045Y-228244D01*
X3574440Y-238658D01*
X3588004Y-247548D01*
X3602431Y-254863D01*
X3617671Y-260400D01*
X3633419Y-264109D01*
X3649522Y-265988D01*
X3665677Y-265988D01*
X3681780Y-264109D01*
X3697528Y-260400D01*
X3712768Y-254863D01*
X3727196Y-247548D01*
X3740759Y-238658D01*
X3753154Y-228244D01*
X3758895Y-222148D01*
X3762197Y-219811D01*
X3766108Y-218948D01*
X3770071Y-219710D01*
X3773424Y-221894D01*
X3775710Y-225247D01*
X3778961Y-233171D01*
X3783939Y-241300D01*
X3790086Y-248513D01*
X3797300Y-254660D01*
X3805428Y-259638D01*
X3814165Y-263245D01*
X3823411Y-265480D01*
G37*
G36*
X2849880Y-258267D02*
G01*
X2849880Y-172720D01*
X2764180Y-172720D01*
X2764790Y-174599D01*
X2771190Y-189484D01*
X2779268Y-203504D01*
X2788970Y-216509D01*
X2800045Y-228244D01*
X2812440Y-238658D01*
X2826004Y-247548D01*
X2840431Y-254863D01*
G37*
G36*
X6111392Y-210261D02*
G01*
X6131407Y-210261D01*
X6151372Y-208330D01*
X6171031Y-204571D01*
X6190234Y-198932D01*
X6208826Y-191465D01*
X6226657Y-182270D01*
X6243472Y-171450D01*
X6259220Y-159054D01*
X6273749Y-145237D01*
X6286855Y-130098D01*
X6298488Y-113792D01*
X6308496Y-96469D01*
X6316827Y-78232D01*
X6323380Y-59283D01*
X6328105Y-39827D01*
X6330950Y-20015D01*
X6331915Y0D01*
X6330950Y20015D01*
X6328105Y39827D01*
X6323380Y59283D01*
X6316827Y78232D01*
X6308496Y96469D01*
X6298488Y113792D01*
X6286855Y130098D01*
X6273749Y145237D01*
X6259220Y159054D01*
X6243472Y171450D01*
X6226657Y182270D01*
X6208826Y191465D01*
X6190234Y198932D01*
X6171031Y204571D01*
X6151372Y208330D01*
X6131407Y210261D01*
X6111392Y210261D01*
X6091428Y208330D01*
X6071768Y204571D01*
X6052566Y198932D01*
X6033973Y191465D01*
X6016142Y182270D01*
X5999327Y171450D01*
X5983579Y159054D01*
X5969050Y145237D01*
X5955944Y130098D01*
X5944311Y113792D01*
X5934303Y96469D01*
X5925972Y78232D01*
X5919419Y59283D01*
X5914694Y39827D01*
X5911850Y20015D01*
X5910884Y0D01*
X5911850Y-20015D01*
X5914694Y-39827D01*
X5919419Y-59283D01*
X5925972Y-78232D01*
X5934303Y-96469D01*
X5944311Y-113792D01*
X5955944Y-130098D01*
X5969050Y-145237D01*
X5983579Y-159054D01*
X5999327Y-171450D01*
X6016142Y-182270D01*
X6033973Y-191465D01*
X6052566Y-198932D01*
X6071768Y-204571D01*
X6091428Y-208330D01*
G37*
G36*
X523392Y-210261D02*
G01*
X543407Y-210261D01*
X563372Y-208330D01*
X583031Y-204571D01*
X602234Y-198932D01*
X620826Y-191465D01*
X638657Y-182270D01*
X655472Y-171450D01*
X671220Y-159054D01*
X685749Y-145237D01*
X698855Y-130098D01*
X710488Y-113792D01*
X720496Y-96469D01*
X728827Y-78232D01*
X735380Y-59283D01*
X740105Y-39827D01*
X742950Y-20015D01*
X743915Y0D01*
X742950Y20015D01*
X740105Y39827D01*
X735380Y59283D01*
X728827Y78232D01*
X720496Y96469D01*
X710488Y113792D01*
X698855Y130098D01*
X685749Y145237D01*
X671220Y159054D01*
X655472Y171450D01*
X638657Y182270D01*
X620826Y191465D01*
X602234Y198932D01*
X583031Y204571D01*
X563372Y208330D01*
X543407Y210261D01*
X523392Y210261D01*
X503428Y208330D01*
X483768Y204571D01*
X464566Y198932D01*
X445973Y191465D01*
X428142Y182270D01*
X411327Y171450D01*
X395579Y159054D01*
X381050Y145237D01*
X367944Y130098D01*
X356311Y113792D01*
X346303Y96469D01*
X337972Y78232D01*
X331419Y59283D01*
X326694Y39827D01*
X323850Y20015D01*
X322884Y0D01*
X323850Y-20015D01*
X326694Y-39827D01*
X331419Y-59283D01*
X337972Y-78232D01*
X346303Y-96469D01*
X356311Y-113792D01*
X367944Y-130098D01*
X381050Y-145237D01*
X395579Y-159054D01*
X411327Y-171450D01*
X428142Y-182270D01*
X445973Y-191465D01*
X464566Y-198932D01*
X483768Y-204571D01*
X503428Y-208330D01*
G37*
G36*
X1738680Y-172262D02*
G01*
X1832406Y-172262D01*
X1832406Y-78486D01*
X1829358Y-79502D01*
X1813560Y-86817D01*
X1798675Y-95758D01*
X1784857Y-106273D01*
X1772208Y-118211D01*
X1760982Y-131470D01*
X1751228Y-145846D01*
X1743100Y-161188D01*
G37*
G36*
X1945081Y-172262D02*
G01*
X2038807Y-172262D01*
X2034387Y-161188D01*
X2026259Y-145846D01*
X2016506Y-131470D01*
X2005279Y-118211D01*
X1992630Y-106273D01*
X1978812Y-95758D01*
X1963928Y-86817D01*
X1948129Y-79502D01*
X1945081Y-78486D01*
G37*
G36*
X2764180Y-81280D02*
G01*
X2849880Y-81280D01*
X2849880Y4267D01*
X2840431Y863D01*
X2826004Y-6451D01*
X2812440Y-15341D01*
X2800045Y-25755D01*
X2788970Y-37490D01*
X2779268Y-50495D01*
X2771190Y-64516D01*
X2764790Y-79400D01*
G37*
G36*
X5042154Y304393D02*
G01*
X6044946Y304393D01*
X6062522Y305308D01*
X6079591Y308051D01*
X6096355Y312521D01*
X6112510Y318719D01*
X6127953Y326593D01*
X6142482Y336042D01*
X6155283Y346405D01*
X6157112Y347573D01*
X6174689Y356412D01*
X6193891Y368249D01*
X6211976Y381660D01*
X6228892Y396544D01*
X6244488Y412800D01*
X6258661Y430326D01*
X6271260Y449021D01*
X6282283Y468680D01*
X6291529Y489204D01*
X6299047Y510489D01*
X6304737Y532282D01*
X6308547Y554482D01*
X6310477Y576935D01*
X6310477Y599490D01*
X6308547Y621944D01*
X6304737Y644144D01*
X6299047Y665937D01*
X6291529Y687222D01*
X6282283Y707745D01*
X6271260Y727405D01*
X6258661Y746099D01*
X6244488Y763625D01*
X6228892Y779881D01*
X6211976Y794766D01*
X6193891Y808177D01*
X6174689Y820013D01*
X6156553Y829157D01*
X6153099Y831951D01*
X6151219Y835964D01*
X6151219Y840435D01*
X6153099Y844448D01*
X6156553Y847293D01*
X6174689Y856437D01*
X6193891Y868273D01*
X6211976Y881634D01*
X6228892Y896518D01*
X6244488Y912825D01*
X6258661Y930351D01*
X6271260Y948994D01*
X6282283Y968705D01*
X6291529Y989228D01*
X6299047Y1010462D01*
X6304737Y1032256D01*
X6307886Y1050645D01*
X6308852Y1053592D01*
X6310731Y1056081D01*
X6428841Y1174242D01*
X6434785Y1180490D01*
X6472631Y1222349D01*
X6483705Y1235964D01*
X6493154Y1250492D01*
X6501079Y1265936D01*
X6507276Y1282090D01*
X6511798Y1298803D01*
X6514541Y1315923D01*
X6515506Y1333754D01*
X6515506Y1879447D01*
X6515252Y1888286D01*
X6514592Y1896922D01*
X6513474Y1905507D01*
X6511899Y1913991D01*
X6509867Y1922424D01*
X6507378Y1930755D01*
X6504482Y1938934D01*
X6501180Y1946910D01*
X6497472Y1954733D01*
X6493306Y1962353D01*
X6488785Y1969719D01*
X6483908Y1976882D01*
X6478625Y1983739D01*
X6472986Y1990343D01*
X6466941Y1996744D01*
X6221069Y2242566D01*
X6218936Y2245766D01*
X6211722Y2262530D01*
X6202629Y2278938D01*
X6191859Y2294382D01*
X6179616Y2308656D01*
X6166002Y2321610D01*
X6151168Y2333091D01*
X6135217Y2343048D01*
X6118352Y2351278D01*
X6100724Y2357831D01*
X6082538Y2362555D01*
X6063945Y2365400D01*
X6045200Y2366314D01*
X6026454Y2365400D01*
X6007862Y2362555D01*
X5989675Y2357831D01*
X5969152Y2350160D01*
X5966866Y2349906D01*
X5042154Y2349906D01*
X5024577Y2348992D01*
X5007508Y2346248D01*
X4990744Y2341778D01*
X4974590Y2335580D01*
X4959146Y2327706D01*
X4951984Y2323033D01*
X4948783Y2321712D01*
X4944465Y2320645D01*
X4935728Y2317038D01*
X4927600Y2312060D01*
X4920386Y2305913D01*
X4914239Y2298700D01*
X4909261Y2290572D01*
X4905654Y2281834D01*
X4904587Y2277516D01*
X4903266Y2274316D01*
X4898593Y2267153D01*
X4890719Y2251710D01*
X4884521Y2235555D01*
X4880051Y2218791D01*
X4877308Y2201722D01*
X4876393Y2184400D01*
X4877308Y2167077D01*
X4880051Y2150008D01*
X4884521Y2133244D01*
X4890719Y2117090D01*
X4898593Y2101646D01*
X4903266Y2094484D01*
X4904587Y2091283D01*
X4905654Y2086965D01*
X4909261Y2078228D01*
X4914239Y2070100D01*
X4920386Y2062886D01*
X4927600Y2056739D01*
X4935728Y2051761D01*
X4944465Y2048154D01*
X4948783Y2047087D01*
X4951984Y2045766D01*
X4959146Y2041093D01*
X4974590Y2033219D01*
X4990744Y2027021D01*
X5007508Y2022551D01*
X5024577Y2019807D01*
X5042154Y2018893D01*
X5952337Y2018893D01*
X5956808Y2017877D01*
X5972048Y2010410D01*
X5990640Y2003552D01*
X5994349Y2001215D01*
X6128054Y1867509D01*
X6130239Y1864258D01*
X6131001Y1860448D01*
X6130290Y1856587D01*
X6128207Y1853285D01*
X6125006Y1851050D01*
X6121196Y1850186D01*
X6117336Y1850796D01*
X6100724Y1856943D01*
X6082538Y1861667D01*
X6063945Y1864512D01*
X6045200Y1865426D01*
X6026454Y1864512D01*
X6007862Y1861667D01*
X5989675Y1856943D01*
X5972048Y1850389D01*
X5963208Y1846072D01*
X5958789Y1845056D01*
X5307939Y1841906D01*
X5299964Y1841652D01*
X5290464Y1840890D01*
X5282742Y1839874D01*
X5273395Y1838096D01*
X5265775Y1836267D01*
X5256682Y1833524D01*
X5249316Y1830933D01*
X5240528Y1827275D01*
X5233466Y1823872D01*
X5225135Y1819300D01*
X5218480Y1815236D01*
X5210657Y1809800D01*
X5204460Y1805025D01*
X5197246Y1798828D01*
X5191506Y1793341D01*
X4924958Y1526844D01*
X4918913Y1520444D01*
X4913274Y1513840D01*
X4907991Y1506982D01*
X4903114Y1499819D01*
X4898593Y1492453D01*
X4894427Y1484833D01*
X4890719Y1477010D01*
X4887417Y1469034D01*
X4884521Y1460855D01*
X4882032Y1452524D01*
X4880000Y1444091D01*
X4878425Y1435608D01*
X4877308Y1427022D01*
X4876647Y1418386D01*
X4876393Y1409547D01*
X4876393Y470154D01*
X4877308Y452577D01*
X4880051Y435508D01*
X4884521Y418744D01*
X4890719Y402590D01*
X4898593Y387146D01*
X4903266Y379984D01*
X4904587Y376783D01*
X4905654Y372465D01*
X4909261Y363728D01*
X4914239Y355600D01*
X4920386Y348386D01*
X4927600Y342239D01*
X4935728Y337261D01*
X4944465Y333654D01*
X4948783Y332587D01*
X4951984Y331266D01*
X4959146Y326593D01*
X4974590Y318719D01*
X4990744Y312521D01*
X5007508Y308051D01*
X5024577Y305308D01*
G37*
G36*
X1137920Y330657D02*
G01*
X1170533Y330657D01*
X1180388Y331419D01*
X1189634Y333654D01*
X1198372Y337261D01*
X1206500Y342239D01*
X1213713Y348386D01*
X1219860Y355600D01*
X1224838Y363728D01*
X1228445Y372465D01*
X1230680Y381711D01*
X1231442Y391566D01*
X1231442Y424180D01*
X1137920Y424180D01*
G37*
G36*
X1013866Y330657D02*
G01*
X1046480Y330657D01*
X1046480Y424180D01*
X952957Y424180D01*
X952957Y391566D01*
X953719Y381711D01*
X955954Y372465D01*
X959561Y363728D01*
X964539Y355600D01*
X970686Y348386D01*
X977900Y342239D01*
X986028Y337261D01*
X994765Y333654D01*
X1004011Y331419D01*
G37*
G36*
X1137920Y515620D02*
G01*
X1231442Y515620D01*
X1231442Y548233D01*
X1230680Y558088D01*
X1228445Y567334D01*
X1224838Y576072D01*
X1219860Y584200D01*
X1213713Y591413D01*
X1206500Y597560D01*
X1198372Y602538D01*
X1189634Y606145D01*
X1180388Y608380D01*
X1170533Y609142D01*
X1137920Y609142D01*
G37*
G36*
X952957Y515620D02*
G01*
X1046480Y515620D01*
X1046480Y609142D01*
X1013866Y609142D01*
X1004011Y608380D01*
X994765Y606145D01*
X986028Y602538D01*
X977900Y597560D01*
X970686Y591413D01*
X964539Y584200D01*
X959561Y576072D01*
X955954Y567334D01*
X953719Y558088D01*
X952957Y548233D01*
G37*
G36*
X2921000Y2476957D02*
G01*
X2937154Y2477922D01*
X2953105Y2480716D01*
X2968599Y2485390D01*
X2983484Y2491790D01*
X2997504Y2499868D01*
X3010509Y2509570D01*
X3022244Y2520645D01*
X3032658Y2533040D01*
X3041548Y2546604D01*
X3048863Y2561031D01*
X3054400Y2576271D01*
X3058109Y2592019D01*
X3059988Y2608122D01*
X3059988Y2624277D01*
X3058109Y2640380D01*
X3054400Y2656128D01*
X3048863Y2671368D01*
X3041548Y2685796D01*
X3032658Y2699359D01*
X3022244Y2711754D01*
X3010509Y2722829D01*
X2997504Y2732532D01*
X2994253Y2734411D01*
X2991104Y2737205D01*
X2989376Y2741066D01*
X2989376Y2745333D01*
X2991104Y2749194D01*
X2994253Y2751988D01*
X2997504Y2753868D01*
X3010509Y2763570D01*
X3022244Y2774645D01*
X3032658Y2787040D01*
X3041548Y2800604D01*
X3048863Y2815031D01*
X3052267Y2824480D01*
X2966720Y2824480D01*
X2966720Y2761234D01*
X2966008Y2757525D01*
X2964027Y2754376D01*
X2961030Y2752090D01*
X2957372Y2751124D01*
X2953105Y2751683D01*
X2937154Y2754477D01*
X2921000Y2755442D01*
X2904845Y2754477D01*
X2888335Y2751531D01*
X2884627Y2751124D01*
X2880969Y2752090D01*
X2877972Y2754376D01*
X2875991Y2757525D01*
X2875280Y2761234D01*
X2875280Y2824480D01*
X2789732Y2824480D01*
X2793136Y2815031D01*
X2800451Y2800604D01*
X2809341Y2787040D01*
X2819755Y2774645D01*
X2831490Y2763570D01*
X2844495Y2753868D01*
X2847746Y2751988D01*
X2850896Y2749194D01*
X2852623Y2745333D01*
X2852623Y2741066D01*
X2850896Y2737205D01*
X2847746Y2734411D01*
X2844495Y2732532D01*
X2831490Y2722829D01*
X2819755Y2711754D01*
X2809341Y2699359D01*
X2800451Y2685796D01*
X2793136Y2671368D01*
X2787599Y2656128D01*
X2783890Y2640380D01*
X2782011Y2624277D01*
X2782011Y2608122D01*
X2783890Y2592019D01*
X2787599Y2576271D01*
X2793136Y2561031D01*
X2800451Y2546604D01*
X2809341Y2533040D01*
X2819755Y2520645D01*
X2831490Y2509570D01*
X2844495Y2499868D01*
X2858516Y2491790D01*
X2873400Y2485390D01*
X2888894Y2480716D01*
X2904845Y2477922D01*
G37*
G36*
X393700Y2476957D02*
G01*
X409854Y2477922D01*
X425805Y2480716D01*
X441299Y2485390D01*
X456184Y2491790D01*
X470204Y2499868D01*
X483209Y2509570D01*
X494944Y2520645D01*
X505358Y2533040D01*
X514248Y2546604D01*
X521563Y2561031D01*
X527100Y2576271D01*
X530809Y2592019D01*
X532688Y2608122D01*
X532688Y2624277D01*
X530809Y2640380D01*
X527100Y2656128D01*
X521563Y2671368D01*
X514248Y2685796D01*
X505358Y2699359D01*
X494944Y2711754D01*
X483209Y2722829D01*
X470204Y2732532D01*
X466953Y2734411D01*
X463804Y2737205D01*
X462076Y2741066D01*
X462076Y2745333D01*
X463804Y2749194D01*
X466953Y2751988D01*
X470204Y2753868D01*
X483209Y2763570D01*
X494944Y2774645D01*
X505358Y2787040D01*
X514248Y2800604D01*
X521563Y2815031D01*
X527100Y2830271D01*
X530809Y2846019D01*
X532688Y2862122D01*
X532688Y2878277D01*
X530809Y2894380D01*
X527100Y2910128D01*
X521563Y2925368D01*
X514248Y2939796D01*
X505358Y2953359D01*
X494944Y2965754D01*
X483209Y2976829D01*
X470204Y2986532D01*
X466953Y2988411D01*
X463804Y2991205D01*
X462076Y2995066D01*
X462076Y2999333D01*
X463804Y3003194D01*
X466953Y3005988D01*
X470204Y3007868D01*
X483209Y3017570D01*
X494944Y3028645D01*
X505358Y3041040D01*
X514248Y3054604D01*
X521563Y3069031D01*
X524967Y3078480D01*
X439420Y3078480D01*
X439420Y3015234D01*
X438708Y3011525D01*
X436727Y3008376D01*
X433730Y3006090D01*
X430072Y3005124D01*
X425805Y3005683D01*
X409854Y3008477D01*
X393700Y3009442D01*
X377545Y3008477D01*
X361035Y3005531D01*
X357327Y3005124D01*
X353669Y3006090D01*
X350672Y3008376D01*
X348691Y3011525D01*
X347980Y3015234D01*
X347980Y3078480D01*
X262432Y3078480D01*
X265836Y3069031D01*
X273151Y3054604D01*
X282041Y3041040D01*
X292455Y3028645D01*
X304190Y3017570D01*
X317195Y3007868D01*
X320446Y3005988D01*
X323596Y3003194D01*
X325323Y2999333D01*
X325323Y2995066D01*
X323596Y2991205D01*
X320446Y2988411D01*
X317195Y2986532D01*
X304190Y2976829D01*
X292455Y2965754D01*
X282041Y2953359D01*
X273151Y2939796D01*
X265836Y2925368D01*
X260299Y2910128D01*
X256590Y2894380D01*
X254711Y2878277D01*
X254711Y2862122D01*
X256590Y2846019D01*
X260299Y2830271D01*
X265836Y2815031D01*
X273151Y2800604D01*
X282041Y2787040D01*
X292455Y2774645D01*
X304190Y2763570D01*
X317195Y2753868D01*
X320446Y2751988D01*
X323596Y2749194D01*
X325323Y2745333D01*
X325323Y2741066D01*
X323596Y2737205D01*
X320446Y2734411D01*
X317195Y2732532D01*
X304190Y2722829D01*
X292455Y2711754D01*
X282041Y2699359D01*
X273151Y2685796D01*
X265836Y2671368D01*
X260299Y2656128D01*
X256590Y2640380D01*
X254711Y2624277D01*
X254711Y2608122D01*
X256590Y2592019D01*
X260299Y2576271D01*
X265836Y2561031D01*
X273151Y2546604D01*
X282041Y2533040D01*
X292455Y2520645D01*
X304190Y2509570D01*
X317195Y2499868D01*
X331216Y2491790D01*
X346100Y2485390D01*
X361594Y2480716D01*
X377545Y2477922D01*
G37*
G36*
X2093366Y2476957D02*
G01*
X2250033Y2476957D01*
X2259888Y2477719D01*
X2269134Y2479954D01*
X2277872Y2483561D01*
X2286000Y2488539D01*
X2293213Y2494686D01*
X2299360Y2501900D01*
X2304338Y2510028D01*
X2307945Y2518765D01*
X2310180Y2528011D01*
X2310942Y2537866D01*
X2310942Y2694533D01*
X2310180Y2704388D01*
X2307945Y2713634D01*
X2304338Y2722372D01*
X2299360Y2730500D01*
X2293213Y2737713D01*
X2286000Y2743860D01*
X2277872Y2748838D01*
X2269947Y2752090D01*
X2266594Y2754376D01*
X2264410Y2757728D01*
X2263648Y2761691D01*
X2264511Y2765602D01*
X2266848Y2768904D01*
X2272944Y2774645D01*
X2283358Y2787040D01*
X2292248Y2800604D01*
X2299563Y2815031D01*
X2305100Y2830271D01*
X2308809Y2846019D01*
X2310688Y2862122D01*
X2310688Y2878277D01*
X2308809Y2894380D01*
X2305100Y2910128D01*
X2299563Y2925368D01*
X2292248Y2939796D01*
X2283358Y2953359D01*
X2272944Y2965754D01*
X2261209Y2976829D01*
X2248204Y2986532D01*
X2244953Y2988411D01*
X2241804Y2991205D01*
X2240076Y2995066D01*
X2240076Y2999333D01*
X2241804Y3003194D01*
X2244953Y3005988D01*
X2248204Y3007868D01*
X2261209Y3017570D01*
X2272944Y3028645D01*
X2283358Y3041040D01*
X2292248Y3054604D01*
X2299563Y3069031D01*
X2302967Y3078480D01*
X2217420Y3078480D01*
X2217420Y3015234D01*
X2216708Y3011525D01*
X2214727Y3008376D01*
X2211730Y3006090D01*
X2208072Y3005124D01*
X2203805Y3005683D01*
X2187854Y3008477D01*
X2171700Y3009442D01*
X2155545Y3008477D01*
X2139035Y3005531D01*
X2135327Y3005124D01*
X2131669Y3006090D01*
X2128672Y3008376D01*
X2126691Y3011525D01*
X2125980Y3015234D01*
X2125980Y3078480D01*
X2040432Y3078480D01*
X2043836Y3069031D01*
X2051151Y3054604D01*
X2060041Y3041040D01*
X2070455Y3028645D01*
X2082190Y3017570D01*
X2095195Y3007868D01*
X2098446Y3005988D01*
X2101596Y3003194D01*
X2103323Y2999333D01*
X2103323Y2995066D01*
X2101596Y2991205D01*
X2098446Y2988411D01*
X2095195Y2986532D01*
X2082190Y2976829D01*
X2070455Y2965754D01*
X2060041Y2953359D01*
X2051151Y2939796D01*
X2043836Y2925368D01*
X2038299Y2910128D01*
X2034590Y2894380D01*
X2032711Y2878277D01*
X2032711Y2862122D01*
X2034590Y2846019D01*
X2038299Y2830271D01*
X2043836Y2815031D01*
X2051151Y2800604D01*
X2060041Y2787040D01*
X2070455Y2774645D01*
X2076551Y2768904D01*
X2078888Y2765602D01*
X2079752Y2761691D01*
X2078989Y2757728D01*
X2076805Y2754376D01*
X2073452Y2752090D01*
X2065528Y2748838D01*
X2057400Y2743860D01*
X2050186Y2737713D01*
X2044039Y2730500D01*
X2039061Y2722372D01*
X2035454Y2713634D01*
X2033219Y2704388D01*
X2032457Y2694533D01*
X2032457Y2537866D01*
X2033219Y2528011D01*
X2035454Y2518765D01*
X2039061Y2510028D01*
X2044039Y2501900D01*
X2050186Y2494686D01*
X2057400Y2488539D01*
X2065528Y2483561D01*
X2074265Y2479954D01*
X2083511Y2477719D01*
G37*
G36*
X6144666Y2781757D02*
G01*
X6177280Y2781757D01*
X6177280Y2875280D01*
X6083757Y2875280D01*
X6083757Y2842666D01*
X6084519Y2832811D01*
X6086754Y2823565D01*
X6090361Y2814828D01*
X6095339Y2806700D01*
X6101486Y2799486D01*
X6108700Y2793339D01*
X6116828Y2788361D01*
X6125565Y2784754D01*
X6134811Y2782519D01*
G37*
G36*
X6268720Y2781757D02*
G01*
X6301333Y2781757D01*
X6311188Y2782519D01*
X6320434Y2784754D01*
X6329172Y2788361D01*
X6337300Y2793339D01*
X6344513Y2799486D01*
X6350660Y2806700D01*
X6355638Y2814828D01*
X6359245Y2823565D01*
X6361480Y2832811D01*
X6362242Y2842666D01*
X6362242Y2875280D01*
X6268720Y2875280D01*
G37*
G36*
X6083757Y2966720D02*
G01*
X6177280Y2966720D01*
X6177280Y3029966D01*
X6177991Y3033674D01*
X6179972Y3036824D01*
X6182969Y3039110D01*
X6186627Y3040075D01*
X6190894Y3039516D01*
X6206845Y3036722D01*
X6223000Y3035757D01*
X6239154Y3036722D01*
X6255664Y3039668D01*
X6259372Y3040075D01*
X6263030Y3039110D01*
X6266027Y3036824D01*
X6268008Y3033674D01*
X6268720Y3029966D01*
X6268720Y2966720D01*
X6362242Y2966720D01*
X6362242Y2999333D01*
X6361480Y3009188D01*
X6359245Y3018434D01*
X6355638Y3027172D01*
X6350660Y3035300D01*
X6344513Y3042513D01*
X6337300Y3048660D01*
X6329172Y3053638D01*
X6321247Y3056890D01*
X6317894Y3059176D01*
X6315710Y3062528D01*
X6314948Y3066491D01*
X6315811Y3070402D01*
X6318148Y3073704D01*
X6324244Y3079445D01*
X6334658Y3091840D01*
X6343548Y3105404D01*
X6350863Y3119831D01*
X6356400Y3135071D01*
X6360109Y3150819D01*
X6361988Y3166922D01*
X6361988Y3183077D01*
X6360109Y3199180D01*
X6356400Y3214928D01*
X6350863Y3230168D01*
X6343548Y3244596D01*
X6334658Y3258159D01*
X6324244Y3270554D01*
X6312509Y3281629D01*
X6299504Y3291332D01*
X6296253Y3293211D01*
X6293104Y3296005D01*
X6291376Y3299866D01*
X6291376Y3304133D01*
X6293104Y3307994D01*
X6296253Y3310788D01*
X6299504Y3312668D01*
X6312509Y3322370D01*
X6324244Y3333445D01*
X6334658Y3345840D01*
X6343548Y3359404D01*
X6350863Y3373831D01*
X6356400Y3389071D01*
X6360109Y3404819D01*
X6361988Y3420922D01*
X6361988Y3437077D01*
X6360109Y3453180D01*
X6356400Y3468928D01*
X6350863Y3484168D01*
X6343548Y3498596D01*
X6334658Y3512159D01*
X6324244Y3524554D01*
X6312509Y3535629D01*
X6299504Y3545332D01*
X6285484Y3553409D01*
X6270599Y3559810D01*
X6255105Y3564483D01*
X6239154Y3567277D01*
X6223000Y3568242D01*
X6206845Y3567277D01*
X6190894Y3564483D01*
X6175400Y3559810D01*
X6160516Y3553409D01*
X6146495Y3545332D01*
X6133490Y3535629D01*
X6121755Y3524554D01*
X6111341Y3512159D01*
X6102451Y3498596D01*
X6095136Y3484168D01*
X6089599Y3468928D01*
X6085890Y3453180D01*
X6084011Y3437077D01*
X6084011Y3420922D01*
X6085890Y3404819D01*
X6089599Y3389071D01*
X6095136Y3373831D01*
X6102451Y3359404D01*
X6111341Y3345840D01*
X6121755Y3333445D01*
X6133490Y3322370D01*
X6146495Y3312668D01*
X6149746Y3310788D01*
X6152896Y3307994D01*
X6154623Y3304133D01*
X6154623Y3299866D01*
X6152896Y3296005D01*
X6149746Y3293211D01*
X6146495Y3291332D01*
X6133490Y3281629D01*
X6121755Y3270554D01*
X6111341Y3258159D01*
X6102451Y3244596D01*
X6095136Y3230168D01*
X6089599Y3214928D01*
X6085890Y3199180D01*
X6084011Y3183077D01*
X6084011Y3166922D01*
X6085890Y3150819D01*
X6089599Y3135071D01*
X6095136Y3119831D01*
X6102451Y3105404D01*
X6111341Y3091840D01*
X6121755Y3079445D01*
X6127851Y3073704D01*
X6130188Y3070402D01*
X6131052Y3066491D01*
X6130290Y3062528D01*
X6128105Y3059176D01*
X6124752Y3056890D01*
X6116828Y3053638D01*
X6108700Y3048660D01*
X6101486Y3042513D01*
X6095339Y3035300D01*
X6090361Y3027172D01*
X6086754Y3018434D01*
X6084519Y3009188D01*
X6083757Y2999333D01*
G37*
G36*
X262432Y3169920D02*
G01*
X347980Y3169920D01*
X347980Y3233166D01*
X348691Y3236874D01*
X350672Y3240024D01*
X353669Y3242310D01*
X357327Y3243275D01*
X361594Y3242716D01*
X377545Y3239922D01*
X393700Y3238957D01*
X409854Y3239922D01*
X426364Y3242868D01*
X430072Y3243275D01*
X433730Y3242310D01*
X436727Y3240024D01*
X438708Y3236874D01*
X439420Y3233166D01*
X439420Y3169920D01*
X524967Y3169920D01*
X521563Y3179368D01*
X514248Y3193796D01*
X505358Y3207359D01*
X494944Y3219754D01*
X483209Y3230829D01*
X470204Y3240532D01*
X466953Y3242411D01*
X463804Y3245205D01*
X462076Y3249066D01*
X462076Y3253333D01*
X463804Y3257194D01*
X466953Y3259988D01*
X470204Y3261867D01*
X483209Y3271570D01*
X494944Y3282645D01*
X505358Y3295040D01*
X514248Y3308604D01*
X521563Y3323031D01*
X527100Y3338271D01*
X530809Y3354019D01*
X532688Y3370122D01*
X532688Y3386277D01*
X530809Y3402380D01*
X527100Y3418128D01*
X521563Y3433368D01*
X514248Y3447796D01*
X505358Y3461359D01*
X494944Y3473754D01*
X483209Y3484829D01*
X470204Y3494532D01*
X466953Y3496411D01*
X463804Y3499205D01*
X462076Y3503066D01*
X462076Y3507333D01*
X463804Y3511194D01*
X466953Y3513988D01*
X470204Y3515868D01*
X483209Y3525570D01*
X494944Y3536645D01*
X505358Y3549040D01*
X514248Y3562604D01*
X521563Y3577031D01*
X527100Y3592271D01*
X530809Y3608019D01*
X532688Y3624122D01*
X532688Y3640277D01*
X530809Y3656380D01*
X527100Y3672128D01*
X521563Y3687368D01*
X514248Y3701796D01*
X505358Y3715359D01*
X494944Y3727754D01*
X483209Y3738829D01*
X470204Y3748532D01*
X466953Y3750411D01*
X463804Y3753205D01*
X462076Y3757066D01*
X462076Y3761333D01*
X463804Y3765194D01*
X466953Y3767988D01*
X470204Y3769868D01*
X483209Y3779570D01*
X494944Y3790645D01*
X505358Y3803040D01*
X514248Y3816604D01*
X521563Y3831031D01*
X527100Y3846271D01*
X530809Y3862019D01*
X532688Y3878122D01*
X532688Y3894277D01*
X530809Y3910380D01*
X527100Y3926128D01*
X521563Y3941368D01*
X514248Y3955796D01*
X505358Y3969359D01*
X494944Y3981754D01*
X483209Y3992829D01*
X470204Y4002532D01*
X466953Y4004411D01*
X463804Y4007205D01*
X462076Y4011066D01*
X462076Y4015333D01*
X463804Y4019194D01*
X466953Y4021988D01*
X470204Y4023868D01*
X483209Y4033570D01*
X494944Y4044645D01*
X505358Y4057040D01*
X514248Y4070604D01*
X521563Y4085031D01*
X527100Y4100271D01*
X530809Y4116019D01*
X532688Y4132122D01*
X532688Y4148277D01*
X530809Y4164380D01*
X527100Y4180128D01*
X521563Y4195368D01*
X514248Y4209796D01*
X505358Y4223359D01*
X494944Y4235754D01*
X483209Y4246829D01*
X470204Y4256532D01*
X466953Y4258411D01*
X463804Y4261205D01*
X462076Y4265066D01*
X462076Y4269333D01*
X463804Y4273194D01*
X466953Y4275988D01*
X470204Y4277868D01*
X483209Y4287570D01*
X494944Y4298645D01*
X505358Y4311040D01*
X514248Y4324604D01*
X521563Y4339031D01*
X524967Y4348480D01*
X439420Y4348480D01*
X439420Y4285234D01*
X438708Y4281525D01*
X436727Y4278376D01*
X433730Y4276090D01*
X430072Y4275124D01*
X425805Y4275683D01*
X409854Y4278477D01*
X393700Y4279442D01*
X377545Y4278477D01*
X361035Y4275531D01*
X357327Y4275124D01*
X353669Y4276090D01*
X350672Y4278376D01*
X348691Y4281525D01*
X347980Y4285234D01*
X347980Y4348480D01*
X262432Y4348480D01*
X265836Y4339031D01*
X273151Y4324604D01*
X282041Y4311040D01*
X292455Y4298645D01*
X304190Y4287570D01*
X317195Y4277868D01*
X320446Y4275988D01*
X323596Y4273194D01*
X325323Y4269333D01*
X325323Y4265066D01*
X323596Y4261205D01*
X320446Y4258411D01*
X317195Y4256532D01*
X304190Y4246829D01*
X292455Y4235754D01*
X282041Y4223359D01*
X273151Y4209796D01*
X265836Y4195368D01*
X260299Y4180128D01*
X256590Y4164380D01*
X254711Y4148277D01*
X254711Y4132122D01*
X256590Y4116019D01*
X260299Y4100271D01*
X265836Y4085031D01*
X273151Y4070604D01*
X282041Y4057040D01*
X292455Y4044645D01*
X304190Y4033570D01*
X317195Y4023868D01*
X320446Y4021988D01*
X323596Y4019194D01*
X325323Y4015333D01*
X325323Y4011066D01*
X323596Y4007205D01*
X320446Y4004411D01*
X317195Y4002532D01*
X304190Y3992829D01*
X292455Y3981754D01*
X282041Y3969359D01*
X273151Y3955796D01*
X265836Y3941368D01*
X260299Y3926128D01*
X256590Y3910380D01*
X254711Y3894277D01*
X254711Y3878122D01*
X256590Y3862019D01*
X260299Y3846271D01*
X265836Y3831031D01*
X273151Y3816604D01*
X282041Y3803040D01*
X292455Y3790645D01*
X304190Y3779570D01*
X317195Y3769868D01*
X320446Y3767988D01*
X323596Y3765194D01*
X325323Y3761333D01*
X325323Y3757066D01*
X323596Y3753205D01*
X320446Y3750411D01*
X317195Y3748532D01*
X304190Y3738829D01*
X292455Y3727754D01*
X282041Y3715359D01*
X273151Y3701796D01*
X265836Y3687368D01*
X260299Y3672128D01*
X256590Y3656380D01*
X254711Y3640277D01*
X254711Y3624122D01*
X256590Y3608019D01*
X260299Y3592271D01*
X265836Y3577031D01*
X273151Y3562604D01*
X282041Y3549040D01*
X292455Y3536645D01*
X304190Y3525570D01*
X317195Y3515868D01*
X320446Y3513988D01*
X323596Y3511194D01*
X325323Y3507333D01*
X325323Y3503066D01*
X323596Y3499205D01*
X320446Y3496411D01*
X317195Y3494532D01*
X304190Y3484829D01*
X292455Y3473754D01*
X282041Y3461359D01*
X273151Y3447796D01*
X265836Y3433368D01*
X260299Y3418128D01*
X256590Y3402380D01*
X254711Y3386277D01*
X254711Y3370122D01*
X256590Y3354019D01*
X260299Y3338271D01*
X265836Y3323031D01*
X273151Y3308604D01*
X282041Y3295040D01*
X292455Y3282645D01*
X304190Y3271570D01*
X317195Y3261867D01*
X320446Y3259988D01*
X323596Y3257194D01*
X325323Y3253333D01*
X325323Y3249066D01*
X323596Y3245205D01*
X320446Y3242411D01*
X317195Y3240532D01*
X304190Y3230829D01*
X292455Y3219754D01*
X282041Y3207359D01*
X273151Y3193796D01*
X265836Y3179368D01*
G37*
G36*
X2040432Y3169920D02*
G01*
X2125980Y3169920D01*
X2125980Y3233166D01*
X2126691Y3236874D01*
X2128672Y3240024D01*
X2131669Y3242310D01*
X2135327Y3243275D01*
X2139594Y3242716D01*
X2155545Y3239922D01*
X2171700Y3238957D01*
X2187854Y3239922D01*
X2204364Y3242868D01*
X2208072Y3243275D01*
X2211730Y3242310D01*
X2214727Y3240024D01*
X2216708Y3236874D01*
X2217420Y3233166D01*
X2217420Y3169920D01*
X2302967Y3169920D01*
X2299563Y3179368D01*
X2292248Y3193796D01*
X2283358Y3207359D01*
X2272944Y3219754D01*
X2261209Y3230829D01*
X2248204Y3240532D01*
X2244953Y3242411D01*
X2241804Y3245205D01*
X2240076Y3249066D01*
X2240076Y3253333D01*
X2241804Y3257194D01*
X2244953Y3259988D01*
X2248204Y3261867D01*
X2261209Y3271570D01*
X2272944Y3282645D01*
X2283358Y3295040D01*
X2292248Y3308604D01*
X2299563Y3323031D01*
X2305100Y3338271D01*
X2308809Y3354019D01*
X2310688Y3370122D01*
X2310688Y3386277D01*
X2308809Y3402380D01*
X2305100Y3418128D01*
X2299563Y3433368D01*
X2292248Y3447796D01*
X2283358Y3461359D01*
X2272944Y3473754D01*
X2261209Y3484829D01*
X2248204Y3494532D01*
X2244953Y3496411D01*
X2241804Y3499205D01*
X2240076Y3503066D01*
X2240076Y3507333D01*
X2241804Y3511194D01*
X2244953Y3513988D01*
X2248204Y3515868D01*
X2261209Y3525570D01*
X2272944Y3536645D01*
X2283358Y3549040D01*
X2292248Y3562604D01*
X2299563Y3577031D01*
X2305100Y3592271D01*
X2308809Y3608019D01*
X2310688Y3624122D01*
X2310688Y3640277D01*
X2308809Y3656380D01*
X2305100Y3672128D01*
X2299563Y3687368D01*
X2292248Y3701796D01*
X2283358Y3715359D01*
X2272944Y3727754D01*
X2261209Y3738829D01*
X2248204Y3748532D01*
X2244953Y3750411D01*
X2241804Y3753205D01*
X2240076Y3757066D01*
X2240076Y3761333D01*
X2241804Y3765194D01*
X2244953Y3767988D01*
X2248204Y3769868D01*
X2261209Y3779570D01*
X2272944Y3790645D01*
X2283358Y3803040D01*
X2292248Y3816604D01*
X2299563Y3831031D01*
X2305100Y3846271D01*
X2308809Y3862019D01*
X2310688Y3878122D01*
X2310688Y3894277D01*
X2308809Y3910380D01*
X2305100Y3926128D01*
X2299563Y3941368D01*
X2292248Y3955796D01*
X2283358Y3969359D01*
X2272944Y3981754D01*
X2261209Y3992829D01*
X2248204Y4002532D01*
X2244953Y4004411D01*
X2241804Y4007205D01*
X2240076Y4011066D01*
X2240076Y4015333D01*
X2241804Y4019194D01*
X2244953Y4021988D01*
X2248204Y4023868D01*
X2261209Y4033570D01*
X2272944Y4044645D01*
X2283358Y4057040D01*
X2292248Y4070604D01*
X2299563Y4085031D01*
X2305100Y4100271D01*
X2308809Y4116019D01*
X2310688Y4132122D01*
X2310688Y4148277D01*
X2308809Y4164380D01*
X2305100Y4180128D01*
X2299563Y4195368D01*
X2292248Y4209796D01*
X2283358Y4223359D01*
X2272944Y4235754D01*
X2261209Y4246829D01*
X2248204Y4256532D01*
X2244953Y4258411D01*
X2241804Y4261205D01*
X2240076Y4265066D01*
X2240076Y4269333D01*
X2241804Y4273194D01*
X2244953Y4275988D01*
X2248204Y4277868D01*
X2261209Y4287570D01*
X2272944Y4298645D01*
X2283358Y4311040D01*
X2292248Y4324604D01*
X2299563Y4339031D01*
X2302967Y4348480D01*
X2217420Y4348480D01*
X2217420Y4285234D01*
X2216708Y4281525D01*
X2214727Y4278376D01*
X2211730Y4276090D01*
X2208072Y4275124D01*
X2203805Y4275683D01*
X2187854Y4278477D01*
X2171700Y4279442D01*
X2155545Y4278477D01*
X2139035Y4275531D01*
X2135327Y4275124D01*
X2131669Y4276090D01*
X2128672Y4278376D01*
X2126691Y4281525D01*
X2125980Y4285234D01*
X2125980Y4348480D01*
X2040432Y4348480D01*
X2043836Y4339031D01*
X2051151Y4324604D01*
X2060041Y4311040D01*
X2070455Y4298645D01*
X2082190Y4287570D01*
X2095195Y4277868D01*
X2098446Y4275988D01*
X2101596Y4273194D01*
X2103323Y4269333D01*
X2103323Y4265066D01*
X2101596Y4261205D01*
X2098446Y4258411D01*
X2095195Y4256532D01*
X2082190Y4246829D01*
X2070455Y4235754D01*
X2060041Y4223359D01*
X2051151Y4209796D01*
X2043836Y4195368D01*
X2038299Y4180128D01*
X2034590Y4164380D01*
X2032711Y4148277D01*
X2032711Y4132122D01*
X2034590Y4116019D01*
X2038299Y4100271D01*
X2043836Y4085031D01*
X2051151Y4070604D01*
X2060041Y4057040D01*
X2070455Y4044645D01*
X2082190Y4033570D01*
X2095195Y4023868D01*
X2098446Y4021988D01*
X2101596Y4019194D01*
X2103323Y4015333D01*
X2103323Y4011066D01*
X2101596Y4007205D01*
X2098446Y4004411D01*
X2095195Y4002532D01*
X2082190Y3992829D01*
X2070455Y3981754D01*
X2060041Y3969359D01*
X2051151Y3955796D01*
X2043836Y3941368D01*
X2038299Y3926128D01*
X2034590Y3910380D01*
X2032711Y3894277D01*
X2032711Y3878122D01*
X2034590Y3862019D01*
X2038299Y3846271D01*
X2043836Y3831031D01*
X2051151Y3816604D01*
X2060041Y3803040D01*
X2070455Y3790645D01*
X2082190Y3779570D01*
X2095195Y3769868D01*
X2098446Y3767988D01*
X2101596Y3765194D01*
X2103323Y3761333D01*
X2103323Y3757066D01*
X2101596Y3753205D01*
X2098446Y3750411D01*
X2095195Y3748532D01*
X2082190Y3738829D01*
X2070455Y3727754D01*
X2060041Y3715359D01*
X2051151Y3701796D01*
X2043836Y3687368D01*
X2038299Y3672128D01*
X2034590Y3656380D01*
X2032711Y3640277D01*
X2032711Y3624122D01*
X2034590Y3608019D01*
X2038299Y3592271D01*
X2043836Y3577031D01*
X2051151Y3562604D01*
X2060041Y3549040D01*
X2070455Y3536645D01*
X2082190Y3525570D01*
X2095195Y3515868D01*
X2098446Y3513988D01*
X2101596Y3511194D01*
X2103323Y3507333D01*
X2103323Y3503066D01*
X2101596Y3499205D01*
X2098446Y3496411D01*
X2095195Y3494532D01*
X2082190Y3484829D01*
X2070455Y3473754D01*
X2060041Y3461359D01*
X2051151Y3447796D01*
X2043836Y3433368D01*
X2038299Y3418128D01*
X2034590Y3402380D01*
X2032711Y3386277D01*
X2032711Y3370122D01*
X2034590Y3354019D01*
X2038299Y3338271D01*
X2043836Y3323031D01*
X2051151Y3308604D01*
X2060041Y3295040D01*
X2070455Y3282645D01*
X2082190Y3271570D01*
X2095195Y3261867D01*
X2098446Y3259988D01*
X2101596Y3257194D01*
X2103323Y3253333D01*
X2103323Y3249066D01*
X2101596Y3245205D01*
X2098446Y3242411D01*
X2095195Y3240532D01*
X2082190Y3230829D01*
X2070455Y3219754D01*
X2060041Y3207359D01*
X2051151Y3193796D01*
X2043836Y3179368D01*
G37*
G36*
X262432Y4439920D02*
G01*
X347980Y4439920D01*
X347980Y4503166D01*
X348691Y4506874D01*
X350672Y4510024D01*
X353669Y4512310D01*
X357327Y4513275D01*
X361594Y4512716D01*
X377545Y4509922D01*
X393700Y4508957D01*
X409854Y4509922D01*
X426364Y4512868D01*
X430072Y4513275D01*
X433730Y4512310D01*
X436727Y4510024D01*
X438708Y4506874D01*
X439420Y4503166D01*
X439420Y4439920D01*
X524967Y4439920D01*
X521563Y4449368D01*
X514248Y4463796D01*
X505358Y4477359D01*
X494944Y4489754D01*
X483209Y4500829D01*
X470204Y4510532D01*
X466953Y4512411D01*
X463804Y4515205D01*
X462076Y4519066D01*
X462076Y4523333D01*
X463804Y4527194D01*
X466953Y4529988D01*
X470204Y4531868D01*
X483209Y4541570D01*
X494944Y4552645D01*
X505358Y4565040D01*
X514248Y4578604D01*
X521563Y4593031D01*
X527100Y4608271D01*
X530809Y4624019D01*
X532688Y4640122D01*
X532688Y4656277D01*
X530809Y4672380D01*
X527100Y4688128D01*
X521563Y4703368D01*
X514248Y4717796D01*
X505358Y4731359D01*
X494944Y4743754D01*
X483209Y4754829D01*
X470204Y4764532D01*
X466953Y4766411D01*
X463804Y4769205D01*
X462076Y4773066D01*
X462076Y4777333D01*
X463804Y4781194D01*
X466953Y4783988D01*
X470204Y4785868D01*
X483209Y4795570D01*
X494944Y4806645D01*
X505358Y4819040D01*
X514248Y4832604D01*
X521563Y4847031D01*
X527100Y4862271D01*
X530809Y4878019D01*
X532688Y4894122D01*
X532688Y4910277D01*
X530809Y4926380D01*
X527100Y4942128D01*
X521563Y4957368D01*
X514248Y4971796D01*
X505358Y4985359D01*
X494944Y4997754D01*
X483209Y5008829D01*
X470204Y5018532D01*
X466953Y5020411D01*
X463804Y5023205D01*
X462076Y5027066D01*
X462076Y5031333D01*
X463804Y5035194D01*
X466953Y5037988D01*
X470204Y5039868D01*
X483209Y5049570D01*
X494944Y5060645D01*
X505358Y5073040D01*
X514248Y5086604D01*
X521563Y5101031D01*
X527100Y5116271D01*
X530809Y5132019D01*
X532688Y5148122D01*
X532688Y5164277D01*
X530809Y5180380D01*
X527100Y5196128D01*
X521563Y5211368D01*
X514248Y5225796D01*
X505358Y5239359D01*
X494944Y5251754D01*
X483209Y5262829D01*
X470204Y5272532D01*
X466953Y5274411D01*
X463804Y5277205D01*
X462076Y5281066D01*
X462076Y5285333D01*
X463804Y5289194D01*
X466953Y5291988D01*
X470204Y5293868D01*
X483209Y5303570D01*
X494944Y5314645D01*
X505358Y5327040D01*
X514248Y5340604D01*
X521563Y5355031D01*
X527100Y5370271D01*
X530809Y5386019D01*
X532688Y5402122D01*
X532688Y5418277D01*
X530809Y5434380D01*
X527100Y5450128D01*
X521563Y5465368D01*
X514248Y5479796D01*
X505358Y5493359D01*
X494944Y5505754D01*
X483209Y5516829D01*
X470204Y5526532D01*
X466953Y5528411D01*
X463804Y5531205D01*
X462076Y5535066D01*
X462076Y5539333D01*
X463804Y5543194D01*
X466953Y5545988D01*
X470204Y5547868D01*
X483209Y5557570D01*
X494944Y5568645D01*
X505358Y5581040D01*
X514248Y5594604D01*
X521563Y5609031D01*
X524967Y5618480D01*
X439420Y5618480D01*
X439420Y5555234D01*
X438708Y5551525D01*
X436727Y5548376D01*
X433730Y5546090D01*
X430072Y5545124D01*
X425805Y5545683D01*
X409854Y5548477D01*
X393700Y5549442D01*
X377545Y5548477D01*
X361035Y5545531D01*
X357327Y5545124D01*
X353669Y5546090D01*
X350672Y5548376D01*
X348691Y5551525D01*
X347980Y5555234D01*
X347980Y5618480D01*
X262432Y5618480D01*
X265836Y5609031D01*
X273151Y5594604D01*
X282041Y5581040D01*
X292455Y5568645D01*
X304190Y5557570D01*
X317195Y5547868D01*
X320446Y5545988D01*
X323596Y5543194D01*
X325323Y5539333D01*
X325323Y5535066D01*
X323596Y5531205D01*
X320446Y5528411D01*
X317195Y5526532D01*
X304190Y5516829D01*
X292455Y5505754D01*
X282041Y5493359D01*
X273151Y5479796D01*
X265836Y5465368D01*
X260299Y5450128D01*
X256590Y5434380D01*
X254711Y5418277D01*
X254711Y5402122D01*
X256590Y5386019D01*
X260299Y5370271D01*
X265836Y5355031D01*
X273151Y5340604D01*
X282041Y5327040D01*
X292455Y5314645D01*
X304190Y5303570D01*
X317195Y5293868D01*
X320446Y5291988D01*
X323596Y5289194D01*
X325323Y5285333D01*
X325323Y5281066D01*
X323596Y5277205D01*
X320446Y5274411D01*
X317195Y5272532D01*
X304190Y5262829D01*
X292455Y5251754D01*
X282041Y5239359D01*
X273151Y5225796D01*
X265836Y5211368D01*
X260299Y5196128D01*
X256590Y5180380D01*
X254711Y5164277D01*
X254711Y5148122D01*
X256590Y5132019D01*
X260299Y5116271D01*
X265836Y5101031D01*
X273151Y5086604D01*
X282041Y5073040D01*
X292455Y5060645D01*
X304190Y5049570D01*
X317195Y5039868D01*
X320446Y5037988D01*
X323596Y5035194D01*
X325323Y5031333D01*
X325323Y5027066D01*
X323596Y5023205D01*
X320446Y5020411D01*
X317195Y5018532D01*
X304190Y5008829D01*
X292455Y4997754D01*
X282041Y4985359D01*
X273151Y4971796D01*
X265836Y4957368D01*
X260299Y4942128D01*
X256590Y4926380D01*
X254711Y4910277D01*
X254711Y4894122D01*
X256590Y4878019D01*
X260299Y4862271D01*
X265836Y4847031D01*
X273151Y4832604D01*
X282041Y4819040D01*
X292455Y4806645D01*
X304190Y4795570D01*
X317195Y4785868D01*
X320446Y4783988D01*
X323596Y4781194D01*
X325323Y4777333D01*
X325323Y4773066D01*
X323596Y4769205D01*
X320446Y4766411D01*
X317195Y4764532D01*
X304190Y4754829D01*
X292455Y4743754D01*
X282041Y4731359D01*
X273151Y4717796D01*
X265836Y4703368D01*
X260299Y4688128D01*
X256590Y4672380D01*
X254711Y4656277D01*
X254711Y4640122D01*
X256590Y4624019D01*
X260299Y4608271D01*
X265836Y4593031D01*
X273151Y4578604D01*
X282041Y4565040D01*
X292455Y4552645D01*
X304190Y4541570D01*
X317195Y4531868D01*
X320446Y4529988D01*
X323596Y4527194D01*
X325323Y4523333D01*
X325323Y4519066D01*
X323596Y4515205D01*
X320446Y4512411D01*
X317195Y4510532D01*
X304190Y4500829D01*
X292455Y4489754D01*
X282041Y4477359D01*
X273151Y4463796D01*
X265836Y4449368D01*
G37*
G36*
X2040432Y4439920D02*
G01*
X2125980Y4439920D01*
X2125980Y4503166D01*
X2126691Y4506874D01*
X2128672Y4510024D01*
X2131669Y4512310D01*
X2135327Y4513275D01*
X2139594Y4512716D01*
X2155545Y4509922D01*
X2171700Y4508957D01*
X2187854Y4509922D01*
X2204364Y4512868D01*
X2208072Y4513275D01*
X2211730Y4512310D01*
X2214727Y4510024D01*
X2216708Y4506874D01*
X2217420Y4503166D01*
X2217420Y4439920D01*
X2302967Y4439920D01*
X2299563Y4449368D01*
X2292248Y4463796D01*
X2283358Y4477359D01*
X2272944Y4489754D01*
X2261209Y4500829D01*
X2248204Y4510532D01*
X2244953Y4512411D01*
X2241804Y4515205D01*
X2240076Y4519066D01*
X2240076Y4523333D01*
X2241804Y4527194D01*
X2244953Y4529988D01*
X2248204Y4531868D01*
X2261209Y4541570D01*
X2272944Y4552645D01*
X2283358Y4565040D01*
X2292248Y4578604D01*
X2299563Y4593031D01*
X2305100Y4608271D01*
X2308809Y4624019D01*
X2310688Y4640122D01*
X2310688Y4656277D01*
X2308809Y4672380D01*
X2305100Y4688128D01*
X2299563Y4703368D01*
X2292248Y4717796D01*
X2283358Y4731359D01*
X2272944Y4743754D01*
X2261209Y4754829D01*
X2248204Y4764532D01*
X2244953Y4766411D01*
X2241804Y4769205D01*
X2240076Y4773066D01*
X2240076Y4777333D01*
X2241804Y4781194D01*
X2244953Y4783988D01*
X2248204Y4785868D01*
X2261209Y4795570D01*
X2272944Y4806645D01*
X2283358Y4819040D01*
X2292248Y4832604D01*
X2299563Y4847031D01*
X2305100Y4862271D01*
X2308809Y4878019D01*
X2310688Y4894122D01*
X2310688Y4910277D01*
X2308809Y4926380D01*
X2305100Y4942128D01*
X2299563Y4957368D01*
X2292248Y4971796D01*
X2283358Y4985359D01*
X2272944Y4997754D01*
X2261209Y5008829D01*
X2248204Y5018532D01*
X2244953Y5020411D01*
X2241804Y5023205D01*
X2240076Y5027066D01*
X2240076Y5031333D01*
X2241804Y5035194D01*
X2244953Y5037988D01*
X2248204Y5039868D01*
X2261209Y5049570D01*
X2272944Y5060645D01*
X2283358Y5073040D01*
X2292248Y5086604D01*
X2299563Y5101031D01*
X2305100Y5116271D01*
X2308809Y5132019D01*
X2310688Y5148122D01*
X2310688Y5164277D01*
X2308809Y5180380D01*
X2305100Y5196128D01*
X2299563Y5211368D01*
X2292248Y5225796D01*
X2283358Y5239359D01*
X2272944Y5251754D01*
X2261209Y5262829D01*
X2248204Y5272532D01*
X2244953Y5274411D01*
X2241804Y5277205D01*
X2240076Y5281066D01*
X2240076Y5285333D01*
X2241804Y5289194D01*
X2244953Y5291988D01*
X2248204Y5293868D01*
X2261209Y5303570D01*
X2272944Y5314645D01*
X2283358Y5327040D01*
X2292248Y5340604D01*
X2299563Y5355031D01*
X2305100Y5370271D01*
X2308809Y5386019D01*
X2310688Y5402122D01*
X2310688Y5418277D01*
X2308809Y5434380D01*
X2305100Y5450128D01*
X2299563Y5465368D01*
X2292248Y5479796D01*
X2283358Y5493359D01*
X2272944Y5505754D01*
X2261209Y5516829D01*
X2248204Y5526532D01*
X2244953Y5528411D01*
X2241804Y5531205D01*
X2240076Y5535066D01*
X2240076Y5539333D01*
X2241804Y5543194D01*
X2244953Y5545988D01*
X2248204Y5547868D01*
X2261209Y5557570D01*
X2272944Y5568645D01*
X2283358Y5581040D01*
X2292248Y5594604D01*
X2299563Y5609031D01*
X2302967Y5618480D01*
X2217420Y5618480D01*
X2217420Y5555234D01*
X2216708Y5551525D01*
X2214727Y5548376D01*
X2211730Y5546090D01*
X2208072Y5545124D01*
X2203805Y5545683D01*
X2187854Y5548477D01*
X2171700Y5549442D01*
X2155545Y5548477D01*
X2139035Y5545531D01*
X2135327Y5545124D01*
X2131669Y5546090D01*
X2128672Y5548376D01*
X2126691Y5551525D01*
X2125980Y5555234D01*
X2125980Y5618480D01*
X2040432Y5618480D01*
X2043836Y5609031D01*
X2051151Y5594604D01*
X2060041Y5581040D01*
X2070455Y5568645D01*
X2082190Y5557570D01*
X2095195Y5547868D01*
X2098446Y5545988D01*
X2101596Y5543194D01*
X2103323Y5539333D01*
X2103323Y5535066D01*
X2101596Y5531205D01*
X2098446Y5528411D01*
X2095195Y5526532D01*
X2082190Y5516829D01*
X2070455Y5505754D01*
X2060041Y5493359D01*
X2051151Y5479796D01*
X2043836Y5465368D01*
X2038299Y5450128D01*
X2034590Y5434380D01*
X2032711Y5418277D01*
X2032711Y5402122D01*
X2034590Y5386019D01*
X2038299Y5370271D01*
X2043836Y5355031D01*
X2051151Y5340604D01*
X2060041Y5327040D01*
X2070455Y5314645D01*
X2082190Y5303570D01*
X2095195Y5293868D01*
X2098446Y5291988D01*
X2101596Y5289194D01*
X2103323Y5285333D01*
X2103323Y5281066D01*
X2101596Y5277205D01*
X2098446Y5274411D01*
X2095195Y5272532D01*
X2082190Y5262829D01*
X2070455Y5251754D01*
X2060041Y5239359D01*
X2051151Y5225796D01*
X2043836Y5211368D01*
X2038299Y5196128D01*
X2034590Y5180380D01*
X2032711Y5164277D01*
X2032711Y5148122D01*
X2034590Y5132019D01*
X2038299Y5116271D01*
X2043836Y5101031D01*
X2051151Y5086604D01*
X2060041Y5073040D01*
X2070455Y5060645D01*
X2082190Y5049570D01*
X2095195Y5039868D01*
X2098446Y5037988D01*
X2101596Y5035194D01*
X2103323Y5031333D01*
X2103323Y5027066D01*
X2101596Y5023205D01*
X2098446Y5020411D01*
X2095195Y5018532D01*
X2082190Y5008829D01*
X2070455Y4997754D01*
X2060041Y4985359D01*
X2051151Y4971796D01*
X2043836Y4957368D01*
X2038299Y4942128D01*
X2034590Y4926380D01*
X2032711Y4910277D01*
X2032711Y4894122D01*
X2034590Y4878019D01*
X2038299Y4862271D01*
X2043836Y4847031D01*
X2051151Y4832604D01*
X2060041Y4819040D01*
X2070455Y4806645D01*
X2082190Y4795570D01*
X2095195Y4785868D01*
X2098446Y4783988D01*
X2101596Y4781194D01*
X2103323Y4777333D01*
X2103323Y4773066D01*
X2101596Y4769205D01*
X2098446Y4766411D01*
X2095195Y4764532D01*
X2082190Y4754829D01*
X2070455Y4743754D01*
X2060041Y4731359D01*
X2051151Y4717796D01*
X2043836Y4703368D01*
X2038299Y4688128D01*
X2034590Y4672380D01*
X2032711Y4656277D01*
X2032711Y4640122D01*
X2034590Y4624019D01*
X2038299Y4608271D01*
X2043836Y4593031D01*
X2051151Y4578604D01*
X2060041Y4565040D01*
X2070455Y4552645D01*
X2082190Y4541570D01*
X2095195Y4531868D01*
X2098446Y4529988D01*
X2101596Y4527194D01*
X2103323Y4523333D01*
X2103323Y4519066D01*
X2101596Y4515205D01*
X2098446Y4512411D01*
X2095195Y4510532D01*
X2082190Y4500829D01*
X2070455Y4489754D01*
X2060041Y4477359D01*
X2051151Y4463796D01*
X2043836Y4449368D01*
G37*
G36*
X6268720Y5760720D02*
G01*
X6362242Y5760720D01*
X6362242Y5793333D01*
X6361480Y5803188D01*
X6359245Y5812434D01*
X6355638Y5821172D01*
X6350660Y5829300D01*
X6344513Y5836513D01*
X6337300Y5842660D01*
X6329172Y5847638D01*
X6320434Y5851245D01*
X6311188Y5853480D01*
X6301333Y5854242D01*
X6268720Y5854242D01*
G37*
G36*
X6083757Y5760720D02*
G01*
X6177280Y5760720D01*
X6177280Y5854242D01*
X6144666Y5854242D01*
X6134811Y5853480D01*
X6125565Y5851245D01*
X6116828Y5847638D01*
X6108700Y5842660D01*
X6101486Y5836513D01*
X6095339Y5829300D01*
X6090361Y5821172D01*
X6086754Y5812434D01*
X6084519Y5803188D01*
X6083757Y5793333D01*
G37*
G36*
X6177280Y6345580D02*
G01*
X6177280Y6431280D01*
X6091732Y6431280D01*
X6095136Y6421831D01*
X6102451Y6407404D01*
X6111341Y6393840D01*
X6121755Y6381445D01*
X6133490Y6370370D01*
X6146495Y6360668D01*
X6160516Y6352590D01*
X6175400Y6346190D01*
G37*
G36*
X6268720Y6345580D02*
G01*
X6270599Y6346190D01*
X6285484Y6352590D01*
X6299504Y6360668D01*
X6312509Y6370370D01*
X6324244Y6381445D01*
X6334658Y6393840D01*
X6343548Y6407404D01*
X6350863Y6421831D01*
X6354267Y6431280D01*
X6268720Y6431280D01*
G37*
G36*
X262432Y6979920D02*
G01*
X347980Y6979920D01*
X347980Y7043166D01*
X348691Y7046874D01*
X350672Y7050024D01*
X353669Y7052309D01*
X357327Y7053275D01*
X361594Y7052716D01*
X377545Y7049922D01*
X393700Y7048957D01*
X409854Y7049922D01*
X426364Y7052868D01*
X430072Y7053275D01*
X433730Y7052309D01*
X436727Y7050024D01*
X438708Y7046874D01*
X439420Y7043166D01*
X439420Y6979920D01*
X524967Y6979920D01*
X521563Y6989368D01*
X514248Y7003796D01*
X505358Y7017359D01*
X494944Y7029754D01*
X483209Y7040829D01*
X470204Y7050531D01*
X466953Y7052411D01*
X463804Y7055205D01*
X462076Y7059066D01*
X462076Y7063333D01*
X463804Y7067194D01*
X466953Y7069988D01*
X470204Y7071868D01*
X483209Y7081570D01*
X494944Y7092645D01*
X500329Y7099046D01*
X503834Y7101738D01*
X508152Y7102703D01*
X698296Y7102703D01*
X704596Y7102906D01*
X710692Y7103567D01*
X716686Y7104634D01*
X722579Y7106158D01*
X728370Y7108088D01*
X734009Y7110425D01*
X739495Y7113168D01*
X744728Y7116267D01*
X749757Y7119772D01*
X754481Y7123582D01*
X759104Y7127849D01*
X1466646Y7835392D01*
X1469491Y7837424D01*
X1472844Y7838338D01*
X1476298Y7838084D01*
X1481683Y7836712D01*
X1498549Y7834375D01*
X1515567Y7833918D01*
X1532534Y7835290D01*
X1549247Y7838541D01*
X1565452Y7843672D01*
X1581048Y7850479D01*
X1595780Y7859014D01*
X1609496Y7869072D01*
X1622044Y7880603D01*
X1633220Y7893456D01*
X1642922Y7907426D01*
X1651000Y7922361D01*
X1657400Y7938160D01*
X1662023Y7954518D01*
X1664817Y7971332D01*
X1665782Y7988300D01*
X1664817Y8005318D01*
X1662023Y8022081D01*
X1657400Y8038439D01*
X1651000Y8054238D01*
X1642922Y8069173D01*
X1633220Y8083194D01*
X1622044Y8095996D01*
X1609496Y8107527D01*
X1595780Y8117636D01*
X1581048Y8126120D01*
X1565452Y8132978D01*
X1549247Y8138058D01*
X1532534Y8141309D01*
X1515567Y8142731D01*
X1498549Y8142224D01*
X1481683Y8139887D01*
X1465173Y8135721D01*
X1449273Y8129778D01*
X1434084Y8122056D01*
X1419809Y8112759D01*
X1406702Y8101939D01*
X1394815Y8089747D01*
X1384350Y8076336D01*
X1375460Y8061807D01*
X1368196Y8046415D01*
X1362659Y8030362D01*
X1358950Y8013750D01*
X1357071Y7996834D01*
X1357071Y7979816D01*
X1357731Y7973771D01*
X1357223Y7969250D01*
X1354836Y7965440D01*
X666038Y7276693D01*
X662787Y7274458D01*
X658876Y7273696D01*
X508152Y7273696D01*
X503834Y7274661D01*
X500329Y7277353D01*
X494944Y7283754D01*
X488848Y7289495D01*
X486511Y7292797D01*
X485648Y7296708D01*
X486409Y7300671D01*
X488594Y7304024D01*
X491947Y7306309D01*
X499872Y7309561D01*
X508000Y7314539D01*
X515213Y7320686D01*
X521360Y7327900D01*
X526338Y7336028D01*
X529945Y7344765D01*
X532180Y7354011D01*
X532942Y7363866D01*
X532942Y7520533D01*
X532180Y7530388D01*
X529945Y7539634D01*
X526338Y7548372D01*
X521360Y7556500D01*
X515213Y7563713D01*
X508000Y7569860D01*
X499872Y7574838D01*
X491134Y7578445D01*
X481888Y7580680D01*
X472033Y7581442D01*
X315366Y7581442D01*
X305511Y7580680D01*
X296265Y7578445D01*
X287528Y7574838D01*
X279400Y7569860D01*
X272186Y7563713D01*
X266039Y7556500D01*
X261061Y7548372D01*
X257454Y7539634D01*
X255219Y7530388D01*
X254457Y7520533D01*
X254457Y7363866D01*
X255219Y7354011D01*
X257454Y7344765D01*
X261061Y7336028D01*
X266039Y7327900D01*
X272186Y7320686D01*
X279400Y7314539D01*
X287528Y7309561D01*
X295452Y7306309D01*
X298805Y7304024D01*
X300990Y7300671D01*
X301752Y7296708D01*
X300888Y7292797D01*
X298551Y7289495D01*
X292455Y7283754D01*
X282041Y7271359D01*
X273151Y7257796D01*
X265836Y7243368D01*
X260299Y7228128D01*
X256590Y7212380D01*
X254711Y7196277D01*
X254711Y7180122D01*
X256590Y7164019D01*
X260299Y7148271D01*
X265836Y7133031D01*
X273151Y7118603D01*
X282041Y7105040D01*
X292455Y7092645D01*
X304190Y7081570D01*
X317195Y7071868D01*
X320446Y7069988D01*
X323596Y7067194D01*
X325323Y7063333D01*
X325323Y7059066D01*
X323596Y7055205D01*
X320446Y7052411D01*
X317195Y7050531D01*
X304190Y7040829D01*
X292455Y7029754D01*
X282041Y7017359D01*
X273151Y7003796D01*
X265836Y6989368D01*
G37*
G36*
X533400Y7650988D02*
G01*
X553974Y7651953D01*
X574395Y7654798D01*
X594410Y7659522D01*
X613968Y7666075D01*
X632815Y7674406D01*
X650798Y7684414D01*
X667766Y7696047D01*
X683615Y7709204D01*
X698195Y7723784D01*
X711352Y7739634D01*
X722985Y7756601D01*
X732993Y7774584D01*
X741324Y7793431D01*
X747877Y7812989D01*
X752602Y7833004D01*
X755446Y7853425D01*
X756412Y7874000D01*
X755446Y7894574D01*
X752602Y7914995D01*
X747877Y7935010D01*
X741324Y7954568D01*
X732993Y7973415D01*
X722985Y7991398D01*
X711352Y8008366D01*
X698195Y8024215D01*
X683615Y8038795D01*
X667766Y8051952D01*
X650798Y8063585D01*
X632815Y8073593D01*
X613968Y8081924D01*
X594410Y8088477D01*
X574395Y8093202D01*
X553974Y8096046D01*
X533400Y8097012D01*
X512826Y8096046D01*
X492404Y8093202D01*
X472389Y8088477D01*
X452831Y8081924D01*
X433984Y8073593D01*
X416001Y8063585D01*
X399034Y8051952D01*
X383184Y8038795D01*
X368604Y8024215D01*
X355447Y8008366D01*
X343814Y7991398D01*
X333806Y7973415D01*
X325475Y7954568D01*
X318922Y7935010D01*
X314198Y7914995D01*
X311353Y7894574D01*
X310388Y7874000D01*
X311353Y7853425D01*
X314198Y7833004D01*
X318922Y7812989D01*
X325475Y7793431D01*
X333806Y7774584D01*
X343814Y7756601D01*
X355447Y7739634D01*
X368604Y7723784D01*
X383184Y7709204D01*
X399034Y7696047D01*
X416001Y7684414D01*
X433984Y7674406D01*
X452831Y7666075D01*
X472389Y7659522D01*
X492404Y7654798D01*
X512826Y7651953D01*
G37*
G36*
X6111392Y7663738D02*
G01*
X6131407Y7663738D01*
X6151372Y7665669D01*
X6171031Y7669428D01*
X6190234Y7675067D01*
X6208826Y7682534D01*
X6226657Y7691729D01*
X6243472Y7702550D01*
X6259220Y7714945D01*
X6273749Y7728762D01*
X6286855Y7743901D01*
X6298488Y7760208D01*
X6308496Y7777530D01*
X6316827Y7795768D01*
X6323380Y7814716D01*
X6328105Y7834172D01*
X6330950Y7853984D01*
X6331915Y7874000D01*
X6330950Y7894015D01*
X6328105Y7913827D01*
X6323380Y7933283D01*
X6316827Y7952231D01*
X6308496Y7970469D01*
X6298488Y7987792D01*
X6286855Y8004098D01*
X6273749Y8019237D01*
X6259220Y8033054D01*
X6243472Y8045450D01*
X6226657Y8056270D01*
X6208826Y8065465D01*
X6190234Y8072932D01*
X6171031Y8078571D01*
X6151372Y8082330D01*
X6131407Y8084261D01*
X6111392Y8084261D01*
X6091428Y8082330D01*
X6071768Y8078571D01*
X6052566Y8072932D01*
X6033973Y8065465D01*
X6016142Y8056270D01*
X5999327Y8045450D01*
X5983579Y8033054D01*
X5969050Y8019237D01*
X5955944Y8004098D01*
X5944311Y7987792D01*
X5934303Y7970469D01*
X5925972Y7952231D01*
X5919419Y7933283D01*
X5914694Y7913827D01*
X5911850Y7894015D01*
X5910884Y7874000D01*
X5911850Y7853984D01*
X5914694Y7834172D01*
X5919419Y7814716D01*
X5925972Y7795768D01*
X5934303Y7777530D01*
X5944311Y7760208D01*
X5955944Y7743901D01*
X5969050Y7728762D01*
X5983579Y7714945D01*
X5999327Y7702550D01*
X6016142Y7691729D01*
X6033973Y7682534D01*
X6052566Y7675067D01*
X6071768Y7669428D01*
X6091428Y7665669D01*
G37*

%LPD*%
D10*
X3657600Y-127000D02*
G01*
X3657600Y2679700D01*
X3949700Y2971800D01*
X3949700Y5295900D01*
X3073400Y6172200D01*
X2921000Y6172200D01*
X393700Y6172200D02*
G01*
X546100Y6172200D01*
X889000Y6515100D01*
X889000Y6997700D01*
X1943100Y8051800D01*
X5029200Y8051800D01*
X6096000Y6985000D01*
X6223000Y6985000D01*
X4445000Y7442200D02*
G01*
X4127500Y7442200D01*
X3898900Y7670800D01*
X2794000Y7670800D01*
X2311400Y7188200D01*
X2171700Y7188200D01*
X3911600Y-127000D02*
G01*
X3911600Y2641600D01*
X4152900Y2882900D01*
X4152900Y5600700D01*
X3073400Y6680200D01*
X2921000Y6680200D01*
X4457700Y4648200D02*
G01*
X5524500Y4648200D01*
X6083300Y5207000D01*
X6223000Y5207000D01*
X1435100Y7277100D02*
G01*
X2082800Y7924800D01*
X4914900Y7924800D01*
X6108700Y6731000D01*
X6223000Y6731000D01*
X2171700Y6426200D02*
G01*
X2019300Y6426200D01*
X1638300Y6807200D01*
X1638300Y7264400D01*
X2171700Y7797800D01*
X4876800Y7797800D01*
X5130800Y7543800D01*
X5130800Y7239000D01*
X393700Y5918200D02*
G01*
X546100Y5918200D01*
X1016000Y6388100D01*
X1016000Y6858000D01*
X1435100Y7277100D01*
X4457700Y7442200D02*
G01*
X4572000Y7442200D01*
X5753100Y6261100D01*
X5753100Y5753100D01*
X6045200Y5461000D01*
X6223000Y5461000D01*
D11*
X1092200Y2184400D02*
G01*
X1384300Y1892300D01*
X1384300Y-225044D01*
X1387855Y-228600D01*
D10*
X698500Y7188200D02*
G01*
X1498600Y7988300D01*
X1511300Y7988300D01*
X2921000Y3124200D02*
G01*
X2946400Y3098800D01*
X3581400Y3098800D01*
X2921000Y3378200D02*
G01*
X2946400Y3403600D01*
X3771900Y3403600D01*
X393700Y6934200D02*
G01*
X673100Y6934200D01*
X4445000Y7188200D02*
G01*
X4165600Y7188200D01*
X2667000Y2870200D02*
G01*
X2921000Y2870200D01*
X393700Y7188200D02*
G01*
X698500Y7188200D01*
D12*
X6045200Y1679953D02*
G01*
X5308600Y1676400D01*
X5041900Y1409700D01*
X5041900Y469900D01*
X6045200Y1024638D02*
G01*
X6311900Y1291338D01*
X6350000Y1333500D01*
X6045200Y2180846D02*
G01*
X6045200Y2184400D01*
X6350000Y1879600D01*
X6350000Y1333500D01*
X5041900Y469900D02*
G01*
X6045200Y469900D01*
X6045200Y524761D01*
X5041900Y2184400D02*
G01*
X6045200Y2184400D01*
X6045200Y2180846D01*
D13*
G01*
X1092200Y2184400D03*
G01*
X6223000Y7239000D03*
D14*
G01*
X6223000Y6985000D03*
G01*
X6223000Y6731000D03*
G01*
X6223000Y6477000D03*
G01*
X6223000Y3429000D03*
G01*
X6223000Y3175000D03*
D13*
G01*
X6223000Y2921000D03*
D15*
G01*
X6045200Y1088186D03*
G01*
X6045200Y588187D03*
D14*
G01*
X6223000Y5207000D03*
G01*
X6223000Y5461000D03*
D13*
G01*
X6223000Y5715000D03*
G01*
X1092200Y469900D03*
D14*
G01*
X393700Y2616200D03*
G01*
X393700Y2870200D03*
G01*
X393700Y3124200D03*
G01*
X393700Y3378200D03*
G01*
X393700Y3632200D03*
G01*
X393700Y3886200D03*
G01*
X393700Y4140200D03*
G01*
X393700Y4394200D03*
G01*
X393700Y4648200D03*
G01*
X393700Y4902200D03*
G01*
X393700Y5156200D03*
G01*
X393700Y5410200D03*
G01*
X393700Y5664200D03*
G01*
X393700Y5918200D03*
G01*
X393700Y6172200D03*
G01*
X393700Y6426200D03*
G01*
X393700Y6680200D03*
G01*
X393700Y6934200D03*
G01*
X393700Y7188200D03*
D13*
G01*
X393700Y7442200D03*
D14*
G01*
X2171700Y7442200D03*
G01*
X2171700Y7188200D03*
G01*
X2171700Y6934200D03*
G01*
X2171700Y6680200D03*
G01*
X2171700Y6426200D03*
G01*
X2171700Y6172200D03*
G01*
X2171700Y5918200D03*
G01*
X2171700Y5664200D03*
G01*
X2171700Y5410200D03*
G01*
X2171700Y5156200D03*
G01*
X2171700Y4902200D03*
G01*
X2171700Y4648200D03*
G01*
X2171700Y4394200D03*
G01*
X2171700Y4140200D03*
G01*
X2171700Y3886200D03*
G01*
X2171700Y3632200D03*
G01*
X2171700Y3378200D03*
G01*
X2171700Y3124200D03*
G01*
X2171700Y2870200D03*
D13*
G01*
X2171700Y2616200D03*
D14*
G01*
X2921000Y2616200D03*
G01*
X2921000Y2870200D03*
G01*
X2921000Y3124200D03*
G01*
X2921000Y3378200D03*
G01*
X2921000Y3632200D03*
G01*
X2921000Y3886200D03*
G01*
X2921000Y4140200D03*
G01*
X2921000Y4394200D03*
G01*
X2921000Y4648200D03*
G01*
X2921000Y4902200D03*
G01*
X2921000Y5156200D03*
G01*
X2921000Y5410200D03*
G01*
X2921000Y5664200D03*
G01*
X2921000Y5918200D03*
G01*
X2921000Y6172200D03*
G01*
X2921000Y6426200D03*
G01*
X2921000Y6680200D03*
G01*
X2921000Y6934200D03*
G01*
X2921000Y7188200D03*
D13*
G01*
X2921000Y7442200D03*
D14*
G01*
X4457700Y7442200D03*
G01*
X4457700Y7188200D03*
G01*
X4457700Y6934200D03*
G01*
X4457700Y6680200D03*
G01*
X4457700Y6426200D03*
G01*
X4457700Y6172200D03*
G01*
X4457700Y5918200D03*
G01*
X4457700Y5664200D03*
G01*
X4457700Y5410200D03*
G01*
X4457700Y5156200D03*
G01*
X4457700Y4902200D03*
G01*
X4457700Y4648200D03*
G01*
X4457700Y4394200D03*
G01*
X4457700Y4140200D03*
G01*
X4457700Y3886200D03*
G01*
X4457700Y3632200D03*
G01*
X4457700Y3378200D03*
G01*
X4457700Y3124200D03*
G01*
X4457700Y2870200D03*
D13*
G01*
X4457700Y2616200D03*
G01*
X5041900Y469900D03*
G01*
X5041900Y2184400D03*
D14*
G01*
X2895600Y-127000D03*
G01*
X3149600Y-127000D03*
G01*
X3403600Y-127000D03*
G01*
X3657600Y-127000D03*
D13*
G01*
X3911600Y-127000D03*
D16*
G01*
X1387855Y-228600D03*
G01*
X1888744Y-228600D03*
D17*
G01*
X6045200Y1679955D03*
G01*
X6045200Y2180844D03*
D18*
G01*
X1511300Y7988300D03*
D19*
G01*
X3771900Y3403600D03*
G01*
X3581400Y3098800D03*
D20*
G01*
X5130800Y7239000D03*
D21*
G01*
X1892300Y469900D03*
G01*
X2667000Y2870200D03*
G01*
X5715000Y2603500D03*
G01*
X673100Y6934200D03*
G01*
X4165600Y7188200D03*
G01*
X4953000Y7429500D03*
G01*
X4953000Y6654800D03*
G01*
X4953000Y5918200D03*
G01*
X4953000Y5143500D03*
G01*
X5715000Y5143500D03*
G01*
X4953000Y4381500D03*
G01*
X5715000Y4381500D03*
G01*
X4953000Y3619500D03*
G01*
X5715000Y3619500D03*
G01*
X4445000Y1320800D03*
G01*
X1892300Y1244600D03*
G01*
X1866900Y6934200D03*
G01*
X647700Y3124200D03*
G01*
X1930400Y3124200D03*
G01*
X1930400Y4394200D03*
G01*
X1930400Y5664200D03*
G01*
X647700Y4394200D03*
G01*
X647700Y5664200D03*
G01*
X4445000Y635000D03*
G01*
X4445000Y-127000D03*
G01*
X2667000Y1244600D03*
G01*
X2667000Y469900D03*
G01*
X2667000Y2133600D03*
G01*
X1892300Y2133600D03*
G01*
X5080000Y-127000D03*
G01*
X5702300Y-127000D03*
G01*
X5727700Y6654800D03*
G01*
X6223000Y6096000D03*
M02*
