G04 Layer: TopSilkscreenLayer*
G04 EasyEDA v6.5.42, 2024-04-17 10:54:12*
G04 b58fe179de73491898139d20c7eecbb3,24a069b98e7845178fa3f65ba4aff580,10*
G04 Gerber Generator version 0.2*
G04 Scale: 100 percent, Rotated: No, Reflected: No *
G04 Dimensions in millimeters *
G04 leading zeros omitted , absolute positions ,4 integer and 5 decimal *
%FSLAX45Y45*%
%MOMM*%

%ADD10C,0.2000*%
%ADD11C,0.2030*%
%ADD12C,0.2032*%
%ADD13C,0.2030*%
%ADD14C,0.2540*%
%ADD15C,0.0144*%

%LPD*%
D10*
X6430009Y6488684D02*
G01*
X6426200Y6496050D01*
X6419088Y6503415D01*
X6411722Y6506971D01*
X6397243Y6506971D01*
X6389877Y6503415D01*
X6382765Y6496050D01*
X6378956Y6488684D01*
X6375400Y6477762D01*
X6375400Y6459728D01*
X6378956Y6448805D01*
X6382765Y6441439D01*
X6389877Y6434073D01*
X6397243Y6430518D01*
X6411722Y6430518D01*
X6419088Y6434073D01*
X6426200Y6441439D01*
X6430009Y6448805D01*
X6430009Y6459728D01*
X6411722Y6459728D02*
G01*
X6430009Y6459728D01*
X6453886Y6506971D02*
G01*
X6453886Y6430518D01*
X6453886Y6506971D02*
G01*
X6504940Y6430518D01*
X6504940Y6506971D02*
G01*
X6504940Y6430518D01*
X6528815Y6506971D02*
G01*
X6528815Y6430518D01*
X6528815Y6506971D02*
G01*
X6554215Y6506971D01*
X6565138Y6503415D01*
X6572504Y6496050D01*
X6576059Y6488684D01*
X6579870Y6477762D01*
X6579870Y6459728D01*
X6576059Y6448805D01*
X6572504Y6441439D01*
X6565138Y6434073D01*
X6554215Y6430518D01*
X6528815Y6430518D01*
X5880354Y6579870D02*
G01*
X5871209Y6570471D01*
X5866384Y6556755D01*
X5866384Y6538213D01*
X5871209Y6524244D01*
X5880354Y6515100D01*
X5889497Y6515100D01*
X5898895Y6519671D01*
X5903468Y6524244D01*
X5908040Y6533642D01*
X5917184Y6561328D01*
X5922009Y6570471D01*
X5926581Y6575044D01*
X5935725Y6579870D01*
X5949695Y6579870D01*
X5958840Y6570471D01*
X5963411Y6556755D01*
X5963411Y6538213D01*
X5958840Y6524244D01*
X5949695Y6515100D01*
X5866384Y6610350D02*
G01*
X5963411Y6610350D01*
X5866384Y6610350D02*
G01*
X5866384Y6642608D01*
X5871209Y6656323D01*
X5880354Y6665721D01*
X5889497Y6670294D01*
X5903468Y6674865D01*
X5926581Y6674865D01*
X5940297Y6670294D01*
X5949695Y6665721D01*
X5958840Y6656323D01*
X5963411Y6642608D01*
X5963411Y6610350D01*
X2909315Y207010D02*
G01*
X2901950Y203200D01*
X2894584Y196087D01*
X2891027Y188721D01*
X2891027Y174244D01*
X2894584Y166878D01*
X2901950Y159765D01*
X2909315Y155955D01*
X2920238Y152400D01*
X2938272Y152400D01*
X2949193Y155955D01*
X2956559Y159765D01*
X2963925Y166878D01*
X2967481Y174244D01*
X2967481Y188721D01*
X2963925Y196087D01*
X2956559Y203200D01*
X2949193Y207010D01*
X2938272Y207010D01*
X2938272Y188721D02*
G01*
X2938272Y207010D01*
X2891027Y230886D02*
G01*
X2967481Y230886D01*
X2891027Y230886D02*
G01*
X2967481Y281939D01*
X2891027Y281939D02*
G01*
X2967481Y281939D01*
X2891027Y305815D02*
G01*
X2967481Y305815D01*
X2891027Y305815D02*
G01*
X2891027Y331215D01*
X2894584Y342137D01*
X2901950Y349504D01*
X2909315Y353060D01*
X2920238Y356870D01*
X2938272Y356870D01*
X2949193Y353060D01*
X2956559Y349504D01*
X2963925Y342137D01*
X2967481Y331215D01*
X2967481Y305815D01*
X3314700Y420115D02*
G01*
X3314700Y323087D01*
X3314700Y420115D02*
G01*
X3351529Y323087D01*
X3388613Y420115D02*
G01*
X3351529Y323087D01*
X3388613Y420115D02*
G01*
X3388613Y323087D01*
X3419093Y420115D02*
G01*
X3419093Y323087D01*
X3419093Y420115D02*
G01*
X3451352Y420115D01*
X3465322Y415289D01*
X3474465Y406145D01*
X3479038Y397002D01*
X3483609Y383031D01*
X3483609Y359918D01*
X3479038Y346202D01*
X3474465Y336804D01*
X3465322Y327660D01*
X3451352Y323087D01*
X3419093Y323087D01*
X3514090Y401573D02*
G01*
X3523488Y406145D01*
X3537204Y420115D01*
X3537204Y323087D01*
X5559806Y723900D02*
G01*
X5556250Y731265D01*
X5545327Y742187D01*
X5621781Y742187D01*
X5563615Y769620D02*
G01*
X5559806Y769620D01*
X5552693Y773429D01*
X5548884Y776986D01*
X5545327Y784352D01*
X5545327Y798829D01*
X5548884Y806195D01*
X5552693Y809752D01*
X5559806Y813307D01*
X5567172Y813307D01*
X5574538Y809752D01*
X5585459Y802386D01*
X5621781Y766063D01*
X5621781Y816863D01*
X5545327Y840994D02*
G01*
X5621781Y870204D01*
X5545327Y899160D02*
G01*
X5621781Y870204D01*
X5647181Y923289D02*
G01*
X5647181Y988568D01*
X5545327Y1012697D02*
G01*
X5621781Y1012697D01*
X5545327Y1036573D02*
G01*
X5621781Y1036573D01*
X5545327Y1036573D02*
G01*
X5621781Y1087628D01*
X5545327Y1087628D02*
G01*
X5621781Y1087628D01*
X5356606Y1638300D02*
G01*
X5353050Y1645665D01*
X5342127Y1656587D01*
X5418581Y1656587D01*
X5360415Y1684020D02*
G01*
X5356606Y1684020D01*
X5349493Y1687829D01*
X5345684Y1691386D01*
X5342127Y1698752D01*
X5342127Y1713229D01*
X5345684Y1720595D01*
X5349493Y1724152D01*
X5356606Y1727707D01*
X5363972Y1727707D01*
X5371338Y1724152D01*
X5382259Y1716786D01*
X5418581Y1680463D01*
X5418581Y1731263D01*
X5342127Y1755394D02*
G01*
X5418581Y1784604D01*
X5342127Y1813560D02*
G01*
X5418581Y1784604D01*
X5443981Y1837689D02*
G01*
X5443981Y1902968D01*
X5342127Y1948942D02*
G01*
X5345684Y1941576D01*
X5353050Y1934210D01*
X5360415Y1930654D01*
X5371338Y1927097D01*
X5389372Y1927097D01*
X5400293Y1930654D01*
X5407659Y1934210D01*
X5415025Y1941576D01*
X5418581Y1948942D01*
X5418581Y1963420D01*
X5415025Y1970786D01*
X5407659Y1977897D01*
X5400293Y1981454D01*
X5389372Y1985263D01*
X5371338Y1985263D01*
X5360415Y1981454D01*
X5353050Y1977897D01*
X5345684Y1970786D01*
X5342127Y1963420D01*
X5342127Y1948942D01*
X5342127Y2009139D02*
G01*
X5396738Y2009139D01*
X5407659Y2012950D01*
X5415025Y2020062D01*
X5418581Y2030984D01*
X5418581Y2038350D01*
X5415025Y2049271D01*
X5407659Y2056384D01*
X5396738Y2060194D01*
X5342127Y2060194D01*
X5342127Y2109470D02*
G01*
X5418581Y2109470D01*
X5342127Y2084070D02*
G01*
X5342127Y2135123D01*
X6430009Y2945384D02*
G01*
X6426200Y2952750D01*
X6419088Y2960115D01*
X6411722Y2963671D01*
X6397243Y2963671D01*
X6389877Y2960115D01*
X6382765Y2952750D01*
X6378956Y2945384D01*
X6375400Y2934462D01*
X6375400Y2916428D01*
X6378956Y2905505D01*
X6382765Y2898139D01*
X6389877Y2890773D01*
X6397243Y2887218D01*
X6411722Y2887218D01*
X6419088Y2890773D01*
X6426200Y2898139D01*
X6430009Y2905505D01*
X6430009Y2916428D01*
X6411722Y2916428D02*
G01*
X6430009Y2916428D01*
X6453886Y2963671D02*
G01*
X6453886Y2887218D01*
X6453886Y2963671D02*
G01*
X6504940Y2887218D01*
X6504940Y2963671D02*
G01*
X6504940Y2887218D01*
X6528815Y2963671D02*
G01*
X6528815Y2887218D01*
X6528815Y2963671D02*
G01*
X6554215Y2963671D01*
X6565138Y2960115D01*
X6572504Y2952750D01*
X6576059Y2945384D01*
X6579870Y2934462D01*
X6579870Y2916428D01*
X6576059Y2905505D01*
X6572504Y2898139D01*
X6565138Y2890773D01*
X6554215Y2887218D01*
X6528815Y2887218D01*
X6419088Y3217671D02*
G01*
X6382765Y3217671D01*
X6378956Y3184905D01*
X6382765Y3188462D01*
X6393688Y3192271D01*
X6404609Y3192271D01*
X6415277Y3188462D01*
X6422643Y3181350D01*
X6426200Y3170428D01*
X6426200Y3163062D01*
X6422643Y3152139D01*
X6415277Y3144773D01*
X6404609Y3141218D01*
X6393688Y3141218D01*
X6382765Y3144773D01*
X6378956Y3148584D01*
X6375400Y3155695D01*
X6450329Y3217671D02*
G01*
X6479286Y3141218D01*
X6508495Y3217671D02*
G01*
X6479286Y3141218D01*
X6438900Y3471671D02*
G01*
X6438900Y3395218D01*
X6438900Y3471671D02*
G01*
X6471665Y3471671D01*
X6482588Y3468115D01*
X6486143Y3464305D01*
X6489700Y3457194D01*
X6489700Y3449828D01*
X6486143Y3442462D01*
X6482588Y3438905D01*
X6471665Y3435350D01*
X6438900Y3435350D02*
G01*
X6471665Y3435350D01*
X6482588Y3431539D01*
X6486143Y3427984D01*
X6489700Y3420618D01*
X6489700Y3409695D01*
X6486143Y3402584D01*
X6482588Y3398773D01*
X6471665Y3395218D01*
X6438900Y3395218D01*
X6561074Y3446271D02*
G01*
X6557518Y3435350D01*
X6550152Y3427984D01*
X6539229Y3424428D01*
X6535674Y3424428D01*
X6524752Y3427984D01*
X6517386Y3435350D01*
X6513829Y3446271D01*
X6513829Y3449828D01*
X6517386Y3460750D01*
X6524752Y3468115D01*
X6535674Y3471671D01*
X6539229Y3471671D01*
X6550152Y3468115D01*
X6557518Y3460750D01*
X6561074Y3446271D01*
X6561074Y3427984D01*
X6557518Y3409695D01*
X6550152Y3398773D01*
X6539229Y3395218D01*
X6531863Y3395218D01*
X6521195Y3398773D01*
X6517386Y3406139D01*
X6451600Y5226050D02*
G01*
X6444488Y5233415D01*
X6433565Y5236971D01*
X6419088Y5236971D01*
X6408165Y5233415D01*
X6400800Y5226050D01*
X6400800Y5218684D01*
X6404356Y5211571D01*
X6408165Y5207762D01*
X6415277Y5204205D01*
X6437122Y5196839D01*
X6444488Y5193284D01*
X6448043Y5189728D01*
X6451600Y5182362D01*
X6451600Y5171439D01*
X6444488Y5164073D01*
X6433565Y5160518D01*
X6419088Y5160518D01*
X6408165Y5164073D01*
X6400800Y5171439D01*
X6475729Y5236971D02*
G01*
X6475729Y5160518D01*
X6554215Y5218684D02*
G01*
X6550659Y5226050D01*
X6543293Y5233415D01*
X6536181Y5236971D01*
X6521450Y5236971D01*
X6514338Y5233415D01*
X6506972Y5226050D01*
X6503415Y5218684D01*
X6499606Y5207762D01*
X6499606Y5189728D01*
X6503415Y5178805D01*
X6506972Y5171439D01*
X6514338Y5164073D01*
X6521450Y5160518D01*
X6536181Y5160518D01*
X6543293Y5164073D01*
X6550659Y5171439D01*
X6554215Y5178805D01*
X6554215Y5189728D01*
X6536181Y5189728D02*
G01*
X6554215Y5189728D01*
X5540502Y5321300D02*
G01*
X5645404Y5321300D01*
X5540502Y5321300D02*
G01*
X5540502Y5366257D01*
X5545581Y5381244D01*
X5550408Y5386323D01*
X5560568Y5391404D01*
X5570474Y5391404D01*
X5580379Y5386323D01*
X5585459Y5381244D01*
X5590540Y5366257D01*
X5590540Y5321300D01*
X5590540Y5356352D02*
G01*
X5645404Y5391404D01*
X5540502Y5424423D02*
G01*
X5645404Y5424423D01*
X5540502Y5424423D02*
G01*
X5540502Y5489194D01*
X5590540Y5424423D02*
G01*
X5590540Y5464302D01*
X5645404Y5424423D02*
G01*
X5645404Y5489194D01*
X5565393Y5597397D02*
G01*
X5555488Y5592318D01*
X5545581Y5582412D01*
X5540502Y5572252D01*
X5540502Y5552186D01*
X5545581Y5542279D01*
X5555488Y5532373D01*
X5565393Y5527294D01*
X5580379Y5522213D01*
X5605525Y5522213D01*
X5620511Y5527294D01*
X5630418Y5532373D01*
X5640577Y5542279D01*
X5645404Y5552186D01*
X5645404Y5572252D01*
X5640577Y5582412D01*
X5630418Y5592318D01*
X5620511Y5597397D01*
X6395465Y5480050D02*
G01*
X6395465Y5414518D01*
X6362700Y5447284D02*
G01*
X6428231Y5447284D01*
X6495795Y5490971D02*
G01*
X6459474Y5490971D01*
X6455663Y5458205D01*
X6459474Y5461762D01*
X6470395Y5465571D01*
X6481318Y5465571D01*
X6492240Y5461762D01*
X6499352Y5454650D01*
X6503161Y5443728D01*
X6503161Y5436362D01*
X6499352Y5425439D01*
X6492240Y5418073D01*
X6481318Y5414518D01*
X6470395Y5414518D01*
X6459474Y5418073D01*
X6455663Y5421884D01*
X6452108Y5428995D01*
X6527038Y5490971D02*
G01*
X6556247Y5414518D01*
X6585204Y5490971D02*
G01*
X6556247Y5414518D01*
D11*
X1309115Y5422900D02*
G01*
X1452371Y5422900D01*
X1309115Y5422900D02*
G01*
X1309115Y5484368D01*
X1315973Y5504687D01*
X1322831Y5511545D01*
X1336294Y5518404D01*
X1356868Y5518404D01*
X1370584Y5511545D01*
X1377442Y5504687D01*
X1384045Y5484368D01*
X1384045Y5422900D01*
X1309115Y5563362D02*
G01*
X1315973Y5570220D01*
X1309115Y5577078D01*
X1302257Y5570220D01*
X1309115Y5563362D01*
X1356868Y5570220D02*
G01*
X1452371Y5570220D01*
X1500123Y5622036D02*
G01*
X1500123Y5744718D01*
X1309115Y5789676D02*
G01*
X1452371Y5789676D01*
X1309115Y5789676D02*
G01*
X1309115Y5851144D01*
X1315973Y5871463D01*
X1322831Y5878321D01*
X1336294Y5885179D01*
X1356868Y5885179D01*
X1370584Y5878321D01*
X1377442Y5871463D01*
X1384045Y5851144D01*
X1384045Y5789676D01*
X1309115Y5930137D02*
G01*
X1315973Y5936995D01*
X1309115Y5943854D01*
X1302257Y5936995D01*
X1309115Y5930137D01*
X1356868Y5936995D02*
G01*
X1452371Y5936995D01*
X1377442Y6070600D02*
G01*
X1363726Y6056884D01*
X1356868Y6043421D01*
X1356868Y6022847D01*
X1363726Y6009386D01*
X1377442Y5995670D01*
X1397762Y5988812D01*
X1411478Y5988812D01*
X1431797Y5995670D01*
X1445513Y6009386D01*
X1452371Y6022847D01*
X1452371Y6043421D01*
X1445513Y6056884D01*
X1431797Y6070600D01*
X1356868Y6149594D02*
G01*
X1363726Y6136131D01*
X1377442Y6122415D01*
X1397762Y6115557D01*
X1411478Y6115557D01*
X1431797Y6122415D01*
X1445513Y6136131D01*
X1452371Y6149594D01*
X1452371Y6170168D01*
X1445513Y6183884D01*
X1431797Y6197345D01*
X1411478Y6204204D01*
X1397762Y6204204D01*
X1377442Y6197345D01*
X1363726Y6183884D01*
X1356868Y6170168D01*
X1356868Y6149594D01*
D10*
X1193800Y7504937D02*
G01*
X1193800Y7419594D01*
X1199387Y7402576D01*
X1210818Y7391145D01*
X1227836Y7385558D01*
X1239265Y7385558D01*
X1256284Y7391145D01*
X1267713Y7402576D01*
X1273302Y7419594D01*
X1273302Y7504937D01*
X1390395Y7487665D02*
G01*
X1378965Y7499095D01*
X1361947Y7504937D01*
X1339342Y7504937D01*
X1322323Y7499095D01*
X1310894Y7487665D01*
X1310894Y7476489D01*
X1316481Y7465060D01*
X1322323Y7459471D01*
X1333500Y7453629D01*
X1367789Y7442454D01*
X1378965Y7436612D01*
X1384807Y7431023D01*
X1390395Y7419594D01*
X1390395Y7402576D01*
X1378965Y7391145D01*
X1361947Y7385558D01*
X1339342Y7385558D01*
X1322323Y7391145D01*
X1310894Y7402576D01*
X1427987Y7504937D02*
G01*
X1427987Y7385558D01*
X1427987Y7504937D02*
G01*
X1479042Y7504937D01*
X1496060Y7499095D01*
X1501647Y7493508D01*
X1507489Y7482078D01*
X1507489Y7470647D01*
X1501647Y7459471D01*
X1496060Y7453629D01*
X1479042Y7448042D01*
X1427987Y7448042D02*
G01*
X1479042Y7448042D01*
X1496060Y7442454D01*
X1501647Y7436612D01*
X1507489Y7425181D01*
X1507489Y7408163D01*
X1501647Y7396987D01*
X1496060Y7391145D01*
X1479042Y7385558D01*
X1427987Y7385558D01*
X3543300Y7492237D02*
G01*
X3543300Y7406894D01*
X3548888Y7389876D01*
X3560318Y7378445D01*
X3577336Y7372858D01*
X3588765Y7372858D01*
X3605784Y7378445D01*
X3617213Y7389876D01*
X3622802Y7406894D01*
X3622802Y7492237D01*
X3739895Y7474965D02*
G01*
X3728465Y7486395D01*
X3711447Y7492237D01*
X3688841Y7492237D01*
X3671824Y7486395D01*
X3660393Y7474965D01*
X3660393Y7463789D01*
X3665981Y7452360D01*
X3671824Y7446771D01*
X3683000Y7440929D01*
X3717290Y7429754D01*
X3728465Y7423912D01*
X3734308Y7418323D01*
X3739895Y7406894D01*
X3739895Y7389876D01*
X3728465Y7378445D01*
X3711447Y7372858D01*
X3688841Y7372858D01*
X3671824Y7378445D01*
X3660393Y7389876D01*
X3777488Y7492237D02*
G01*
X3777488Y7372858D01*
X3777488Y7492237D02*
G01*
X3828541Y7492237D01*
X3845559Y7486395D01*
X3851147Y7480808D01*
X3856990Y7469378D01*
X3856990Y7457947D01*
X3851147Y7446771D01*
X3845559Y7440929D01*
X3828541Y7435342D01*
X3777488Y7435342D02*
G01*
X3828541Y7435342D01*
X3845559Y7429754D01*
X3851147Y7423912D01*
X3856990Y7412481D01*
X3856990Y7395463D01*
X3851147Y7384287D01*
X3845559Y7378445D01*
X3828541Y7372858D01*
X3777488Y7372858D01*
D11*
X3628390Y5518404D02*
G01*
X3614674Y5504687D01*
X3607815Y5484368D01*
X3607815Y5456936D01*
X3614674Y5436615D01*
X3628390Y5422900D01*
X3641852Y5422900D01*
X3655568Y5429757D01*
X3662425Y5436615D01*
X3669284Y5450078D01*
X3682745Y5490971D01*
X3689604Y5504687D01*
X3696461Y5511545D01*
X3710177Y5518404D01*
X3730497Y5518404D01*
X3744213Y5504687D01*
X3751072Y5484368D01*
X3751072Y5456936D01*
X3744213Y5436615D01*
X3730497Y5422900D01*
X3607815Y5611113D02*
G01*
X3751072Y5611113D01*
X3607815Y5563362D02*
G01*
X3607815Y5658865D01*
X3607815Y5703823D02*
G01*
X3751072Y5703823D01*
X3607815Y5703823D02*
G01*
X3751072Y5758434D01*
X3607815Y5812789D02*
G01*
X3751072Y5758434D01*
X3607815Y5812789D02*
G01*
X3751072Y5812789D01*
X3607815Y5871463D02*
G01*
X3607815Y5946647D01*
X3662425Y5905500D01*
X3662425Y5926073D01*
X3669284Y5939789D01*
X3676141Y5946647D01*
X3696461Y5953252D01*
X3710177Y5953252D01*
X3730497Y5946647D01*
X3744213Y5932931D01*
X3751072Y5912357D01*
X3751072Y5892037D01*
X3744213Y5871463D01*
X3737356Y5864605D01*
X3723640Y5858002D01*
X3641852Y6005068D02*
G01*
X3634993Y6005068D01*
X3621531Y6011926D01*
X3614674Y6018784D01*
X3607815Y6032500D01*
X3607815Y6059678D01*
X3614674Y6073394D01*
X3621531Y6080252D01*
X3634993Y6087110D01*
X3648709Y6087110D01*
X3662425Y6080252D01*
X3682745Y6066536D01*
X3751072Y5998463D01*
X3751072Y6093713D01*
D10*
X6430009Y5739384D02*
G01*
X6426200Y5746750D01*
X6419088Y5754115D01*
X6411722Y5757671D01*
X6397243Y5757671D01*
X6389877Y5754115D01*
X6382765Y5746750D01*
X6378956Y5739384D01*
X6375400Y5728462D01*
X6375400Y5710428D01*
X6378956Y5699505D01*
X6382765Y5692139D01*
X6389877Y5684773D01*
X6397243Y5681218D01*
X6411722Y5681218D01*
X6419088Y5684773D01*
X6426200Y5692139D01*
X6430009Y5699505D01*
X6430009Y5710428D01*
X6411722Y5710428D02*
G01*
X6430009Y5710428D01*
X6453886Y5757671D02*
G01*
X6453886Y5681218D01*
X6453886Y5757671D02*
G01*
X6504940Y5681218D01*
X6504940Y5757671D02*
G01*
X6504940Y5681218D01*
X6528815Y5757671D02*
G01*
X6528815Y5681218D01*
X6528815Y5757671D02*
G01*
X6554215Y5757671D01*
X6565138Y5754115D01*
X6572504Y5746750D01*
X6576059Y5739384D01*
X6579870Y5728462D01*
X6579870Y5710428D01*
X6576059Y5699505D01*
X6572504Y5692139D01*
X6565138Y5684773D01*
X6554215Y5681218D01*
X6528815Y5681218D01*
X706628Y1901444D02*
G01*
X710184Y1894078D01*
X717550Y1886965D01*
X724915Y1883155D01*
X735837Y1879600D01*
X753871Y1879600D01*
X764794Y1883155D01*
X772160Y1886965D01*
X779526Y1894078D01*
X783081Y1901444D01*
X783081Y1915921D01*
X779526Y1923287D01*
X772160Y1930400D01*
X764794Y1934210D01*
X753871Y1937765D01*
X735837Y1937765D01*
X724915Y1934210D01*
X717550Y1930400D01*
X710184Y1923287D01*
X706628Y1915921D01*
X706628Y1901444D01*
X706628Y1961895D02*
G01*
X761237Y1961895D01*
X772160Y1965452D01*
X779526Y1972563D01*
X783081Y1983486D01*
X783081Y1990852D01*
X779526Y2001773D01*
X772160Y2009139D01*
X761237Y2012695D01*
X706628Y2012695D01*
X706628Y2062226D02*
G01*
X783081Y2062226D01*
X706628Y2036571D02*
G01*
X706628Y2087626D01*
X717550Y2144268D02*
G01*
X783081Y2144268D01*
X750315Y2111502D02*
G01*
X750315Y2177034D01*
X706628Y2244597D02*
G01*
X706628Y2208276D01*
X739394Y2204720D01*
X735837Y2208276D01*
X732028Y2219197D01*
X732028Y2230120D01*
X735837Y2241042D01*
X742950Y2248407D01*
X753871Y2251963D01*
X761237Y2251963D01*
X772160Y2248407D01*
X779526Y2241042D01*
X783081Y2230120D01*
X783081Y2219197D01*
X779526Y2208276D01*
X775715Y2204720D01*
X768604Y2201163D01*
X706628Y2275839D02*
G01*
X783081Y2305050D01*
X706628Y2334260D02*
G01*
X783081Y2305050D01*
X753871Y4102100D02*
G01*
X677418Y4102100D01*
X753871Y4102100D02*
G01*
X753871Y4069334D01*
X750315Y4058412D01*
X746505Y4054855D01*
X739394Y4051300D01*
X728471Y4051300D01*
X721105Y4054855D01*
X717550Y4058412D01*
X713739Y4069334D01*
X713739Y4102100D01*
X753871Y4027170D02*
G01*
X677418Y4027170D01*
X735584Y3948684D02*
G01*
X742950Y3952239D01*
X750315Y3959605D01*
X753871Y3966718D01*
X753871Y3981450D01*
X750315Y3988562D01*
X742950Y3995928D01*
X735584Y3999484D01*
X724662Y4003294D01*
X706628Y4003294D01*
X695705Y3999484D01*
X688339Y3995928D01*
X680973Y3988562D01*
X677418Y3981450D01*
X677418Y3966718D01*
X680973Y3959605D01*
X688339Y3952239D01*
X695705Y3948684D01*
X753871Y3902710D02*
G01*
X750315Y3910076D01*
X742950Y3917442D01*
X735584Y3920997D01*
X724662Y3924554D01*
X706628Y3924554D01*
X695705Y3920997D01*
X688339Y3917442D01*
X680973Y3910076D01*
X677418Y3902710D01*
X677418Y3888231D01*
X680973Y3881120D01*
X688339Y3873754D01*
X695705Y3870197D01*
X706628Y3866387D01*
X724662Y3866387D01*
X735584Y3870197D01*
X742950Y3873754D01*
X750315Y3881120D01*
X753871Y3888231D01*
X753871Y3902710D01*
X652018Y3842512D02*
G01*
X652018Y3776979D01*
X753871Y3753104D02*
G01*
X677418Y3753104D01*
X677418Y3753104D02*
G01*
X677418Y3709415D01*
X753871Y3685286D02*
G01*
X677418Y3685286D01*
X753871Y3685286D02*
G01*
X753871Y3638042D01*
X717550Y3685286D02*
G01*
X717550Y3656329D01*
X677418Y3685286D02*
G01*
X677418Y3638042D01*
X753871Y3614165D02*
G01*
X677418Y3614165D01*
X753871Y3614165D02*
G01*
X753871Y3566921D01*
X717550Y3614165D02*
G01*
X717550Y3584955D01*
X753871Y3517392D02*
G01*
X677418Y3517392D01*
X753871Y3542792D02*
G01*
X753871Y3491992D01*
X1798828Y4533900D02*
G01*
X1875281Y4533900D01*
X1798828Y4533900D02*
G01*
X1798828Y4566665D01*
X1802384Y4577587D01*
X1806194Y4581144D01*
X1813305Y4584700D01*
X1824228Y4584700D01*
X1831594Y4581144D01*
X1835150Y4577587D01*
X1838960Y4566665D01*
X1838960Y4533900D01*
X1798828Y4608829D02*
G01*
X1875281Y4608829D01*
X1817115Y4687315D02*
G01*
X1809750Y4683760D01*
X1802384Y4676394D01*
X1798828Y4669281D01*
X1798828Y4654550D01*
X1802384Y4647437D01*
X1809750Y4640071D01*
X1817115Y4636515D01*
X1828037Y4632705D01*
X1846071Y4632705D01*
X1856994Y4636515D01*
X1864360Y4640071D01*
X1871726Y4647437D01*
X1875281Y4654550D01*
X1875281Y4669281D01*
X1871726Y4676394D01*
X1864360Y4683760D01*
X1856994Y4687315D01*
X1798828Y4733289D02*
G01*
X1802384Y4725923D01*
X1809750Y4718557D01*
X1817115Y4715002D01*
X1828037Y4711445D01*
X1846071Y4711445D01*
X1856994Y4715002D01*
X1864360Y4718557D01*
X1871726Y4725923D01*
X1875281Y4733289D01*
X1875281Y4747768D01*
X1871726Y4754879D01*
X1864360Y4762245D01*
X1856994Y4765802D01*
X1846071Y4769612D01*
X1828037Y4769612D01*
X1817115Y4765802D01*
X1809750Y4762245D01*
X1802384Y4754879D01*
X1798828Y4747768D01*
X1798828Y4733289D01*
X1900681Y4793487D02*
G01*
X1900681Y4859020D01*
X1798828Y4882895D02*
G01*
X1875281Y4882895D01*
X1798828Y4882895D02*
G01*
X1798828Y4915662D01*
X1802384Y4926584D01*
X1806194Y4930139D01*
X1813305Y4933950D01*
X1820671Y4933950D01*
X1828037Y4930139D01*
X1831594Y4926584D01*
X1835150Y4915662D01*
X1835150Y4882895D01*
X1835150Y4908550D02*
G01*
X1875281Y4933950D01*
X1798828Y4957826D02*
G01*
X1875281Y4957826D01*
X1817115Y5036565D02*
G01*
X1809750Y5032755D01*
X1802384Y5025644D01*
X1798828Y5018278D01*
X1798828Y5003800D01*
X1802384Y4996434D01*
X1809750Y4989068D01*
X1817115Y4985512D01*
X1828037Y4981955D01*
X1846071Y4981955D01*
X1856994Y4985512D01*
X1864360Y4989068D01*
X1871726Y4996434D01*
X1875281Y5003800D01*
X1875281Y5018278D01*
X1871726Y5025644D01*
X1864360Y5032755D01*
X1856994Y5036565D01*
X1846071Y5036565D01*
X1846071Y5018278D02*
G01*
X1846071Y5036565D01*
X1798828Y5060442D02*
G01*
X1875281Y5060442D01*
X1798828Y5111242D02*
G01*
X1875281Y5111242D01*
X1835150Y5060442D02*
G01*
X1835150Y5111242D01*
X1798828Y5160771D02*
G01*
X1875281Y5160771D01*
X1798828Y5135371D02*
G01*
X1798828Y5186171D01*
X3282950Y5003800D02*
G01*
X3290315Y5010912D01*
X3293872Y5021834D01*
X3293872Y5036312D01*
X3290315Y5047234D01*
X3282950Y5054600D01*
X3275584Y5054600D01*
X3268472Y5051044D01*
X3264661Y5047234D01*
X3261106Y5040121D01*
X3253740Y5018278D01*
X3250184Y5010912D01*
X3246627Y5007355D01*
X3239261Y5003800D01*
X3228340Y5003800D01*
X3220974Y5010912D01*
X3217418Y5021834D01*
X3217418Y5036312D01*
X3220974Y5047234D01*
X3228340Y5054600D01*
X3293872Y4954270D02*
G01*
X3217418Y4954270D01*
X3293872Y4979670D02*
G01*
X3293872Y4928870D01*
X3293872Y4904739D02*
G01*
X3217418Y4904739D01*
X3293872Y4904739D02*
G01*
X3217418Y4875784D01*
X3293872Y4846573D02*
G01*
X3217418Y4875784D01*
X3293872Y4846573D02*
G01*
X3217418Y4846573D01*
X3192018Y4822697D02*
G01*
X3192018Y4757165D01*
X3293872Y4733036D02*
G01*
X3217418Y4733036D01*
X3217418Y4733036D02*
G01*
X3217418Y4689602D01*
X3293872Y4665471D02*
G01*
X3217418Y4665471D01*
X3293872Y4665471D02*
G01*
X3293872Y4618228D01*
X3257550Y4665471D02*
G01*
X3257550Y4636515D01*
X3217418Y4665471D02*
G01*
X3217418Y4618228D01*
X3293872Y4594352D02*
G01*
X3217418Y4594352D01*
X3293872Y4594352D02*
G01*
X3293872Y4546854D01*
X3257550Y4594352D02*
G01*
X3257550Y4565142D01*
X3293872Y4497578D02*
G01*
X3217418Y4497578D01*
X3293872Y4522978D02*
G01*
X3293872Y4472178D01*
X4095750Y5067300D02*
G01*
X4088384Y5060187D01*
X4084827Y5049265D01*
X4084827Y5034787D01*
X4088384Y5023865D01*
X4095750Y5016500D01*
X4103115Y5016500D01*
X4110227Y5020055D01*
X4114038Y5023865D01*
X4117593Y5030978D01*
X4124959Y5052821D01*
X4128515Y5060187D01*
X4132072Y5063744D01*
X4139438Y5067300D01*
X4150359Y5067300D01*
X4157725Y5060187D01*
X4161281Y5049265D01*
X4161281Y5034787D01*
X4157725Y5023865D01*
X4150359Y5016500D01*
X4084827Y5116829D02*
G01*
X4161281Y5116829D01*
X4084827Y5091429D02*
G01*
X4084827Y5142229D01*
X4084827Y5166360D02*
G01*
X4161281Y5166360D01*
X4084827Y5166360D02*
G01*
X4161281Y5195315D01*
X4084827Y5224526D02*
G01*
X4161281Y5195315D01*
X4084827Y5224526D02*
G01*
X4161281Y5224526D01*
X4186681Y5248402D02*
G01*
X4186681Y5313934D01*
X4084827Y5338063D02*
G01*
X4161281Y5338063D01*
X4084827Y5338063D02*
G01*
X4084827Y5370576D01*
X4088384Y5381497D01*
X4092193Y5385307D01*
X4099306Y5388863D01*
X4106672Y5388863D01*
X4114038Y5385307D01*
X4117593Y5381497D01*
X4121150Y5370576D01*
X4121150Y5338063D01*
X4121150Y5363463D02*
G01*
X4161281Y5388863D01*
X4084827Y5412739D02*
G01*
X4161281Y5412739D01*
X4103115Y5491479D02*
G01*
X4095750Y5487670D01*
X4088384Y5480557D01*
X4084827Y5473192D01*
X4084827Y5458713D01*
X4088384Y5451347D01*
X4095750Y5444236D01*
X4103115Y5440426D01*
X4114038Y5436870D01*
X4132072Y5436870D01*
X4142993Y5440426D01*
X4150359Y5444236D01*
X4157725Y5451347D01*
X4161281Y5458713D01*
X4161281Y5473192D01*
X4157725Y5480557D01*
X4150359Y5487670D01*
X4142993Y5491479D01*
X4132072Y5491479D01*
X4132072Y5473192D02*
G01*
X4132072Y5491479D01*
X4084827Y5515355D02*
G01*
X4161281Y5515355D01*
X4084827Y5566410D02*
G01*
X4161281Y5566410D01*
X4121150Y5515355D02*
G01*
X4121150Y5566410D01*
X4084827Y5615686D02*
G01*
X4161281Y5615686D01*
X4084827Y5590286D02*
G01*
X4084827Y5641339D01*
X4741672Y2247900D02*
G01*
X4665218Y2247900D01*
X4741672Y2224023D02*
G01*
X4665218Y2224023D01*
X4741672Y2224023D02*
G01*
X4665218Y2172970D01*
X4741672Y2172970D02*
G01*
X4665218Y2172970D01*
X4730750Y2116328D02*
G01*
X4665218Y2116328D01*
X4697984Y2149094D02*
G01*
X4697984Y2083562D01*
X4727193Y2059431D02*
G01*
X4730750Y2052320D01*
X4741672Y2041397D01*
X4665218Y2041397D01*
X4723384Y2013712D02*
G01*
X4727193Y2013712D01*
X4734306Y2010155D01*
X4738115Y2006345D01*
X4741672Y1999234D01*
X4741672Y1984502D01*
X4738115Y1977389D01*
X4734306Y1973834D01*
X4727193Y1970023D01*
X4719827Y1970023D01*
X4712461Y1973834D01*
X4701540Y1980945D01*
X4665218Y2017268D01*
X4665218Y1966468D01*
X4741672Y1942337D02*
G01*
X4665218Y1913381D01*
X4741672Y1884171D02*
G01*
X4665218Y1913381D01*
X832865Y-196850D02*
G01*
X832865Y-262381D01*
X800100Y-229615D02*
G01*
X865631Y-229615D01*
X933195Y-185928D02*
G01*
X896873Y-185928D01*
X893063Y-218694D01*
X896873Y-215137D01*
X907795Y-211328D01*
X918718Y-211328D01*
X929639Y-215137D01*
X936752Y-222250D01*
X940562Y-233171D01*
X940562Y-240537D01*
X936752Y-251460D01*
X929639Y-258826D01*
X918718Y-262381D01*
X907795Y-262381D01*
X896873Y-258826D01*
X893063Y-255015D01*
X889507Y-247904D01*
X964437Y-185928D02*
G01*
X993647Y-262381D01*
X1022604Y-185928D02*
G01*
X993647Y-262381D01*
D12*
X965200Y2057400D02*
G01*
X965200Y2311400D01*
X1219200Y2311400D01*
X1219200Y2057400D01*
X1028700Y2057400D01*
D13*
X965200Y2057400D02*
G01*
X1028700Y2057400D01*
D12*
X6350000Y6350000D02*
G01*
X6096000Y6350000D01*
X6096000Y7366000D01*
X6350000Y7366000D01*
X6350000Y7175500D01*
D13*
X6350000Y6350000D02*
G01*
X6350000Y7175500D01*
D12*
X6096000Y2984500D02*
G01*
X6096000Y2794000D01*
X6350000Y2794000D01*
X6350000Y3556000D01*
X6096000Y3556000D01*
D13*
X6096000Y3556000D02*
G01*
X6096000Y2984500D01*
D14*
X5825200Y638213D02*
G01*
X5825200Y588129D01*
X5825218Y588129D01*
X6265199Y638213D02*
G01*
X6265199Y588230D01*
X6265181Y588230D01*
X6265199Y1308211D02*
G01*
X6265199Y638213D01*
X6265199Y1308211D02*
G01*
X5825200Y1308211D01*
X5825200Y638213D01*
X6305199Y586780D02*
G01*
X6305199Y1348214D01*
X5785200Y1348214D01*
X5785200Y586780D01*
D12*
X6350000Y5651500D02*
G01*
X6350000Y5842000D01*
X6096000Y5842000D01*
X6096000Y5080000D01*
X6350000Y5080000D01*
D13*
X6350000Y5080000D02*
G01*
X6350000Y5651500D01*
D12*
X965200Y342900D02*
G01*
X965200Y596900D01*
X1219200Y596900D01*
X1219200Y342900D01*
X1028700Y342900D01*
D13*
X965200Y342900D02*
G01*
X1028700Y342900D01*
D12*
X520700Y2489200D02*
G01*
X533400Y2489200D01*
X533400Y7569200D01*
X266700Y7569200D01*
X266700Y2489200D01*
X520700Y2489200D01*
X2044700Y7569200D02*
G01*
X2032000Y7569200D01*
X2032000Y2489200D01*
X2298700Y2489200D01*
X2298700Y7569200D01*
X2044700Y7569200D01*
X3048000Y2489200D02*
G01*
X3060700Y2489200D01*
X3060700Y7569200D01*
X2794000Y7569200D01*
X2794000Y2489200D01*
X3048000Y2489200D01*
X4330700Y7569200D02*
G01*
X4318000Y7569200D01*
X4318000Y2489200D01*
X4584700Y2489200D01*
X4584700Y7569200D01*
X4330700Y7569200D01*
X4914900Y342900D02*
G01*
X4914900Y596900D01*
X5168900Y596900D01*
X5168900Y342900D01*
X4978400Y342900D01*
D13*
X4914900Y342900D02*
G01*
X4978400Y342900D01*
D12*
X4914900Y2057400D02*
G01*
X4914900Y2311400D01*
X5168900Y2311400D01*
X5168900Y2057400D01*
X4978400Y2057400D01*
D13*
X4914900Y2057400D02*
G01*
X4978400Y2057400D01*
D12*
X3848100Y-254000D02*
G01*
X4038600Y-254000D01*
X4038600Y0D01*
X2768600Y0D01*
X2768600Y-254000D01*
D13*
X2768600Y-254000D02*
G01*
X3848100Y-254000D01*
D14*
X1138301Y-450392D02*
G01*
X2138299Y-450392D01*
X1137767Y164033D02*
G01*
X1098295Y181399D01*
X1098295Y81399D01*
X1137767Y101092D01*
X1138301Y231399D02*
G01*
X2138299Y231399D01*
X1138301Y231399D02*
G01*
X1138301Y-528599D01*
X2138299Y231399D02*
G01*
X2138299Y-528599D01*
X1138301Y-528599D02*
G01*
X2138299Y-528599D01*
X1138301Y11480D02*
G01*
X2138299Y11480D01*
X6266992Y1430401D02*
G01*
X6266992Y2430398D01*
X5652566Y1429867D02*
G01*
X5635200Y1390395D01*
X5735200Y1390395D01*
X5715508Y1429867D01*
X5585200Y1430401D02*
G01*
X5585200Y2430398D01*
X5585200Y1430401D02*
G01*
X6345199Y1430401D01*
X5585200Y2430398D02*
G01*
X6345199Y2430398D01*
X6345199Y1430401D02*
G01*
X6345199Y2430398D01*
X5805119Y1430401D02*
G01*
X5805119Y2430398D01*
G75*
G01*
X5785201Y586781D02*
G03*
X6305199Y586781I259999J0D01*
G75*
G01*
X5825218Y588129D02*
G03*
X6265182Y588231I219982J51D01*
M02*
